<?xml version="1.0" standalone="no"?>
<!DOCTYPE svg PUBLIC "-//W3C//DTD SVG 1.1//EN" "http://www.w3.org/Graphics/SVG/1.1/DTD/svg11.dtd" >
<svg xmlns="http://www.w3.org/2000/svg" xmlns:xlink="http://www.w3.org/1999/xlink" version="1.1">
<metadata></metadata>
<defs>
<font id="runicregular" horiz-adv-x="538" >
<font-face units-per-em="2048" ascent="1638" descent="-410" />
<missing-glyph horiz-adv-x="500" />
<glyph horiz-adv-x="0" />
<glyph unicode="&#xd;" horiz-adv-x="1024" />
<glyph unicode=" " d="M-109 1495h109q55 -6 100 -6l301 18q63 0 138 -12h104v82h-104q-78 12 -140 12l-299 -16h-47q-25 0 -51 4h-111v-82zM-102 -61v-82h188q14 -2 27 -2h26h279q10 2 24.5 7t26.5 5l174 -10v82q-25 0 -59.5 1t-67.5 1t-57.5 1t-30.5 1h-37l-301 -19l-90 15h-102zM102 1319 q0 -18 9.5 -32.5t24 -28t28.5 -27t26 -31.5q2 -2 11 -6q16 -10 36.5 -20.5t43.5 -10.5q25 0 45 23q-18 55 -42 102t-51 98q-8 23 -32 23q-16 0 -26.5 -9t-21 -21.5t-21.5 -22.5t-26 -13q-4 -16 -4 -24zM113 219q0 -23 8 -54.5t22.5 -60t35 -49t46.5 -20.5q20 0 39 10 q-8 18 -8 45q0 41 15.5 84t15.5 84q0 23 -9 45.5t-38 38.5q-18 -10 -41 -21.5t-41.5 -24.5t-31.5 -31.5t-13 -45.5zM131 809q0 -18 3 -46t12.5 -53.5t26.5 -44t48 -18.5q27 0 47.5 19.5t34.5 46t21.5 53.5t9.5 41q-33 29 -62.5 61.5t-64.5 32.5q-16 0 -34.5 -10t-41.5 -37 v-45z" />
<glyph unicode="," d="M-109 1495h109q55 -6 100 -6l301 18q63 0 138 -12h104v82h-104q-78 12 -140 12l-299 -16h-47q-25 0 -51 4h-111v-82zM-102 -61v-82h188q14 -2 27 -2h26h279q10 2 24.5 7t26.5 5l174 -10v82q-25 0 -59.5 1t-67.5 1t-57.5 1t-30.5 1h-37l-301 -19l-90 15h-102zM102 1319 q0 -18 9.5 -32.5t24 -28t28.5 -27t26 -31.5q2 -2 11 -6q16 -10 36.5 -20.5t43.5 -10.5q25 0 45 23q-18 55 -42 102t-51 98q-8 23 -32 23q-16 0 -26.5 -9t-21 -21.5t-21.5 -22.5t-26 -13q-4 -16 -4 -24zM113 219q0 -23 8 -54.5t22.5 -60t35 -49t46.5 -20.5q20 0 39 10 q-8 18 -8 45q0 41 15.5 84t15.5 84q0 23 -9 45.5t-38 38.5q-18 -10 -41 -21.5t-41.5 -24.5t-31.5 -31.5t-13 -45.5zM131 809q0 -18 3 -46t12.5 -53.5t26.5 -44t48 -18.5q27 0 47.5 19.5t34.5 46t21.5 53.5t9.5 41q-33 29 -62.5 61.5t-64.5 32.5q-16 0 -34.5 -10t-41.5 -37 v-45z" />
<glyph unicode="-" d="M-109 1495h109q55 -6 100 -6l301 18q63 0 138 -12h104v82h-104q-78 12 -140 12l-299 -16h-47q-25 0 -51 4h-111v-82zM-102 -61v-82h188q14 -2 27 -2h26h279q10 2 24.5 7t26.5 5l174 -10v82q-25 0 -59.5 1t-67.5 1t-57.5 1t-30.5 1h-37l-301 -19l-90 15h-102zM102 1319 q0 -18 9.5 -32.5t24 -28t28.5 -27t26 -31.5q2 -2 11 -6q16 -10 36.5 -20.5t43.5 -10.5q25 0 45 23q-18 55 -42 102t-51 98q-8 23 -32 23q-16 0 -26.5 -9t-21 -21.5t-21.5 -22.5t-26 -13q-4 -16 -4 -24zM113 219q0 -23 8 -54.5t22.5 -60t35 -49t46.5 -20.5q20 0 39 10 q-8 18 -8 45q0 41 15.5 84t15.5 84q0 23 -9 45.5t-38 38.5q-18 -10 -41 -21.5t-41.5 -24.5t-31.5 -31.5t-13 -45.5zM131 809q0 -18 3 -46t12.5 -53.5t26.5 -44t48 -18.5q27 0 47.5 19.5t34.5 46t21.5 53.5t9.5 41q-33 29 -62.5 61.5t-64.5 32.5q-16 0 -34.5 -10t-41.5 -37 v-45z" />
<glyph unicode="." d="M-109 1495h109q55 -6 100 -6l301 18q63 0 138 -12h104v82h-104q-78 12 -140 12l-299 -16h-47q-25 0 -51 4h-111v-82zM-102 -61v-82h188q14 -2 27 -2h26h279q10 2 24.5 7t26.5 5l174 -10v82q-25 0 -59.5 1t-67.5 1t-57.5 1t-30.5 1h-37l-301 -19l-90 15h-102zM102 1319 q0 -18 9.5 -32.5t24 -28t28.5 -27t26 -31.5q2 -2 11 -6q16 -10 36.5 -20.5t43.5 -10.5q25 0 45 23q-18 55 -42 102t-51 98q-8 23 -32 23q-16 0 -26.5 -9t-21 -21.5t-21.5 -22.5t-26 -13q-4 -16 -4 -24zM113 219q0 -23 8 -54.5t22.5 -60t35 -49t46.5 -20.5q20 0 39 10 q-8 18 -8 45q0 41 15.5 84t15.5 84q0 23 -9 45.5t-38 38.5q-18 -10 -41 -21.5t-41.5 -24.5t-31.5 -31.5t-13 -45.5zM131 809q0 -18 3 -46t12.5 -53.5t26.5 -44t48 -18.5q27 0 47.5 19.5t34.5 46t21.5 53.5t9.5 41q-33 29 -62.5 61.5t-64.5 32.5q-16 0 -34.5 -10t-41.5 -37 v-45z" />
<glyph unicode="0" horiz-adv-x="589" d="M-102 -61v-82h102q10 -2 20.5 -7.5t20.5 -5.5q45 0 75.5 12.5t67.5 12.5q33 0 72 -16q31 -4 57.5 -7.5t51.5 -3.5q53 0 104 7.5t121 7.5h100v82h-100l-23 -2q-51 -4 -96 -7.5t-88 -3.5q-55 0 -111.5 6.5t-124.5 22.5q-45 -6 -63 -12t-47 -6h-19q-8 0 -18 2h-102z M-102 1495h102l59 -2l422 14l97 -12h112v82h-100q-47 8 -94 9t-86 3l-410 -14l-2 2h-100v-82zM0 246q0 -53 7 -105.5t32 -105.5q10 -2 17 -3t14 -1q37 0 51 25.5t22.5 59.5t19.5 67.5t40 52.5q33 53 66.5 111.5t86.5 94.5q12 27 33 50.5t42.5 48t36.5 52.5t19 62l-370 750 q-23 18 -49 18q-35 0 -48 -39q-4 -285 -12 -568.5t-8 -569.5zM88 346q0 70 12.5 141.5t12.5 137.5v542q43 -59 74.5 -125.5t59 -134t58.5 -134t74 -128.5q-2 -18 -9.5 -31.5t-14.5 -24.5t-15 -22.5t-10 -25.5q-59 -72 -110.5 -151t-115.5 -154q-16 47 -16 110z" />
<glyph unicode="1" horiz-adv-x="487" d="M-102 -61v-82h102q92 4 159.5 9t139.5 5q41 0 88 -3t100 -11h103v82h-103q-55 8 -101 11t-87 3q-70 0 -138.5 -7t-160.5 -7h-102zM-102 1495h692v82h-692v-82zM0 895q10 -16 23.5 -21.5t27.5 -9.5q23 12 28 31.5t9 38.5q29 33 46.5 75t35.5 77.5t44 60t71 24.5 q10 -72 13 -142.5t3 -139.5v-707q-8 -25 -8 -53q0 -10 3 -30.5t10 -42t18.5 -37t29.5 -15.5q20 0 31 19v487q-6 35 -12 66.5t-6 64.5q0 35 12 76q0 174 -4 341t-8 333l-41 43q-57 -53 -105.5 -118t-88.5 -135.5t-72.5 -143t-59.5 -142.5zM70 512q0 -14 9 -26.5t19 -18.5 q12 -2 23.5 -7t21.5 -5q6 0 15 4q2 16 1 30.5t7 24.5q0 43 -29 43q-16 0 -32.5 -8.5t-28.5 -18.5q-6 -10 -6 -18z" />
<glyph unicode="2" horiz-adv-x="976" d="M-102 -61v-82h102q33 -4 69.5 -6.5t70.5 -3.5t60.5 -2t37.5 -3l561 27q82 -4 178 -12h102v82h-102q-55 6 -109.5 7t-95.5 3l-598 -27q-33 4 -77 10.5t-85 6.5h-114zM-102 1495h102q41 -2 80 -2h76h559q12 6 23.5 7t23.5 1q100 0 215 -6h102v82h-1181v-82zM0 1001 q0 -18 12.5 -34.5t32.5 -16.5q25 0 36 28t28 48q33 14 61.5 50t57 73t61.5 64.5t76 27.5q16 0 24 -18q8 -74 12.5 -144.5t4.5 -142.5q0 -70 -3.5 -153t-8.5 -168t-11 -167.5t-11 -151.5t-8.5 -120t-3.5 -72q0 -33 8.5 -64.5t47.5 -31.5q10 0 16 6t12 13l183 159 q6 27 23.5 41.5t38 24.5t41 20.5t32.5 26.5q12 12 31.5 26.5t38 30t30.5 33t12 37.5l-28 18q-33 0 -47 -24q-82 -72 -167 -144.5t-177 -125.5q8 61 9 132.5t1 137.5q0 18 16 29q98 61 185.5 121.5t173.5 136.5l-29 24q-49 -14 -89 -40.5t-77 -56.5t-77 -54.5t-89 -34.5 q0 37 2 81t4 86t4.5 77.5t2.5 54.5q0 39 -5.5 76.5t-13.5 72.5q2 16 2 37v45q0 68 -4 155t-10 161q-8 33 -31 32q-41 0 -78 -26.5t-70.5 -67.5t-66.5 -90t-66.5 -92t-68.5 -75t-74 -40q-6 -12 -6 -31zM170 553q0 -12 2 -18q12 -2 19.5 -11.5t15.5 -19.5t17 -18.5t22 -8.5 q4 0 16 4q0 27 15.5 54.5t19.5 54.5q-16 -4 -21 -4q-16 0 -30 6t-39 6q-16 -2 -26.5 -15.5t-10.5 -29.5z" />
<glyph unicode="3" horiz-adv-x="450" d="M-102 -61v-82h102q25 2 45 2h43q76 0 125 -6.5t109 -6.5q29 0 58.5 2t70.5 9h102v82h-102q-4 4 -21 4q-16 0 -36.5 -4.5t-22.5 -10.5q-55 2 -88 4t-57.5 4.5t-47 3.5t-55.5 1q-23 0 -52.5 -1t-70.5 -1h-102zM-102 1495h102q66 12 114 15t95 3q51 0 102 -3t119 -13l21 -2 h102v82h-102l-29 4q-68 10 -117 11t-96 1q-45 0 -93 -2t-116 -14h-102v-82zM0 717q14 -47 45 -81t66.5 -65.5t71.5 -63.5t59 -71q-2 -55 -21.5 -106t-46.5 -99.5t-57.5 -95.5t-57.5 -94v-6q0 -16 25 -22.5t41 -12.5q4 6 14 6t11 10l-3 9q6 23 29 28q12 55 36 102.5 t50.5 93.5t50 92t35.5 99q-47 78 -106.5 145.5t-124.5 135.5l71 80q6 27 28 43t45.5 30.5t43 32t19.5 45.5q0 59 -29 100.5t-47 88.5q-27 35 -46.5 73.5t-38 77.5t-40 76t-51.5 66q-29 -8 -36 -29t-11 -47q12 -57 39.5 -105.5t59.5 -93.5t61.5 -92t43.5 -102 q-55 -61 -103 -126t-126 -122z" />
<glyph unicode="4" horiz-adv-x="589" d="M-102 -61v-82h125q57 0 105 4t92 9t86 9t85 4q45 0 92 -5t107 -21h102v82h-102q-61 16 -110.5 21t-94.5 5q-43 0 -84 -4t-85 -9t-92 -9t-108 -4h-118zM-102 1495h102q41 -8 79 -9t79 -3l362 16q16 0 34.5 -1t35.5 -3h102v82h-102q-23 2 -44.5 1t-43.5 3l-373 -18 q-33 2 -64.5 5t-64.5 9h-102v-82zM0 1378q0 -51 27.5 -106t46.5 -109q16 -29 22 -61.5t12.5 -63t20.5 -57.5t47 -45q16 14 29.5 33.5t24 42t21.5 45t25 41.5q20 14 34 34.5t25 41t24.5 41t35.5 34.5q6 -176 6 -344q0 -166 -6 -328.5t-22 -326.5q-10 -41 -12.5 -84t-2.5 -86 q0 -29 7.5 -51.5t31.5 -22.5q25 0 37 21q10 78 19.5 149.5t9.5 163.5v326q0 18 -3 47.5t-3 58.5q0 25 18 43v180q12 49 12 103q0 57 -12 106q-4 20 -6 40t-2 38q0 55 20 98q0 14 -6 29t-24 25l-35 -19q-55 -90 -117.5 -175t-118.5 -171q-29 86 -63.5 167t-67.5 167 q-8 2 -16 2h-10q-16 0 -20.5 -5t-8.5 -22zM125 567q0 -18 15.5 -24t33.5 -6q20 0 39.5 10t19.5 31q0 8 -6 20q-4 -4 -10 -4q-10 0 -19.5 12t-21.5 12q-14 -12 -32.5 -18t-18.5 -33z" />
<glyph unicode="5" horiz-adv-x="813" d="M-102 -59v-84h196q16 2 31 2h31q119 0 217 -7.5t209 -7.5q53 0 109.5 3t121.5 10h102v82h-102q-74 -6 -135.5 -9.5t-118.5 -3.5t-111.5 2t-109.5 5.5t-114.5 5.5t-127.5 2h-198zM-102 1495h637q33 0 67.5 9t69.5 9t66.5 -9t66.5 -9h110v82h-102q-76 -4 -144.5 -6 t-133.5 -2q-131 0 -257 4t-278 4h-102v-82zM0 371q0 -18 21.5 -51t54.5 -73t75 -81t80.5 -75t72.5 -55.5t52 -21.5q23 0 31 23q-12 27 -17 52.5t-5 49.5q0 39 8 78t14 84q0 74 3 164t6 183t8.5 183.5t8.5 166t6 129t3 73.5q41 0 73.5 -38t63.5 -82t59.5 -81.5t63.5 -37.5 q8 0 11 6t4 14t3 16.5t11 10.5q-4 63 -49 106q-37 8 -73 56.5t-72 103.5t-72.5 99t-73.5 44q-14 0 -29.5 -13t-26.5 -26l25 -651q-18 -47 -73.5 -90t-115 -85t-105.5 -86t-46 -95zM115 381v35q25 16 46 41.5t42.5 50t47 46t60.5 30.5q0 -92 -7 -196t-15 -208 q-31 23 -51.5 46.5t-39 49t-38 52t-45.5 53.5zM522 535q6 -16 19.5 -20.5t29.5 -4.5q14 0 26.5 2t18.5 2v16l5 15q0 16 -18 22.5t-28 14.5q-23 0 -35 -15.5t-18 -31.5z" />
<glyph unicode="6" horiz-adv-x="522" d="M-102 -61v-82h102q29 4 55 4h54l307 -11q47 0 106 7h103v82h-103q-35 -4 -63 -5q-29 0 -64 -2l-286 11q-12 0 -25.5 -1t-30.5 -3h-155zM-102 1495h102q41 16 78 21.5t72 5.5q37 0 71.5 -5.5t69.5 -11.5t72.5 -11t78.5 -5q37 0 80 6h103v82h-103q-14 -2 -26 -2h-25 q-90 0 -159.5 15.5t-147.5 15.5q-37 0 -77 -6.5t-87 -22.5h-102v-82zM0 457q0 -150 3 -236t8 -132t11.5 -62.5t14.5 -26.5q16 14 50 35.5t77 50.5t88 60.5t83 64.5t61.5 66.5t23.5 64.5q0 8 -6 18q-59 63 -111.5 131t-109.5 138q-29 25 -62 65.5t-33 87.5q0 27 4 61 t9.5 65.5t9.5 56t4 34.5q0 23 -4 41.5t-10.5 39t-10.5 44t-4 56.5q0 43 8.5 76.5t30.5 33.5q27 0 49.5 -23.5t48.5 -29.5q14 -4 28.5 -17.5t30 -28.5t29 -26.5t23.5 -11.5q12 0 17.5 12.5t5.5 22.5q0 31 -29 75t-72 83.5t-91 67.5t-87 28q-41 0 -58.5 -29t-17.5 -70 q10 -59 14.5 -117.5t4.5 -117.5q0 -82 -5.5 -177t-10.5 -185.5t-10 -167t-5 -121.5zM96 133q0 98 9.5 192.5t9.5 204.5q31 -16 54.5 -39.5t45 -49t41.5 -52.5t43 -51q-14 -35 -35.5 -59.5t-47.5 -48t-52 -46t-49 -51.5h-19z" />
<glyph unicode="7" horiz-adv-x="499" d="M-102 -61v-82h102q18 -2 35 -2h33q80 0 146.5 7t137.5 7q35 0 71 -2t77 -10h102v82h-102q-43 8 -80 11t-72 3q-72 0 -137.5 -8t-147.5 -8h-32q-14 0 -31 2h-102zM-102 1495h102q16 -2 31 -2h30q66 0 116 8t104 8q31 0 63.5 -4t73.5 -16q14 0 22.5 -1t12.5 -1t6 -1t4 -1 q4 0 11 3t26 7h102v82h-102q-41 -6 -78 -6q-63 0 -118.5 9t-115.5 9q-29 0 -61.5 -4t-69.5 -14h-16q6 0 6 4q0 2 -20 2h-129v-82zM0 586q10 -4 20.5 -17.5t20.5 -17.5q20 2 29.5 12t15.5 23.5t10 28t13 26.5q23 14 42 32.5t37.5 35t38 32t41.5 23.5q10 -16 16.5 -46t6.5 -61 q0 -45 -12 -75q12 -141 12 -273q0 -63 -3 -123.5t-12 -119.5q4 -20 29 -42t47 -22q25 0 27 33q0 63 1 141t3 158t5 157.5t5 142t3 108.5t1 59q0 147 -9 290.5t-13 284.5q-4 18 -13.5 33.5t-31.5 15.5q-6 0 -31 -28.5t-58.5 -73.5t-72.5 -98.5t-72 -101.5t-56.5 -83.5 t-27.5 -46.5q-4 -8 -4 -14q0 -16 12.5 -31.5t28.5 -15.5q14 0 25 16l61 123q23 14 39 34.5t33.5 42t36 39t47.5 27.5q18 -80 18 -159q0 -33 -3 -65t-7 -66q-111 -88 -178 -191q-14 -14 -33.5 -29.5t-38 -33t-33 -38t-16.5 -46.5zM125 360q2 -18 24.5 -29.5t40.5 -11.5 q14 0 27 13q-6 8 -8 20.5t-4 23.5t-7.5 20.5t-19.5 13.5l-53 -35v-15z" />
<glyph unicode="8" horiz-adv-x="684" d="M-102 -61v-82h888v82h-888zM-102 1495h102q70 0 125 16.5t113 16.5q45 0 88 -19q141 -12 280 -12h180v80h-102l-74 -4q-109 0 -214 13t-210 18q-47 -6 -94 -16.5t-94 -10.5h-100v-82zM0 1087q10 -23 45 -51t72 -57t66.5 -58.5t29.5 -54.5q0 -29 -26.5 -55.5t-59.5 -55 t-60.5 -59t-27.5 -65.5q16 -47 44 -88t57.5 -82t57 -84t46.5 -92l-150 -242q23 -31 30 -36t11 -5q23 0 37 8q16 59 44 110.5t71 92.5q41 -16 68.5 -46t52 -61.5t51 -59.5t67.5 -36q12 8 17.5 21.5t5.5 27.5l-180 293q49 68 101 139.5t112 131.5q-72 84 -112 132t-59.5 74.5 t-24.5 37t-5 16.5q0 8 4 16q14 29 43 49.5t57.5 41t52 44t29.5 58.5l-260 342q-37 -12 -65.5 -35t-54 -50.5t-48 -58t-45.5 -61.5q-6 -18 -21.5 -32.5t-31.5 -29t-28.5 -33t-12.5 -47.5zM131 1141q33 35 56.5 78t50.5 81q31 -14 56 -39.5t48 -55t46.5 -60.5t51.5 -51 q0 -27 -16 -44.5t-37.5 -34t-44.5 -33.5t-35 -42zM166 643q16 14 30.5 38t30 45.5t34 37.5t42.5 16q25 0 45.5 -19.5t41 -43t41 -45t44.5 -25.5l-147 -231q-51 49 -88 108.5t-74 118.5z" />
<glyph unicode="9" horiz-adv-x="518" d="M-102 -61v-82h102q27 12 57 12q35 0 69 -9.5t69 -9.5q37 0 67 17q39 -16 80 -17l129 11q10 0 22.5 -1t24.5 -3h103v82h-103q-12 4 -24 4h-25l-119 -9q-23 0 -43 4.5t-45 14.5q-18 -10 -34.5 -14.5t-32.5 -4.5q-33 0 -65 10.5t-67 10.5q-33 0 -63 -16h-102zM-102 1495h102 q20 4 39 4h41l250 -10q23 0 43 4t45 8q35 -8 59 -8h19q10 0 22 2h103v82h-103l-24 -2q-29 0 -56.5 5t-54.5 5q-16 0 -34.5 -4t-37.5 -14h-20q-61 0 -111.5 8t-105.5 8q-35 0 -74 -6h-102v-82zM0 991q0 -33 23.5 -59.5t60.5 -52t79 -51t80 -53t63.5 -59.5t29.5 -69 q2 -47 7 -103.5t5 -111.5q0 -47 -7 -91t-24 -83q-23 14 -44 46t-44.5 65.5t-50 59.5t-59.5 26q-16 0 -29.5 -16.5t-13.5 -32.5q0 -31 27.5 -56.5t43.5 -48.5q35 -33 64 -73t57.5 -82t57 -79.5t63.5 -66.5q14 27 19.5 58.5t5.5 66.5q0 53 -7.5 101t-7.5 71l17 1046 q0 29 -9.5 53.5t-41.5 37.5q-10 -53 -67.5 -109.5t-124.5 -114t-120 -113t-53 -106.5zM113 1006q18 12 40.5 42.5t47 63.5t51.5 58.5t57 25.5q12 0 18.5 -26.5t9.5 -60.5t4 -65.5t1 -39.5q0 -85 -16 -179q-45 35 -105.5 81t-107.5 100z" />
<glyph unicode=":" d="M-109 1495h109q55 -6 100 -6l301 18q63 0 138 -12h104v82h-104q-78 12 -140 12l-299 -16h-47q-25 0 -51 4h-111v-82zM-102 -61v-82h188q14 -2 27 -2h26h279q10 2 24.5 7t26.5 5l174 -10v82q-25 0 -59.5 1t-67.5 1t-57.5 1t-30.5 1h-37l-301 -19l-90 15h-102zM102 1319 q0 -18 9.5 -32.5t24 -28t28.5 -27t26 -31.5q2 -2 11 -6q16 -10 36.5 -20.5t43.5 -10.5q25 0 45 23q-18 55 -42 102t-51 98q-8 23 -32 23q-16 0 -26.5 -9t-21 -21.5t-21.5 -22.5t-26 -13q-4 -16 -4 -24zM113 219q0 -23 8 -54.5t22.5 -60t35 -49t46.5 -20.5q20 0 39 10 q-8 18 -8 45q0 41 15.5 84t15.5 84q0 23 -9 45.5t-38 38.5q-18 -10 -41 -21.5t-41.5 -24.5t-31.5 -31.5t-13 -45.5zM131 809q0 -18 3 -46t12.5 -53.5t26.5 -44t48 -18.5q27 0 47.5 19.5t34.5 46t21.5 53.5t9.5 41q-33 29 -62.5 61.5t-64.5 32.5q-16 0 -34.5 -10t-41.5 -37 v-45z" />
<glyph unicode=";" d="M-109 1495h109q55 -6 100 -6l301 18q63 0 138 -12h104v82h-104q-78 12 -140 12l-299 -16h-47q-25 0 -51 4h-111v-82zM-102 -61v-82h188q14 -2 27 -2h26h279q10 2 24.5 7t26.5 5l174 -10v82q-25 0 -59.5 1t-67.5 1t-57.5 1t-30.5 1h-37l-301 -19l-90 15h-102zM102 1319 q0 -18 9.5 -32.5t24 -28t28.5 -27t26 -31.5q2 -2 11 -6q16 -10 36.5 -20.5t43.5 -10.5q25 0 45 23q-18 55 -42 102t-51 98q-8 23 -32 23q-16 0 -26.5 -9t-21 -21.5t-21.5 -22.5t-26 -13q-4 -16 -4 -24zM113 219q0 -23 8 -54.5t22.5 -60t35 -49t46.5 -20.5q20 0 39 10 q-8 18 -8 45q0 41 15.5 84t15.5 84q0 23 -9 45.5t-38 38.5q-18 -10 -41 -21.5t-41.5 -24.5t-31.5 -31.5t-13 -45.5zM131 809q0 -18 3 -46t12.5 -53.5t26.5 -44t48 -18.5q27 0 47.5 19.5t34.5 46t21.5 53.5t9.5 41q-33 29 -62.5 61.5t-64.5 32.5q-16 0 -34.5 -10t-41.5 -37 v-45z" />
<glyph unicode="A" horiz-adv-x="516" d="M-102 -61v-82h102q39 6 74 6l114 -6q18 0 39 2t45 8q37 -12 68 -17.5t59 -5.5q25 0 49.5 3t55.5 8l12 2h102v82h-102q-29 -6 -54.5 -8.5t-49.5 -2.5q-37 0 -74 6.5t-80 16.5q-49 -12 -84 -12l-108 6q-29 0 -66 -6h-102zM-102 1495h102q23 4 43 4q23 0 45 2l201 -10 q16 0 32.5 1t32.5 3h15q29 0 49 3t43 3q20 0 55 -6h102v82h-102q-98 0 -177 -3t-161 -3q-80 0 -178 6h-102v-82zM0 238q0 -98 10 -161t35 -63q12 0 21 13l18 495q6 20 5 48t2 53.5t16.5 46t46.5 26.5q14 20 30.5 57.5t36 73t42 62t50.5 26.5q8 0 15 -8v-65v-121t-1 -158 t-3 -174t-4.5 -172t-6.5 -149q14 -25 39 -25q20 0 35.5 16.5t15.5 38.5q0 18 -7 36t-7 38v18q0 10 2 21q9 103 9 199q0 32 -1 63q-1 22 -1 44q0 104 16 210q0 86 -2 197.5t-4 215t-4.5 179.5t-2.5 90q-16 23 -32 23t-31.5 -16.5t-34.5 -20.5l-117 -156q-16 -37 -41.5 -68.5 t-51 -62.5t-46 -65.5t-24.5 -77.5q0 -8 -3.5 -85t-8.5 -186.5t-8 -233.5t-3 -222zM98 881q0 53 17.5 102t46 93t66.5 85t79 76q0 -29 6 -65.5t6 -71.5q0 -37 -14 -68t-61 -41q-33 -53 -66 -102t-67 -96q-12 45 -13 88z" />
<glyph unicode="B" horiz-adv-x="581" d="M-102 -61v-82h102q39 2 74 2h73q92 0 181.5 -3t181.5 -8q20 10 41 11l24 -2h109v82h-102l-136 -19q-49 8 -92 13.5t-90 5.5h-366zM-102 1495h149q90 0 167 6t155 6q41 0 80.5 -2t87.5 -10q8 2 16 2q4 0 8 -1t19 -1h104v82h-102q-8 2 -23 2q-18 0 -31.5 -4t-29.5 -4 q-18 0 -37 8q-35 6 -67 8t-62 2q-68 0 -130.5 -7t-138.5 -7h-32q-14 0 -31 2h-102v-82zM0 1389q25 -164 33 -321t8 -312q0 -174 -5 -347t-9 -356q0 -25 13 -35t34 -10q35 0 67.5 21.5t32.5 50.5q113 131 175.5 203.5t91 107.5t33.5 44t5 14l-2 28l-291 207q41 66 92.5 116 t81.5 103q16 25 36 53.5t24 55.5q-16 23 -35.5 43t-40 39.5t-38 41t-30.5 48.5q-33 31 -57 63.5t-49 64t-51.5 62.5t-61.5 60q-23 -2 -34 -15.5t-23 -29.5zM111 313q0 63 24 74q0 35 5 86t5 92q25 -27 52.5 -40t57.5 -23t59.5 -21.5t54.5 -34.5q-25 -45 -57.5 -83.5 t-65.5 -75.5t-63.5 -75t-55.5 -83q-8 61 -12 107.5t-4 76.5zM129 727v457q51 -39 89 -95.5t91 -103.5l2 -24z" />
<glyph unicode="C" horiz-adv-x="567" d="M-102 -61v-82h102q82 4 149.5 7t133.5 3t133 -3t151 -7h103v82h-103q-111 0 -196.5 3t-175.5 3q-84 0 -195 -6h-102zM-102 1495h102q14 -2 22.5 -3t14.5 -1q16 0 22.5 3t22.5 3h338q16 2 29.5 3t25.5 1q23 0 44.5 -2t47.5 -4h103v82h-103q-43 4 -73 4h-72h-334 q-31 -6 -55 -6l-33 2h-102v-82zM0 784q92 -186 174 -371.5t152 -381.5q16 -8 28.5 -10.5t22.5 -2.5q20 0 26.5 11.5t10.5 25.5q-35 98 -70 199.5t-73 203t-81 200t-96 188.5q23 33 39.5 70.5t34.5 72.5q8 59 38 107.5t63.5 94.5t60 94t30.5 110q-6 18 -22 18q-12 0 -24.5 -9 t-20.5 -20q-37 -76 -77 -149.5t-78 -147t-73.5 -148.5t-64.5 -155zM360 723q10 -27 41 -27l62 2q2 8 2 23q0 29 -17.5 37t-29.5 14q-23 0 -37 -16.5t-21 -32.5z" />
<glyph unicode="D" horiz-adv-x="501" d="M-102 -61v-82h102q39 6 74 6l114 -6q18 0 39 2t45 8q37 -12 68 -17.5t59 -5.5q25 0 49.5 3t55.5 8l12 2h102v82h-102q-29 -6 -54.5 -8.5t-49.5 -2.5q-37 0 -74 6.5t-80 16.5q-49 -12 -84 -12l-108 6q-29 0 -66 -6h-102zM-102 1495h102q23 4 43 4q23 0 45 2l201 -10 q16 0 32.5 1t32.5 3h15q29 0 49 3t43 3q20 0 55 -6h102v82h-102q-98 0 -177 -3t-161 -3q-80 0 -178 6h-102v-82zM0 123q10 -59 23.5 -85t23.5 -26q8 0 16.5 24.5t12.5 61.5t7 79t3 79q0 57 -6 74q45 63 100.5 122.5t114.5 112.5q6 25 22.5 39t34 28.5t30.5 31t17 41.5 q-49 33 -79.5 76.5t-59.5 90t-61.5 87t-87.5 65.5q-4 20 -6.5 41.5t-2.5 44.5q0 57 7.5 115.5t7.5 111.5q0 23 -2 44.5t-9 41.5q-12 6 -26 7q-33 0 -49 -27q-8 -213 -13.5 -372t-9.5 -279.5t-5 -209.5t-1 -161v-133t-2 -125zM100 461v428q66 -47 106 -100.5t89 -108.5z" />
<glyph unicode="E" horiz-adv-x="565" d="M-102 -61v-82h102q47 10 89 13t81 3q66 0 127 -5t133 -5h49q27 0 56 4q16 -6 16 -8t-1 -3l-1 -1l8 2h111v82h-103q-30 3 -56 3h-13h-8q-29 0 -58 7l-270 -10q-23 0 -44.5 6t-45.5 10h-9q-16 0 -23 -5t-38 -11h-102zM-102 1495h770v82h-103l-22 2q-31 0 -50.5 -7t-48.5 -7 h-18q-8 0 -18 4q-66 8 -122.5 12t-113.5 4q-41 0 -83 -2t-89 -6h-102v-82zM0 154q0 -18 2 -45t10 -51.5t23.5 -41t42.5 -16.5q66 47 107.5 91t93.5 97q14 27 44.5 46.5t61.5 38t54.5 40t23.5 52.5q0 12 -17 12q-6 0 -10 -2q-88 -53 -163.5 -113.5t-151.5 -130.5l-19 -4 q0 57 10.5 119.5t10.5 124.5q0 29 -6 59q10 39 63 67.5t112.5 54.5t106.5 54.5t47 69.5q0 16 -14 35q-76 -45 -150.5 -91.5t-160.5 -62.5q0 31 2 84t5 119.5t6 142.5t3 150q0 104 -7 191t-28 134q-4 20 -15 29.5t-26 9.5q-33 0 -47 -37q12 -90 18.5 -187t6.5 -198 q0 -104 -6 -206.5t-19 -198.5q6 -35 8.5 -69t2.5 -68q0 -78 -12.5 -153t-12.5 -146zM231 1147q0 -14 11.5 -21.5t27 -12.5t32 -11.5t24.5 -16.5l24 33q-10 8 -13 22.5l-6 29t-10.5 24.5t-25.5 10t-29.5 -14t-27.5 -23q-6 -12 -7 -20z" />
<glyph unicode="F" horiz-adv-x="516" d="M-102 -61v-82h102q39 6 74 6l114 -6q18 0 39 2t45 8q37 -12 68 -17.5t59 -5.5q25 0 49.5 3t55.5 8l12 2h102v82h-102q-29 -6 -54.5 -8.5t-49.5 -2.5q-37 0 -74 6.5t-80 16.5q-49 -12 -84 -12l-108 6q-29 0 -66 -6h-102zM-102 1495h102q23 4 43 4q23 0 45 2l201 -10 q16 0 32.5 1t32.5 3h15q29 0 49 3t43 3q20 0 55 -6h102v82h-102q-98 0 -177 -3t-161 -3q-80 0 -178 6h-102v-82zM0 1100q0 -55 4 -110.5t6 -108.5q0 -4 2 -39t5 -88.5t6.5 -120t6.5 -136t5 -136t2 -119.5q0 -74 -6 -148q4 -12 5 -26.5t3 -27.5t8 -24.5t23 -15.5q31 37 43 80 t12 90q0 12 -4 32.5t-8 43t-8.5 47t-4.5 45.5q0 20 7.5 41.5t11.5 40.5q-4 119 -15.5 222t-11.5 212q0 35 2 72t6 75q45 -6 80 -36.5t68 -64.5t67.5 -63.5t81.5 -31.5q16 20 17 37q0 14 -8.5 26.5t-18.5 20.5q-35 25 -65.5 58.5t-64.5 67.5t-72 61.5t-85 39.5q-2 10 -4 36 t-2 54q0 35 4 60.5t17 25.5l43 -18q29 -8 55.5 -39t52 -64.5t52 -60.5t57.5 -27q23 0 31 21q-10 41 -36 74.5t-58.5 63.5t-66.5 56.5t-59 55.5q-16 2 -32.5 13t-33 24.5t-30.5 24.5t-29 11q-16 0 -29.5 -9t-17.5 -25q-4 -74 -9 -148t-5 -145zM209 612q10 -14 31.5 -29.5 t40.5 -15.5q25 0 30 33l-32 59q-23 0 -40.5 -15.5t-29.5 -31.5z" />
<glyph unicode="G" horiz-adv-x="600" d="M-102 -61v-82h102q74 14 129 20t104 6q41 0 80 -4t81 -9t92.5 -9t111.5 -4h102v82h-100q-66 0 -116 4t-93 9t-81 9t-79 4q-47 0 -103 -5t-128 -21h-102zM-102 1495h102q82 4 154.5 7t148.5 3q70 0 142.5 -3t154.5 -7h100v82h-100q-78 4 -143.5 7t-128.5 3 q-70 0 -140.5 -2t-154.5 -6l-33 -2h-102v-82zM0 653q43 -96 100.5 -175t116.5 -169q35 -18 58.5 -65t47 -96.5t54.5 -86t82 -36.5q8 0 13 7t9 17t8.5 19.5t8.5 15.5q-10 72 -17.5 153.5t-7.5 161.5q0 125 8 234.5t8 173.5l-18 27q-20 -2 -42.5 -13.5t-33.5 -29.5 q0 -53 8.5 -136.5t8.5 -169.5q0 -59 -7.5 -113.5t-25.5 -99.5q-31 57 -71 112.5t-79 111t-72.5 112t-54.5 115.5q29 37 50.5 77t40 81t39 80.5t44.5 78.5q6 51 30 93.5t50.5 83t48 84t21.5 96.5q-2 18 -20 18q-14 0 -29 -8t-23 -18q-102 -178 -183 -366.5t-171 -369.5z" />
<glyph unicode="H" horiz-adv-x="595" d="M-102 -61v-82h102q39 6 74 6l114 -6q18 0 39 2t45 8q37 -12 68 -17.5t59 -5.5q25 0 49.5 3t55.5 8l12 2h102v82h-102q-29 -6 -54.5 -8.5t-49.5 -2.5q-37 0 -74 6.5t-80 16.5q-49 -12 -84 -12l-108 6q-29 0 -66 -6h-102zM-102 1495h102q23 4 43 4q23 0 45 2l201 -10 q16 0 32.5 1t32.5 3h15q29 0 49 3t43 3q20 0 55 -6h102v82h-102q-98 0 -177 -3t-161 -3q-80 0 -178 6h-102v-82zM0 197q0 -51 9 -100.5t36 -96.5q16 0 31 8q14 49 15 107.5t4 115t13.5 107.5t45.5 88q43 -33 72.5 -79t56 -96t55.5 -99.5t68 -90.5q18 -18 43 -18 q18 0 31.5 13.5t13.5 37.5q0 47 -34 85t-63 77q-41 115 -114.5 210t-151.5 185q-4 55 -9 111.5t-5 111.5q0 123 10 247t14 257l-28 39q-14 0 -28.5 -8t-21.5 -20q-16 -172 -25 -331t-9 -321q0 -25 4 -76t4 -94q0 -47 -6 -104t-12.5 -110.5t-12.5 -96.5t-6 -59zM231 936 q0 -8 2 -14q25 -16 46.5 -37t56.5 -21l20 29q0 12 -8 24.5t-17 23.5t-18.5 22.5t-11.5 23.5q-8 -4 -20.5 -8t-22.5 -9t-18.5 -13.5t-8.5 -20.5z" />
<glyph unicode="I" horiz-adv-x="503" d="M-102 -61v-82h102q47 -6 86 -8.5t74 -2.5q72 0 139.5 5.5t153.5 5.5h153v82h-102q-88 -4 -159 -11.5t-144 -7.5q-47 0 -95.5 4t-105.5 15h-102zM-102 1495h450q33 -6 70 -6q43 0 86 6h102v82h-102q-39 -4 -76 -4q-35 0 -70 -4l-288 10h-35q-16 0 -35 -2h-102v-82zM0 125 q0 -41 9 -76t50 -49q18 12 24.5 26.5t6.5 28.5q0 135 2 297t7 320.5t13.5 295t22.5 220.5q27 -59 51.5 -101.5t44 -72t30.5 -47t11 -29.5q16 -37 42 -63.5t69 -26.5q18 27 18 53q0 18 -9 33.5t-21.5 29t-24.5 27t-18 29.5q-31 51 -55.5 108.5t-50 113.5t-58.5 105.5 t-80 86.5q-27 -4 -36 -22.5t-19 -37.5q0 -117 -4.5 -268.5t-10.5 -317t-10 -336.5t-4 -327zM203 496q6 -18 24.5 -29.5t36.5 -11.5q33 0 39 28q-8 20 -24.5 31.5t-32.5 11.5q-29 1 -43 -30z" />
<glyph unicode="J" horiz-adv-x="770" d="M-102 -61v-82h102q39 6 74 6l114 -6q18 0 39 2t45 8q37 -12 68 -17.5t59 -5.5q25 0 49.5 3t55.5 8l12 2h102v82h-102q-29 -6 -54.5 -8.5t-49.5 -2.5q-37 0 -74 6.5t-80 16.5q-49 -12 -84 -12l-108 6q-29 0 -66 -6h-102zM-102 1495h102q23 4 43 4q23 0 45 2l201 -10 q16 0 32.5 1t32.5 3h15q29 0 49 3t43 3q20 0 55 -6h102v82h-102q-98 0 -177 -3t-161 -3q-80 0 -178 6h-102v-82zM0 520q61 -53 111.5 -116.5t93.5 -129t78.5 -128t66.5 -113.5q12 20 20.5 64t13.5 100.5t7 120t2 122.5q0 102 -6 170q-16 68 -22.5 136.5t-6.5 134.5 q0 74 4.5 140t4.5 122q0 10 6 23.5t18 13.5q29 0 50.5 -29t40 -62.5t36 -61.5t35.5 -28t30.5 -10t20.5 -23.5t15.5 -23.5t17.5 -10q14 0 31 14q-18 70 -55.5 129.5t-82.5 114.5t-94 110.5t-90 114.5q-10 6 -16 6q-14 0 -26.5 -10t-27.5 -14q2 -131 4.5 -288t4.5 -306.5 t3 -271t1 -181.5l-13 -16l-198 178q-16 18 -45 18q-23 0 -33 -10zM461 768q0 -20 10 -29.5t25.5 -14.5l31 -10t25.5 -16q18 2 18 17q0 14 7 24l-28 24t-20 28q-16 -4 -34.5 -8.5t-34.5 -14.5z" />
<glyph unicode="K" horiz-adv-x="616" d="M-102 -61v-82h149q111 0 194 5t175 5q45 0 94 -2t106 -8h103v82h-103q-55 6 -103 8t-93 2q-92 0 -179 -5t-202 -5h-141zM-102 1495h102l35 16h229q96 0 176 -3t176 -13h103v82h-103q-70 6 -128 12t-121 6h-48q-23 0 -49 -2l-270 -16h-102v-82zM0 317q0 -72 7 -142.5 t24 -139.5q10 -25 32.5 -30t47.5 -5q0 59 -11.5 123.5t-11.5 130.5q0 59 14 111q31 -10 51.5 -39t30.5 -58q43 -14 67.5 -50t46 -75t48.5 -74.5t74 -50.5q12 2 17 8.5t7 13.5t3.5 15t5.5 19q-20 55 -54 103t-73 94t-75 95.5t-61 108.5q-59 35 -77.5 86t-18.5 109 q0 35 4 71.5t8 69.5q37 20 59.5 54t43 70t41 70.5t53.5 61.5q33 23 58.5 60.5t50.5 68.5q8 20 25.5 44t34.5 47.5t29.5 46t12.5 38.5t-18 17q-10 0 -22.5 -5.5t-18.5 -9.5q-70 -84 -127.5 -159.5t-128.5 -157.5q-12 -14 -20.5 -33.5t-18.5 -38t-23.5 -33t-34.5 -16.5 q-10 34 -10 78q0 10 1 22q1 10 1 21q0 46 -12 86l14 10q-3 62 -3 119v31q0 67 -34 131q-16 -10 -32.5 -14.5t-24.5 -26.5q4 -176 5 -309.5t1 -237.5q0 -117 -1 -199t-3 -141.5t-3 -103.5t-1 -85zM287 692q8 -18 17 -26.5t28 -10.5q20 14 44.5 21.5t31.5 36.5l-36 9t-36 5 t-30.5 -7.5t-18.5 -27.5z" />
<glyph unicode="L" horiz-adv-x="606" d="M-102 -61v-82h102q39 6 74 6l114 -6q18 0 39 2t45 8q37 -12 68 -17.5t59 -5.5q25 0 49.5 3t55.5 8l12 2h102v82h-102q-29 -6 -54.5 -8.5t-49.5 -2.5q-37 0 -74 6.5t-80 16.5q-49 -12 -84 -12l-108 6q-29 0 -66 -6h-102zM-102 1495h102q23 4 43 4q23 0 45 2l201 -10 q16 0 32.5 1t32.5 3h15q29 0 49 3t43 3q20 0 55 -6h102v82h-102q-98 0 -177 -3t-161 -3q-80 0 -178 6h-102v-82zM0 1311q0 -29 2 -59.5t5 -60.5t6 -53.5t3 -37.5q0 -55 -3 -109.5t-7 -111.5q4 -29 6 -54.5t2 -54.5q0 -27 -2 -58.5t-4 -62.5t-4 -54.5t-2 -33.5v-526 q2 -10 10 -14.5t19 -4.5q16 0 33.5 7.5t31.5 11.5q47 59 115 104t125 92q14 14 43 28.5t56.5 32t48 38t20.5 47.5q-1 15 -19 29q-102 -53 -196 -123t-193 -136q-4 23 -14 43.5t-10 45.5q0 12 2 20q23 127 29 268.5t6 270.5q0 51 -2.5 100t-10.5 102q10 18 10 43 q0 23 -5 43.5t-5 42.5q0 16 6.5 28.5t14.5 29.5q-12 31 -13 65q0 35 -2 69t-12 64.5t-41 51.5q-29 -18 -39 -52t-10 -71zM238 885q0 -16 9 -24.5t21.5 -15.5t24.5 -13.5t20 -18.5q10 2 15.5 17.5t5.5 35.5q0 25 -7.5 47.5t-21.5 22.5q-16 0 -33.5 -13.5t-31.5 -19.5 q-2 -6 -2 -18z" />
<glyph unicode="M" horiz-adv-x="839" d="M-102 -61v-82h102q123 12 238 12h497q18 -8 38 -10t38 -2h131v82h-102q-41 4 -71 9t-58 5q-20 0 -41 -4t-47 -15q-125 0 -223.5 8.5t-202.5 8.5q-90 0 -197 -12h-102zM-102 1495h102q41 2 78 2h74h313q12 0 24.5 7t26.5 7l27 -10h92q10 -2 20.5 -4t20.5 -2q14 0 29 8 q10 4 18 4h14q23 0 38.5 -7t43.5 -7l21 2h102v82h-102q-39 4 -65.5 7t-55.5 3q-33 0 -74 -8h-307q-16 -2 -33.5 -3t-34.5 -1q-47 0 -92 6q-47 -2 -71.5 -4t-57.5 -2q-10 0 -21.5 1t-27.5 1h-102v-82zM0 1360q14 -98 19.5 -194.5t5.5 -194.5q0 -49 -3.5 -131t-6.5 -177.5 t-6 -193.5t-3 -184q0 -106 6 -211l62 -66q10 0 21 5t22 12q-10 70 -15.5 146.5t-5.5 162.5q0 35 2 105.5t5 156.5t5.5 176t2.5 164q0 72 -2.5 139.5t-10.5 132.5q57 -45 102.5 -96t104.5 -86q10 -78 15.5 -160t5.5 -168q0 -78 -1 -176t-3.5 -190t-3.5 -165t-1 -99 q23 -35 64 -35q16 0 35 6q-6 233 -9.5 479t-15.5 494l47 18q0 31 14.5 60.5t36 57.5t47 54.5t50.5 48.5q6 4 12 4h14q12 0 17 -12q8 -121 16 -241.5t8 -239.5q0 -70 -4 -138.5t-14 -134.5q12 -23 16 -56.5t4 -74.5q0 -12 -1 -40.5t-3 -62.5t-3 -68.5t-1 -61.5 q18 -14 29.5 -40t36.5 -26q10 0 18 4q6 242 6 500q0 211 -5 418t-19 410q-6 12 -16.5 15t-20.5 3q-41 0 -78 -38t-71.5 -86t-67.5 -90t-64 -48l8 219q-2 6 -8 15.5t-16 9.5q-27 0 -40 -25t-13 -53q-13 -50 -13 -96q1 -5 1 -11v-8q0 -47 -15 -90q-31 43 -55.5 93t-52 96 t-63.5 83t-89 54z" />
<glyph unicode="N" horiz-adv-x="616" d="M-102 -61v-82h102q39 6 74 6l114 -6q18 0 39 2t45 8q37 -12 68 -17.5t59 -5.5q25 0 49.5 3t55.5 8l12 2h102v82h-102q-29 -6 -54.5 -8.5t-49.5 -2.5q-37 0 -74 6.5t-80 16.5q-49 -12 -84 -12l-108 6q-29 0 -66 -6h-102zM-102 1495h102q23 4 43 4q23 0 45 2l201 -10 q16 0 32.5 1t32.5 3h15q29 0 49 3t43 3q20 0 55 -6h102v82h-102q-98 0 -177 -3t-161 -3q-80 0 -178 6h-102v-82zM0 528q0 -18 4 -46.5t8 -60.5t8.5 -62.5t4.5 -55.5v-121q0 -31 3 -52t10 -39.5t20.5 -36t33.5 -40.5l31 27q-12 215 -14.5 442.5t-6.5 444.5h29 q80 -66 145.5 -134.5t131.5 -154.5q10 -45 13 -117.5t3 -156.5v-302q8 -23 29.5 -40t38.5 -17q23 0 22 31q0 66 -9 170t-9 221q0 55 3 109.5t13 107.5q-14 27 -19.5 54.5t-5.5 56.5q0 47 7.5 91t7.5 81q-10 121 -14.5 219t-6.5 205q-4 20 -10 39.5t-27 19.5q-16 0 -26 -12.5 t-16.5 -29.5t-8.5 -35.5t-2 -30.5q0 -47 10.5 -95.5t10.5 -91.5t-19 -74q-68 92 -139.5 181.5t-157.5 177.5q-12 18 -39 18q-16 0 -27.5 -6t-13.5 -14q0 -25 1 -97.5t1 -164.5t1 -190.5t1 -172.5l-10 -41q23 -29 23 -63q0 -18 -5 -40t-11.5 -41.5t-11.5 -35.5t-5 -25z M117 1020q0 45 7 90t11 90h10q68 -66 121 -143.5t121 -149.5q6 -16 13.5 -32.5t7.5 -34.5l-29 -23q-33 29 -61.5 63.5t-58.5 65.5t-63.5 52.5t-78.5 21.5z" />
<glyph unicode="O" horiz-adv-x="716" d="M-102 -61v-82h102q41 -8 67.5 -14.5t53.5 -6.5q25 0 51.5 7t60.5 24q47 -4 95.5 -12.5t95.5 -8.5q51 0 94 15q25 0 43.5 1t34.5 1q27 0 50.5 -1t62.5 -5h110v82h-102q-72 6 -121 6q-59 0 -112.5 -4t-127.5 -9q-55 16 -108 17q-29 0 -56.5 -5t-52.5 -16h-55q-18 0 -35.5 2 t-48.5 9h-102zM-102 1495h114q63 0 122 7t118 7q51 0 98 -8q68 -6 139 -6h156l37 2l35 -2h102v82h-102q-29 14 -58 14q-33 0 -63.5 -10t-67.5 -10q-16 0 -26 2l-35 4q-70 6 -137.5 11t-132.5 5q-49 0 -97.5 -3t-99.5 -13h-102v-82zM0 745q0 -39 24.5 -76.5t55.5 -76.5 t59.5 -79t34.5 -83q14 -27 39 -47.5t33 -50.5q-10 -31 -28.5 -67t-37 -72.5t-33 -73.5t-14.5 -70q0 -12 7 -24.5t24 -20.5q14 6 33.5 4t23.5 15q6 20 12.5 44.5t15.5 48t23.5 43t36.5 29.5q25 -16 38 -39.5t27.5 -45t33 -36t49.5 -14.5q20 0 20 23t-16.5 59.5t-35.5 75.5 t-35.5 70.5t-16.5 42.5q0 53 22.5 105t53 102.5t64.5 100.5t56 97q10 20 27.5 41t17.5 43q0 13 -8 27q-68 104 -116 223t-76 235q-6 12 -8.5 30t-4.5 35t-8 29.5t-20 12.5q-10 0 -27 -8q-72 -133 -146.5 -265.5t-129.5 -271.5q-39 -31 -54.5 -58.5t-15.5 -56.5zM104 772 l224 438q20 -47 37.5 -94t36 -94t42 -92t58.5 -84q-2 -45 -21.5 -85t-42 -78t-44 -76t-29.5 -81l-68 -84z" />
<glyph unicode="P" horiz-adv-x="530" d="M-102 -61v-82h102q39 6 74 6l114 -6q18 0 39 2t45 8q37 -12 68 -17.5t59 -5.5q25 0 49.5 3t55.5 8l12 2h102v82h-102q-29 -6 -54.5 -8.5t-49.5 -2.5q-37 0 -74 6.5t-80 16.5q-49 -12 -84 -12l-108 6q-29 0 -66 -6h-102zM-102 1495h102q23 4 43 4q23 0 45 2l201 -10 q16 0 32.5 1t32.5 3h15q29 0 49 3t43 3q20 0 55 -6h102v82h-102q-98 0 -177 -3t-161 -3q-80 0 -178 6h-102v-82zM0 188q0 -59 6 -116q23 -37 36 -52.5t21 -15.5q10 0 12.5 15.5t2.5 39.5q0 137 4 267.5t22 269.5q20 16 23.5 41t24.5 33q18 45 54 78.5t78 64.5t80.5 64.5 t63.5 78.5l-246 351q-31 4 -48 21.5t-27.5 37.5t-16.5 35.5t-14 15.5q-14 0 -26.5 -13t-18.5 -26q-6 -47 -6 -106q0 -76 5 -165t5 -181q0 -72 -6 -137.5t-23 -118.5q12 -35 12 -105q0 -41 -3 -97t-6 -112.5t-6 -102.5t-3 -65zM104 1069q0 57 13 117q57 -43 98 -94.5 t100 -104.5q-8 -31 -30.5 -58.5t-51 -53t-58 -50t-52.5 -49.5q-10 10 -10 25q0 10 3 20t7 21q-4 55 -11.5 112.5t-7.5 114.5zM233 453q0 -12 9.5 -18.5t21.5 -9.5t26.5 -5t24.5 -4q10 2 16.5 13t6.5 22q-8 23 -24.5 37t-32.5 14q-14 0 -31 -13.5t-17 -35.5z" />
<glyph unicode="Q" horiz-adv-x="520" d="M-102 -61v-82h102q61 12 106 12q66 0 111 -12.5t80 -12.5q31 0 59 19q27 2 48.5 4t44.5 2q31 0 71 -12h103v82h-103q-23 4 -43 7t-39 3q-51 0 -92 -9.5t-88 -9.5q-23 0 -48.5 3.5t-53.5 13.5q-12 4 -52 4q-25 0 -53 -3t-51 -9h-102zM-102 1495h102q78 -6 143.5 -8 t124.5 -2t120 2t132 8h103v82h-103q-14 10 -20 10t-12.5 -2t-14.5 -6q-37 -4 -67.5 -8t-63.5 -6q-31 2 -71 4t-76.5 4t-65.5 3t-35 1h-196v-82zM0 979q29 -47 69 -82t80.5 -68.5t77.5 -71.5t60 -89q0 -14 6 -34t6 -30q0 -49 -4 -103.5t-10 -106.5t-10.5 -94t-4.5 -67 q0 -41 2 -84t11 -88q10 -16 18 -37.5t33 -21.5q23 0 22 23q0 25 6 41v686h9q6 152 10 302t37 292q-6 6 -10.5 18t-7.5 23.5t-8 19.5t-17 8q-8 0 -21 -6q-55 -45 -102 -97t-89 -107.5t-82 -113t-81 -112.5zM96 1001q0 14 9.5 25.5t21.5 22t22.5 22.5t14.5 27q49 68 131 112 l-8 -379q-12 0 -23.5 23t-27.5 33zM117 403q0 -23 18.5 -29.5t36.5 -6.5q23 0 35 12l4 18q-18 16 -28.5 28.5t-22.5 12.5z" />
<glyph unicode="R" horiz-adv-x="505" d="M-102 -61v-82h102q39 6 74 6l114 -6q18 0 39 2t45 8q37 -12 68 -17.5t59 -5.5q25 0 49.5 3t55.5 8l12 2h102v82h-102q-29 -6 -54.5 -8.5t-49.5 -2.5q-37 0 -74 6.5t-80 16.5q-49 -12 -84 -12l-108 6q-29 0 -66 -6h-102zM-102 1495h102q23 4 43 4q23 0 45 2l201 -10 q16 0 32.5 1t32.5 3h15q29 0 49 3t43 3q20 0 55 -6h102v82h-102q-98 0 -177 -3t-161 -3q-80 0 -178 6h-102v-82zM0 70q6 -16 16.5 -39t32.5 -23q14 0 23.5 22.5t14.5 59.5t7 83t2 91q0 63 -2 113.5t-2 66.5q0 41 -8 83t-8 85q0 6 1 24.5t6 39t12 36t20 15.5q29 0 58.5 -20.5 t58 -46t54 -46t46.5 -20.5q14 0 22 13.5t8 25.5q0 23 -21.5 45t-52 44.5t-62 44t-52.5 44.5q14 12 27.5 30.5t27 35t30 29t36.5 14.5q8 14 26.5 26t37 24.5t31.5 27t13 32.5l-217 217q-23 8 -40 30.5t-32.5 46.5t-33 41t-37.5 17q-18 0 -43 -18v-1294zM84 1016q0 76 20 149 q33 -6 56.5 -23.5t45 -38t44 -41t53.5 -32.5v-12q-49 -37 -101.5 -73t-97.5 -85q-20 74 -20 156zM166 395q0 -23 10 -36t25.5 -19t33 -7t29.5 -1q20 0 39 12q0 14 -9 22.5t-19.5 15.5t-19.5 14.5t-11 23.5q-8 8 -19 8q-16 0 -28.5 -14.5t-30.5 -18.5z" />
<glyph unicode="S" horiz-adv-x="516" d="M-102 -61v-82h186q10 2 18 2h19q37 0 67.5 -2t58 -3t55.5 -3.5t63 -2.5q31 0 67.5 2.5t83.5 6.5h102v82h-102q-53 -4 -93 -6.5t-73 -2.5q-35 0 -63.5 2t-58 3.5t-63.5 3.5t-79 2h-41q-20 0 -45 -2h-102zM-102 1495h284q68 0 134.5 -2t132.5 -6l30 12l37 -4h102v82h-102 q-25 0 -52.5 -3t-47.5 -15q-115 18 -228 18h-290v-82zM0 657q0 -18 7 -34.5t30 -16.5q33 0 65.5 21.5t66.5 48t67.5 52.5t64.5 34q20 -14 21 -33q0 -16 -9.5 -32.5t-11.5 -32.5q4 -41 6 -83t2 -85q0 -123 -11 -243t-22 -230q23 -23 50 -23q14 0 30 10q16 160 27 328t10 340 q0 35 10.5 68.5t10.5 66.5q-1 32 -21 59q-39 -14 -75.5 -36.5t-73.5 -44t-77 -37t-83 -15.5q14 72 17 151t10 157q4 59 11 108t7 100q0 8 -1 33t-4 50.5t-11.5 46t-22.5 20.5q-12 0 -27.5 -10.5t-25.5 -18.5q-8 -182 -8 -360t-29 -359zM219 1106q0 -18 10.5 -26.5 t23.5 -13.5t28.5 -6t25.5 -3v30q0 18 -14 32t-33 14q-10 0 -14 -3q-4 -12 -15.5 -13t-11.5 -11z" />
<glyph unicode="T" horiz-adv-x="604" d="M-102 -61v-82h102q39 6 74 6l114 -6q18 0 39 2t45 8q37 -12 68 -17.5t59 -5.5q25 0 49.5 3t55.5 8l12 2h102v82h-102q-29 -6 -54.5 -8.5t-49.5 -2.5q-37 0 -74 6.5t-80 16.5q-49 -12 -84 -12l-108 6q-29 0 -66 -6h-102zM-102 1495h102q23 4 43 4q23 0 45 2l201 -10 q16 0 32.5 1t32.5 3h15q29 0 49 3t43 3q20 0 55 -6h102v82h-102q-98 0 -177 -3t-161 -3q-80 0 -178 6h-102v-82zM0 1098q0 -23 13.5 -39.5t33.5 -16.5q25 0 35 20.5t20 46.5t23.5 46.5t42.5 20.5q10 0 18 -13q12 -98 16.5 -213.5t4.5 -232.5q0 -96 -2 -185.5t-4 -163 t-4 -128t-2 -76.5q0 -25 3 -51.5t9 -48t17.5 -36t27.5 -14.5q14 0 24 21v71t1.5 121t2.5 153t2 169t1 170v153q-12 63 -13 136q0 51 3 103t8 99q25 -4 43 -27.5t34.5 -51t33 -49t38.5 -21.5q13 0 23 8q-6 53 -25.5 105.5t-50.5 100.5t-69 89t-81 70q-14 -31 -51 -72t-76 -86 t-69.5 -91t-30.5 -87zM408 610q0 -10 6 -18q10 -18 33.5 -31.5t46.5 -17.5l8 37q-8 14 -12 38.5t-25 24.5q-16 0 -36.5 -8t-20.5 -25z" />
<glyph unicode="U" horiz-adv-x="540" d="M-102 -61v-82h102q100 4 180 11t162 7q47 0 95 -4t104 -14h102v82h-745zM-102 1495h102q92 4 165 9t144 5q53 0 109.5 -3t122.5 -11h102v82h-102q-68 8 -123.5 11t-108.5 3q-72 0 -144.5 -7t-164.5 -7h-102v-82zM0 1411q10 -145 13 -288.5t3 -284.5q0 -193 -4 -383.5 t-8 -384.5l41 -33q16 -6 34.5 -7t35.5 -1q12 0 17 9t5 21q0 14 -4 27q59 92 119.5 181t138.5 173q4 10 6 24.5t2 29.5q0 14 -2 26t-6 23q12 109 20.5 210t14.5 200.5t9 198.5t3 208q0 20 -8 36.5t-33 26.5q-20 -10 -28.5 -23.5t-18.5 -33.5q4 -49 4 -100v-99 q0 -172 -13 -340t-36 -321q0 -27 -24.5 -81t-59.5 -111.5t-71.5 -103.5t-63.5 -56q0 27 2 83t3 127.5t3 149.5t4 146.5t3 119.5t1 68q0 115 -4 220.5t-11 185t-19.5 128t-30.5 48.5t-37 -19z" />
<glyph unicode="V" horiz-adv-x="598" d="M-102 -61v-82h102q39 6 74 6l114 -6q18 0 39 2t45 8q37 -12 68 -17.5t59 -5.5q25 0 49.5 3t55.5 8l12 2h102v82h-102q-29 -6 -54.5 -8.5t-49.5 -2.5q-37 0 -74 6.5t-80 16.5q-49 -12 -84 -12l-108 6q-29 0 -66 -6h-102zM-102 1495h102q23 4 43 4q23 0 45 2l201 -10 q16 0 32.5 1t32.5 3h15q29 0 49 3t43 3q20 0 55 -6h102v82h-102q-98 0 -177 -3t-161 -3q-80 0 -178 6h-102v-82zM0 946q0 -86 1 -172t3 -157.5t3 -127t1 -79.5q57 -41 101.5 -98.5t88.5 -114t95 -104.5t123 -66q16 0 37.5 7t25.5 29q0 45 2 120t5 170.5t6.5 207t3.5 227.5 q0 172 -9 340t-30 306q-29 -2 -46.5 -16.5t-26.5 -36t-12 -48t-3 -53.5q0 -37 5 -103.5t10 -150.5t10 -177t5 -181q0 -96 -5 -193.5t-13 -210.5q-2 -31 -4 -61.5t-15 -63.5q-41 39 -71.5 85t-58 91t-59.5 89.5t-75 80.5q-4 39 -5 89.5t-1 107.5q0 104 4 218t8.5 212t8.5 166 t4 78q0 47 -25 78q-35 0 -48 -19.5t-18.5 -47.5t-6.5 -55.5t-11 -45.5q-4 -68 -6 -151t-2 -169z" />
<glyph unicode="W" horiz-adv-x="847" d="M-102 -61v-82h102q76 6 145 6h295q8 -6 15.5 -7t15.5 -1q74 0 160 12q29 -2 49 -5t35.5 -5t30 -4.5t30.5 -2.5q25 0 72 7h102v82h-102q-25 -4 -47 -5h-41q-72 0 -129.5 7.5t-122.5 7.5q-59 0 -133 -12q-47 6 -85 9t-73 3q-49 0 -101.5 -5t-115.5 -5h-102zM-102 1495h102 q125 12 225 12q123 0 230.5 -8t236.5 -8h76t80 4h102v82h-102q-86 -6 -158 -6q-127 0 -236.5 9t-230.5 9q-100 0 -223 -12h-102v-82zM0 78l29 -45q37 0 46 23.5t9 39.5q0 33 22.5 75t54.5 83t69.5 76t68.5 55q2 -10 3 -21.5t1 -21.5q0 -16 -4 -38.5t-8 -48.5t-8 -52.5 t-4 -50.5q0 -27 10 -62q2 -39 29.5 -51t58.5 -19q2 10 4 23.5t2 28.5q0 33 -14 53q-4 20 -4 43v45q0 61 22 119q37 -23 59.5 -68t57.5 -74q20 -10 35.5 -32.5t31 -47t34 -43t42.5 -18.5q20 0 32.5 16.5t19 40t7.5 49t1 46.5q0 55 -7.5 110.5t-11.5 102.5q0 61 9.5 146 t19.5 179.5t19 191.5t9 181q0 45 -3 87t-13 85q2 10 4 26.5t2 35.5q0 25 -6 45t-24 20q-8 0 -16.5 -4t-18.5 -6q-18 -39 -24.5 -80t-6.5 -82q0 -12 1 -34.5t3 -48.5t3 -53.5t1 -49.5q0 -104 -8 -206t-19.5 -203t-19.5 -201.5t-8 -200.5q-10 37 -41 74.5t-63.5 76.5t-58.5 79 t-26 81l13 119q0 18 -2 29.5t-5 22.5t-5.5 26.5t-2.5 44.5q0 43 3.5 101t6.5 119.5l6 123t3 112.5q0 59 -5 98.5t-22 39.5q-16 0 -29.5 -16.5t-27.5 -22.5q2 -23 5 -54.5t3 -54.5q0 -12 -5 -54t-10 -96.5t-10.5 -113.5t-5.5 -111q0 -33 3 -65.5t8 -67.5q18 -37 18 -78 q0 -20 -4 -40.5t-10 -41.5q-57 -74 -112.5 -149.5t-115.5 -144.5l-12 12q6 29 10 83t7.5 123.5t4.5 149.5t1 160q0 82 -1.5 156t-5.5 133l-24 323q-37 0 -46 -28.5t-9 -67.5q0 -33 -2.5 -64.5t-10.5 -50.5q8 -78 11.5 -157.5t3.5 -157.5q0 -209 -13.5 -413t-13.5 -402z" />
<glyph unicode="X" horiz-adv-x="679" d="M-102 -61v-82h102q39 6 74 6l114 -6q18 0 39 2t45 8q37 -12 68 -17.5t59 -5.5q25 0 49.5 3t55.5 8l12 2h102v82h-102q-29 -6 -54.5 -8.5t-49.5 -2.5q-37 0 -74 6.5t-80 16.5q-49 -12 -84 -12l-108 6q-29 0 -66 -6h-102zM-102 1495h102q23 4 43 4q23 0 45 2l201 -10 q16 0 32.5 1t32.5 3h15q29 0 49 3t43 3q20 0 55 -6h102v82h-102q-98 0 -177 -3t-161 -3q-80 0 -178 6h-102v-82zM0 45q0 -16 15.5 -23.5t31.5 -7.5q25 0 30 19.5t5 42.5q35 31 55.5 66.5t36.5 73.5t34.5 75t49.5 67q37 -18 60.5 -47.5t42 -65.5t36 -73t43.5 -68 q4 -16 14.5 -28.5t21.5 -23.5t19.5 -23.5t8.5 -26.5q41 0 69 21q-14 63 -41.5 120.5t-61.5 112.5t-69.5 110.5t-64.5 112.5q0 43 32.5 78t70.5 65.5t70 63.5t32 74q0 35 -28 68.5t-60.5 65.5t-61.5 64.5t-29 67.5l216 342q0 14 -5.5 24.5t-19.5 10.5q-41 0 -75 -41 t-63.5 -91t-59 -96.5t-62.5 -56.5q-47 72 -87 152t-106 143q-10 6 -16 6q-14 0 -25.5 -13t-23.5 -24q37 -98 91 -186t107 -174q-4 -37 -30.5 -72t-57 -67.5t-56.5 -66.5t-26 -66q0 -45 21.5 -83t47.5 -74t47.5 -73t21.5 -80q0 -49 -31 -97t-67.5 -96t-68.5 -98.5t-34 -103.5 zM168 764q0 14 13.5 39.5t31.5 50.5t36.5 42t31.5 17q20 0 38.5 -17t37 -42t35 -50.5t30.5 -39.5q-27 -53 -69 -112.5t-77 -98.5q-6 27 -24.5 52.5t-36.5 52t-32.5 53t-14.5 53.5z" />
<glyph unicode="Y" horiz-adv-x="589" d="M-102 -61v-82h102q90 10 155.5 15t125.5 5q68 0 138 -5t171 -15h102v82h-102q-47 -8 -85 -11.5t-73 -3.5q-41 0 -78 3t-73.5 8.5t-74.5 8.5t-83 3q-29 0 -58.5 -2t-64.5 -6h-102zM-102 1495h145q16 2 29.5 3t25.5 1q82 0 154 -6t143 -6q41 0 84 4t88 14l23 -10h102v82 h-102q-16 4 -28.5 9t-22.5 5q-12 0 -33 -14q-41 -8 -76 -10t-68 -2q-72 0 -133 8t-139 8q-23 0 -44 -1t-46 -3h-102v-82zM0 1368q29 -154 38 -325t9 -336q0 -102 -3 -197.5t-6 -176.5t-5 -143.5t-2 -99.5q0 -29 14 -56.5t45 -27.5q14 0 31 12v773q6 16 20.5 25t26.5 9 q10 0 16 3t9 20q-6 6 -7 14q0 12 10.5 22.5t18.5 14.5q14 45 44 91t60 89q4 6 5.5 16.5t2.5 19.5t5 16.5t16 9.5q6 39 22.5 69.5t37 59t42 57.5t37.5 64q-2 10 -11 25.5t-19 15.5q-6 0 -8 -7l-312 -516l-12 13l8 98q-16 47 -17 102.5t-2 109.5t-11.5 105.5t-47.5 92.5 q-18 0 -32.5 -19.5t-22.5 -42.5zM362 686q0 -27 24 -40t40 -32l20 19q2 4 3 18v31q0 16 -6.5 31.5t-24.5 21.5l-56 -43v-6z" />
<glyph unicode="Z" horiz-adv-x="774" d="M-102 -61v-82h102q39 6 74 6l114 -6q18 0 39 2t45 8q37 -12 68 -17.5t59 -5.5q25 0 49.5 3t55.5 8l12 2h102v82h-102q-29 -6 -54.5 -8.5t-49.5 -2.5q-37 0 -74 6.5t-80 16.5q-49 -12 -84 -12l-108 6q-29 0 -66 -6h-102zM-102 1495h102q23 4 43 4q23 0 45 2l201 -10 q16 0 32.5 1t32.5 3h15q29 0 49 3t43 3q20 0 55 -6h102v82h-102q-98 0 -177 -3t-161 -3q-80 0 -178 6h-102v-82zM0 995q16 -23 30.5 -32t24.5 -9q12 0 23 13q2 29 16.5 51t31.5 42.5t31.5 42t18.5 50.5q12 6 21.5 18.5t18.5 24.5t19.5 21.5t24.5 9.5t29 -8 q-16 -152 -22.5 -298.5t-9.5 -290t-5 -286.5t-8 -287q16 -20 24 -25t15 -5q18 0 32.5 21.5t30.5 31.5q49 23 87 58.5t72 74.5t68.5 75t79.5 58q4 14 11.5 26.5t7.5 24.5q0 15 -8 25q-33 -2 -54.5 -18.5t-40 -39t-38 -44t-48.5 -31.5q-18 -16 -37.5 -40t-40 -47.5t-43 -41 t-49.5 -23.5q0 6 -2 20.5t-2 24.5t8 23q0 190 8.5 350t8.5 309q0 127 7 272.5t21 268.5q-12 10 -23 17.5t-26 11.5q-49 -49 -89 -104.5t-76.5 -112t-72.5 -113.5t-75 -109zM414 877q0 -16 12.5 -30t28.5 -22q6 -2 16 -5t21 -3q10 0 17 8.5t7 18.5q0 8 -6 22.5t-15.5 28.5 t-19.5 23.5t-18 9.5q-10 0 -26.5 -16.5t-16.5 -34.5z" />
<glyph unicode="a" horiz-adv-x="516" d="M-102 -61v-82h102q39 6 74 6l114 -6q18 0 39 2t45 8q37 -12 68 -17.5t59 -5.5q25 0 49.5 3t55.5 8l12 2h102v82h-102q-29 -6 -54.5 -8.5t-49.5 -2.5q-37 0 -74 6.5t-80 16.5q-49 -12 -84 -12l-108 6q-29 0 -66 -6h-102zM-102 1495h102q23 4 43 4q23 0 45 2l201 -10 q16 0 32.5 1t32.5 3h15q29 0 49 3t43 3q20 0 55 -6h102v82h-102q-98 0 -177 -3t-161 -3q-80 0 -178 6h-102v-82zM0 238q0 -98 10 -161t35 -63q12 0 21 13l18 495q6 20 5 48t2 53.5t16.5 46t46.5 26.5q14 20 30.5 57.5t36 73t42 62t50.5 26.5q8 0 15 -8v-65v-121t-1 -158 t-3 -174t-4.5 -172t-6.5 -149q14 -25 39 -25q20 0 35.5 16.5t15.5 38.5q0 18 -7 36t-7 38v18q0 10 2 21q9 103 9 199q0 32 -1 63q-1 22 -1 44q0 104 16 210q0 86 -2 197.5t-4 215t-4.5 179.5t-2.5 90q-16 23 -32 23t-31.5 -16.5t-34.5 -20.5l-117 -156q-16 -37 -41.5 -68.5 t-51 -62.5t-46 -65.5t-24.5 -77.5q0 -8 -3.5 -85t-8.5 -186.5t-8 -233.5t-3 -222zM98 881q0 53 17.5 102t46 93t66.5 85t79 76q0 -29 6 -65.5t6 -71.5q0 -37 -14 -68t-61 -41q-33 -53 -66 -102t-67 -96q-12 45 -13 88z" />
<glyph unicode="b" horiz-adv-x="581" d="M-102 -61v-82h102q39 2 74 2h73q92 0 181.5 -3t181.5 -8q20 10 41 11l24 -2h109v82h-102l-136 -19q-49 8 -92 13.5t-90 5.5h-366zM-102 1495h149q90 0 167 6t155 6q41 0 80.5 -2t87.5 -10q8 2 16 2q4 0 8 -1t19 -1h104v82h-102q-8 2 -23 2q-18 0 -31.5 -4t-29.5 -4 q-18 0 -37 8q-35 6 -67 8t-62 2q-68 0 -130.5 -7t-138.5 -7h-32q-14 0 -31 2h-102v-82zM0 1389q25 -164 33 -321t8 -312q0 -174 -5 -347t-9 -356q0 -25 13 -35t34 -10q35 0 67.5 21.5t32.5 50.5q113 131 175.5 203.5t91 107.5t33.5 44t5 14l-2 28l-291 207q41 66 92.5 116 t81.5 103q16 25 36 53.5t24 55.5q-16 23 -35.5 43t-40 39.5t-38 41t-30.5 48.5q-33 31 -57 63.5t-49 64t-51.5 62.5t-61.5 60q-23 -2 -34 -15.5t-23 -29.5zM111 313q0 63 24 74q0 35 5 86t5 92q25 -27 52.5 -40t57.5 -23t59.5 -21.5t54.5 -34.5q-25 -45 -57.5 -83.5 t-65.5 -75.5t-63.5 -75t-55.5 -83q-8 61 -12 107.5t-4 76.5zM129 727v457q51 -39 89 -95.5t91 -103.5l2 -24z" />
<glyph unicode="c" horiz-adv-x="567" d="M-102 -61v-82h102q82 4 149.5 7t133.5 3t133 -3t151 -7h103v82h-103q-111 0 -196.5 3t-175.5 3q-84 0 -195 -6h-102zM-102 1495h102q14 -2 22.5 -3t14.5 -1q16 0 22.5 3t22.5 3h338q16 2 29.5 3t25.5 1q23 0 44.5 -2t47.5 -4h103v82h-103q-43 4 -73 4h-72h-334 q-31 -6 -55 -6l-33 2h-102v-82zM0 784q92 -186 174 -371.5t152 -381.5q16 -8 28.5 -10.5t22.5 -2.5q20 0 26.5 11.5t10.5 25.5q-35 98 -70 199.5t-73 203t-81 200t-96 188.5q23 33 39.5 70.5t34.5 72.5q8 59 38 107.5t63.5 94.5t60 94t30.5 110q-6 18 -22 18q-12 0 -24.5 -9 t-20.5 -20q-37 -76 -77 -149.5t-78 -147t-73.5 -148.5t-64.5 -155zM360 723q10 -27 41 -27l62 2q2 8 2 23q0 29 -17.5 37t-29.5 14q-23 0 -37 -16.5t-21 -32.5z" />
<glyph unicode="d" horiz-adv-x="501" d="M-102 -61v-82h102q39 6 74 6l114 -6q18 0 39 2t45 8q37 -12 68 -17.5t59 -5.5q25 0 49.5 3t55.5 8l12 2h102v82h-102q-29 -6 -54.5 -8.5t-49.5 -2.5q-37 0 -74 6.5t-80 16.5q-49 -12 -84 -12l-108 6q-29 0 -66 -6h-102zM-102 1495h102q23 4 43 4q23 0 45 2l201 -10 q16 0 32.5 1t32.5 3h15q29 0 49 3t43 3q20 0 55 -6h102v82h-102q-98 0 -177 -3t-161 -3q-80 0 -178 6h-102v-82zM0 123q10 -59 23.5 -85t23.5 -26q8 0 16.5 24.5t12.5 61.5t7 79t3 79q0 57 -6 74q45 63 100.5 122.5t114.5 112.5q6 25 22.5 39t34 28.5t30.5 31t17 41.5 q-49 33 -79.5 76.5t-59.5 90t-61.5 87t-87.5 65.5q-4 20 -6.5 41.5t-2.5 44.5q0 57 7.5 115.5t7.5 111.5q0 23 -2 44.5t-9 41.5q-12 6 -26 7q-33 0 -49 -27q-8 -213 -13.5 -372t-9.5 -279.5t-5 -209.5t-1 -161v-133t-2 -125zM100 461v428q66 -47 106 -100.5t89 -108.5z" />
<glyph unicode="e" horiz-adv-x="565" d="M-102 -61v-82h102q47 10 89 13t81 3q66 0 127 -5t133 -5h49q27 0 56 4q16 -6 16 -8t-1 -3l-1 -1l8 2h111v82h-103q-30 3 -56 3h-13h-8q-29 0 -58 7l-270 -10q-23 0 -44.5 6t-45.5 10h-9q-16 0 -23 -5t-38 -11h-102zM-102 1495h770v82h-103l-22 2q-31 0 -50.5 -7t-48.5 -7 h-18q-8 0 -18 4q-66 8 -122.5 12t-113.5 4q-41 0 -83 -2t-89 -6h-102v-82zM0 154q0 -18 2 -45t10 -51.5t23.5 -41t42.5 -16.5q66 47 107.5 91t93.5 97q14 27 44.5 46.5t61.5 38t54.5 40t23.5 52.5q0 12 -17 12q-6 0 -10 -2q-88 -53 -163.5 -113.5t-151.5 -130.5l-19 -4 q0 57 10.5 119.5t10.5 124.5q0 29 -6 59q10 39 63 67.5t112.5 54.5t106.5 54.5t47 69.5q0 16 -14 35q-76 -45 -150.5 -91.5t-160.5 -62.5q0 31 2 84t5 119.5t6 142.5t3 150q0 104 -7 191t-28 134q-4 20 -15 29.5t-26 9.5q-33 0 -47 -37q12 -90 18.5 -187t6.5 -198 q0 -104 -6 -206.5t-19 -198.5q6 -35 8.5 -69t2.5 -68q0 -78 -12.5 -153t-12.5 -146zM231 1147q0 -14 11.5 -21.5t27 -12.5t32 -11.5t24.5 -16.5l24 33q-10 8 -13 22.5l-6 29t-10.5 24.5t-25.5 10t-29.5 -14t-27.5 -23q-6 -12 -7 -20z" />
<glyph unicode="f" horiz-adv-x="516" d="M-102 -61v-82h102q39 6 74 6l114 -6q18 0 39 2t45 8q37 -12 68 -17.5t59 -5.5q25 0 49.5 3t55.5 8l12 2h102v82h-102q-29 -6 -54.5 -8.5t-49.5 -2.5q-37 0 -74 6.5t-80 16.5q-49 -12 -84 -12l-108 6q-29 0 -66 -6h-102zM-102 1495h102q23 4 43 4q23 0 45 2l201 -10 q16 0 32.5 1t32.5 3h15q29 0 49 3t43 3q20 0 55 -6h102v82h-102q-98 0 -177 -3t-161 -3q-80 0 -178 6h-102v-82zM0 1100q0 -55 4 -110.5t6 -108.5q0 -4 2 -39t5 -88.5t6.5 -120t6.5 -136t5 -136t2 -119.5q0 -74 -6 -148q4 -12 5 -26.5t3 -27.5t8 -24.5t23 -15.5q31 37 43 80 t12 90q0 12 -4 32.5t-8 43t-8.5 47t-4.5 45.5q0 20 7.5 41.5t11.5 40.5q-4 119 -15.5 222t-11.5 212q0 35 2 72t6 75q45 -6 80 -36.5t68 -64.5t67.5 -63.5t81.5 -31.5q16 20 17 37q0 14 -8.5 26.5t-18.5 20.5q-35 25 -65.5 58.5t-64.5 67.5t-72 61.5t-85 39.5q-2 10 -4 36 t-2 54q0 35 4 60.5t17 25.5l43 -18q29 -8 55.5 -39t52 -64.5t52 -60.5t57.5 -27q23 0 31 21q-10 41 -36 74.5t-58.5 63.5t-66.5 56.5t-59 55.5q-16 2 -32.5 13t-33 24.5t-30.5 24.5t-29 11q-16 0 -29.5 -9t-17.5 -25q-4 -74 -9 -148t-5 -145zM209 612q10 -14 31.5 -29.5 t40.5 -15.5q25 0 30 33l-32 59q-23 0 -40.5 -15.5t-29.5 -31.5z" />
<glyph unicode="g" horiz-adv-x="600" d="M-102 -61v-82h102q74 14 129 20t104 6q41 0 80 -4t81 -9t92.5 -9t111.5 -4h102v82h-100q-66 0 -116 4t-93 9t-81 9t-79 4q-47 0 -103 -5t-128 -21h-102zM-102 1495h102q82 4 154.5 7t148.5 3q70 0 142.5 -3t154.5 -7h100v82h-100q-78 4 -143.5 7t-128.5 3 q-70 0 -140.5 -2t-154.5 -6l-33 -2h-102v-82zM0 653q43 -96 100.5 -175t116.5 -169q35 -18 58.5 -65t47 -96.5t54.5 -86t82 -36.5q8 0 13 7t9 17t8.5 19.5t8.5 15.5q-10 72 -17.5 153.5t-7.5 161.5q0 125 8 234.5t8 173.5l-18 27q-20 -2 -42.5 -13.5t-33.5 -29.5 q0 -53 8.5 -136.5t8.5 -169.5q0 -59 -7.5 -113.5t-25.5 -99.5q-31 57 -71 112.5t-79 111t-72.5 112t-54.5 115.5q29 37 50.5 77t40 81t39 80.5t44.5 78.5q6 51 30 93.5t50.5 83t48 84t21.5 96.5q-2 18 -20 18q-14 0 -29 -8t-23 -18q-102 -178 -183 -366.5t-171 -369.5z" />
<glyph unicode="h" horiz-adv-x="595" d="M-102 -61v-82h102q39 6 74 6l114 -6q18 0 39 2t45 8q37 -12 68 -17.5t59 -5.5q25 0 49.5 3t55.5 8l12 2h102v82h-102q-29 -6 -54.5 -8.5t-49.5 -2.5q-37 0 -74 6.5t-80 16.5q-49 -12 -84 -12l-108 6q-29 0 -66 -6h-102zM-102 1495h102q23 4 43 4q23 0 45 2l201 -10 q16 0 32.5 1t32.5 3h15q29 0 49 3t43 3q20 0 55 -6h102v82h-102q-98 0 -177 -3t-161 -3q-80 0 -178 6h-102v-82zM0 197q0 -51 9 -100.5t36 -96.5q16 0 31 8q14 49 15 107.5t4 115t13.5 107.5t45.5 88q43 -33 72.5 -79t56 -96t55.5 -99.5t68 -90.5q18 -18 43 -18 q18 0 31.5 13.5t13.5 37.5q0 47 -34 85t-63 77q-41 115 -114.5 210t-151.5 185q-4 55 -9 111.5t-5 111.5q0 123 10 247t14 257l-28 39q-14 0 -28.5 -8t-21.5 -20q-16 -172 -25 -331t-9 -321q0 -25 4 -76t4 -94q0 -47 -6 -104t-12.5 -110.5t-12.5 -96.5t-6 -59zM231 936 q0 -8 2 -14q25 -16 46.5 -37t56.5 -21l20 29q0 12 -8 24.5t-17 23.5t-18.5 22.5t-11.5 23.5q-8 -4 -20.5 -8t-22.5 -9t-18.5 -13.5t-8.5 -20.5z" />
<glyph unicode="i" horiz-adv-x="503" d="M-102 -61v-82h102q47 -6 86 -8.5t74 -2.5q72 0 139.5 5.5t153.5 5.5h153v82h-102q-88 -4 -159 -11.5t-144 -7.5q-47 0 -95.5 4t-105.5 15h-102zM-102 1495h450q33 -6 70 -6q43 0 86 6h102v82h-102q-39 -4 -76 -4q-35 0 -70 -4l-288 10h-35q-16 0 -35 -2h-102v-82zM0 125 q0 -41 9 -76t50 -49q18 12 24.5 26.5t6.5 28.5q0 135 2 297t7 320.5t13.5 295t22.5 220.5q27 -59 51.5 -101.5t44 -72t30.5 -47t11 -29.5q16 -37 42 -63.5t69 -26.5q18 27 18 53q0 18 -9 33.5t-21.5 29t-24.5 27t-18 29.5q-31 51 -55.5 108.5t-50 113.5t-58.5 105.5 t-80 86.5q-27 -4 -36 -22.5t-19 -37.5q0 -117 -4.5 -268.5t-10.5 -317t-10 -336.5t-4 -327zM203 496q6 -18 24.5 -29.5t36.5 -11.5q33 0 39 28q-8 20 -24.5 31.5t-32.5 11.5q-29 1 -43 -30z" />
<glyph unicode="j" horiz-adv-x="770" d="M-102 -61v-82h102q39 6 74 6l114 -6q18 0 39 2t45 8q37 -12 68 -17.5t59 -5.5q25 0 49.5 3t55.5 8l12 2h102v82h-102q-29 -6 -54.5 -8.5t-49.5 -2.5q-37 0 -74 6.5t-80 16.5q-49 -12 -84 -12l-108 6q-29 0 -66 -6h-102zM-102 1495h102q23 4 43 4q23 0 45 2l201 -10 q16 0 32.5 1t32.5 3h15q29 0 49 3t43 3q20 0 55 -6h102v82h-102q-98 0 -177 -3t-161 -3q-80 0 -178 6h-102v-82zM0 520q61 -53 111.5 -116.5t93.5 -129t78.5 -128t66.5 -113.5q12 20 20.5 64t13.5 100.5t7 120t2 122.5q0 102 -6 170q-16 68 -22.5 136.5t-6.5 134.5 q0 74 4.5 140t4.5 122q0 10 6 23.5t18 13.5q29 0 50.5 -29t40 -62.5t36 -61.5t35.5 -28t30.5 -10t20.5 -23.5t15.5 -23.5t17.5 -10q14 0 31 14q-18 70 -55.5 129.5t-82.5 114.5t-94 110.5t-90 114.5q-10 6 -16 6q-14 0 -26.5 -10t-27.5 -14q2 -131 4.5 -288t4.5 -306.5 t3 -271t1 -181.5l-13 -16l-198 178q-16 18 -45 18q-23 0 -33 -10zM461 768q0 -20 10 -29.5t25.5 -14.5l31 -10t25.5 -16q18 2 18 17q0 14 7 24l-28 24t-20 28q-16 -4 -34.5 -8.5t-34.5 -14.5z" />
<glyph unicode="k" horiz-adv-x="616" d="M-102 -61v-82h149q111 0 194 5t175 5q45 0 94 -2t106 -8h103v82h-103q-55 6 -103 8t-93 2q-92 0 -179 -5t-202 -5h-141zM-102 1495h102l35 16h229q96 0 176 -3t176 -13h103v82h-103q-70 6 -128 12t-121 6h-48q-23 0 -49 -2l-270 -16h-102v-82zM0 317q0 -72 7 -142.5 t24 -139.5q10 -25 32.5 -30t47.5 -5q0 59 -11.5 123.5t-11.5 130.5q0 59 14 111q31 -10 51.5 -39t30.5 -58q43 -14 67.5 -50t46 -75t48.5 -74.5t74 -50.5q12 2 17 8.5t7 13.5t3.5 15t5.5 19q-20 55 -54 103t-73 94t-75 95.5t-61 108.5q-59 35 -77.5 86t-18.5 109 q0 35 4 71.5t8 69.5q37 20 59.5 54t43 70t41 70.5t53.5 61.5q33 23 58.5 60.5t50.5 68.5q8 20 25.5 44t34.5 47.5t29.5 46t12.5 38.5t-18 17q-10 0 -22.5 -5.5t-18.5 -9.5q-70 -84 -127.5 -159.5t-128.5 -157.5q-12 -14 -20.5 -33.5t-18.5 -38t-23.5 -33t-34.5 -16.5 q-10 34 -10 78q0 10 1 22q1 10 1 21q0 46 -12 86l14 10q-3 62 -3 119v31q0 67 -34 131q-16 -10 -32.5 -14.5t-24.5 -26.5q4 -176 5 -309.5t1 -237.5q0 -117 -1 -199t-3 -141.5t-3 -103.5t-1 -85zM287 692q8 -18 17 -26.5t28 -10.5q20 14 44.5 21.5t31.5 36.5l-36 9t-36 5 t-30.5 -7.5t-18.5 -27.5z" />
<glyph unicode="l" horiz-adv-x="606" d="M-102 -61v-82h102q39 6 74 6l114 -6q18 0 39 2t45 8q37 -12 68 -17.5t59 -5.5q25 0 49.5 3t55.5 8l12 2h102v82h-102q-29 -6 -54.5 -8.5t-49.5 -2.5q-37 0 -74 6.5t-80 16.5q-49 -12 -84 -12l-108 6q-29 0 -66 -6h-102zM-102 1495h102q23 4 43 4q23 0 45 2l201 -10 q16 0 32.5 1t32.5 3h15q29 0 49 3t43 3q20 0 55 -6h102v82h-102q-98 0 -177 -3t-161 -3q-80 0 -178 6h-102v-82zM0 1311q0 -29 2 -59.5t5 -60.5t6 -53.5t3 -37.5q0 -55 -3 -109.5t-7 -111.5q4 -29 6 -54.5t2 -54.5q0 -27 -2 -58.5t-4 -62.5t-4 -54.5t-2 -33.5v-526 q2 -10 10 -14.5t19 -4.5q16 0 33.5 7.5t31.5 11.5q47 59 115 104t125 92q14 14 43 28.5t56.5 32t48 38t20.5 47.5q-1 15 -19 29q-102 -53 -196 -123t-193 -136q-4 23 -14 43.5t-10 45.5q0 12 2 20q23 127 29 268.5t6 270.5q0 51 -2.5 100t-10.5 102q10 18 10 43 q0 23 -5 43.5t-5 42.5q0 16 6.5 28.5t14.5 29.5q-12 31 -13 65q0 35 -2 69t-12 64.5t-41 51.5q-29 -18 -39 -52t-10 -71zM238 885q0 -16 9 -24.5t21.5 -15.5t24.5 -13.5t20 -18.5q10 2 15.5 17.5t5.5 35.5q0 25 -7.5 47.5t-21.5 22.5q-16 0 -33.5 -13.5t-31.5 -19.5 q-2 -6 -2 -18z" />
<glyph unicode="m" horiz-adv-x="839" d="M-102 -61v-82h102q123 12 238 12h497q18 -8 38 -10t38 -2h131v82h-102q-41 4 -71 9t-58 5q-20 0 -41 -4t-47 -15q-125 0 -223.5 8.5t-202.5 8.5q-90 0 -197 -12h-102zM-102 1495h102q41 2 78 2h74h313q12 0 24.5 7t26.5 7l27 -10h92q10 -2 20.5 -4t20.5 -2q14 0 29 8 q10 4 18 4h14q23 0 38.5 -7t43.5 -7l21 2h102v82h-102q-39 4 -65.5 7t-55.5 3q-33 0 -74 -8h-307q-16 -2 -33.5 -3t-34.5 -1q-47 0 -92 6q-47 -2 -71.5 -4t-57.5 -2q-10 0 -21.5 1t-27.5 1h-102v-82zM0 1360q14 -98 19.5 -194.5t5.5 -194.5q0 -49 -3.5 -131t-6.5 -177.5 t-6 -193.5t-3 -184q0 -106 6 -211l62 -66q10 0 21 5t22 12q-10 70 -15.5 146.5t-5.5 162.5q0 35 2 105.5t5 156.5t5.5 176t2.5 164q0 72 -2.5 139.5t-10.5 132.5q57 -45 102.5 -96t104.5 -86q10 -78 15.5 -160t5.5 -168q0 -78 -1 -176t-3.5 -190t-3.5 -165t-1 -99 q23 -35 64 -35q16 0 35 6q-6 233 -9.5 479t-15.5 494l47 18q0 31 14.5 60.5t36 57.5t47 54.5t50.5 48.5q6 4 12 4h14q12 0 17 -12q8 -121 16 -241.5t8 -239.5q0 -70 -4 -138.5t-14 -134.5q12 -23 16 -56.5t4 -74.5q0 -12 -1 -40.5t-3 -62.5t-3 -68.5t-1 -61.5 q18 -14 29.5 -40t36.5 -26q10 0 18 4q6 242 6 500q0 211 -5 418t-19 410q-6 12 -16.5 15t-20.5 3q-41 0 -78 -38t-71.5 -86t-67.5 -90t-64 -48l8 219q-2 6 -8 15.5t-16 9.5q-27 0 -40 -25t-13 -53q-13 -50 -13 -96q1 -5 1 -11v-8q0 -47 -15 -90q-31 43 -55.5 93t-52 96 t-63.5 83t-89 54z" />
<glyph unicode="n" horiz-adv-x="616" d="M-102 -61v-82h102q39 6 74 6l114 -6q18 0 39 2t45 8q37 -12 68 -17.5t59 -5.5q25 0 49.5 3t55.5 8l12 2h102v82h-102q-29 -6 -54.5 -8.5t-49.5 -2.5q-37 0 -74 6.5t-80 16.5q-49 -12 -84 -12l-108 6q-29 0 -66 -6h-102zM-102 1495h102q23 4 43 4q23 0 45 2l201 -10 q16 0 32.5 1t32.5 3h15q29 0 49 3t43 3q20 0 55 -6h102v82h-102q-98 0 -177 -3t-161 -3q-80 0 -178 6h-102v-82zM0 528q0 -18 4 -46.5t8 -60.5t8.5 -62.5t4.5 -55.5v-121q0 -31 3 -52t10 -39.5t20.5 -36t33.5 -40.5l31 27q-12 215 -14.5 442.5t-6.5 444.5h29 q80 -66 145.5 -134.5t131.5 -154.5q10 -45 13 -117.5t3 -156.5v-302q8 -23 29.5 -40t38.5 -17q23 0 22 31q0 66 -9 170t-9 221q0 55 3 109.5t13 107.5q-14 27 -19.5 54.5t-5.5 56.5q0 47 7.5 91t7.5 81q-10 121 -14.5 219t-6.5 205q-4 20 -10 39.5t-27 19.5q-16 0 -26 -12.5 t-16.5 -29.5t-8.5 -35.5t-2 -30.5q0 -47 10.5 -95.5t10.5 -91.5t-19 -74q-68 92 -139.5 181.5t-157.5 177.5q-12 18 -39 18q-16 0 -27.5 -6t-13.5 -14q0 -25 1 -97.5t1 -164.5t1 -190.5t1 -172.5l-10 -41q23 -29 23 -63q0 -18 -5 -40t-11.5 -41.5t-11.5 -35.5t-5 -25z M117 1020q0 45 7 90t11 90h10q68 -66 121 -143.5t121 -149.5q6 -16 13.5 -32.5t7.5 -34.5l-29 -23q-33 29 -61.5 63.5t-58.5 65.5t-63.5 52.5t-78.5 21.5z" />
<glyph unicode="o" horiz-adv-x="716" d="M-102 -61v-82h102q41 -8 67.5 -14.5t53.5 -6.5q25 0 51.5 7t60.5 24q47 -4 95.5 -12.5t95.5 -8.5q51 0 94 15q25 0 43.5 1t34.5 1q27 0 50.5 -1t62.5 -5h110v82h-102q-72 6 -121 6q-59 0 -112.5 -4t-127.5 -9q-55 16 -108 17q-29 0 -56.5 -5t-52.5 -16h-55q-18 0 -35.5 2 t-48.5 9h-102zM-102 1495h114q63 0 122 7t118 7q51 0 98 -8q68 -6 139 -6h156l37 2l35 -2h102v82h-102q-29 14 -58 14q-33 0 -63.5 -10t-67.5 -10q-16 0 -26 2l-35 4q-70 6 -137.5 11t-132.5 5q-49 0 -97.5 -3t-99.5 -13h-102v-82zM0 745q0 -39 24.5 -76.5t55.5 -76.5 t59.5 -79t34.5 -83q14 -27 39 -47.5t33 -50.5q-10 -31 -28.5 -67t-37 -72.5t-33 -73.5t-14.5 -70q0 -12 7 -24.5t24 -20.5q14 6 33.5 4t23.5 15q6 20 12.5 44.5t15.5 48t23.5 43t36.5 29.5q25 -16 38 -39.5t27.5 -45t33 -36t49.5 -14.5q20 0 20 23t-16.5 59.5t-35.5 75.5 t-35.5 70.5t-16.5 42.5q0 53 22.5 105t53 102.5t64.5 100.5t56 97q10 20 27.5 41t17.5 43q0 13 -8 27q-68 104 -116 223t-76 235q-6 12 -8.5 30t-4.5 35t-8 29.5t-20 12.5q-10 0 -27 -8q-72 -133 -146.5 -265.5t-129.5 -271.5q-39 -31 -54.5 -58.5t-15.5 -56.5zM104 772 l224 438q20 -47 37.5 -94t36 -94t42 -92t58.5 -84q-2 -45 -21.5 -85t-42 -78t-44 -76t-29.5 -81l-68 -84z" />
<glyph unicode="p" horiz-adv-x="530" d="M-102 -61v-82h102q39 6 74 6l114 -6q18 0 39 2t45 8q37 -12 68 -17.5t59 -5.5q25 0 49.5 3t55.5 8l12 2h102v82h-102q-29 -6 -54.5 -8.5t-49.5 -2.5q-37 0 -74 6.5t-80 16.5q-49 -12 -84 -12l-108 6q-29 0 -66 -6h-102zM-102 1495h102q23 4 43 4q23 0 45 2l201 -10 q16 0 32.5 1t32.5 3h15q29 0 49 3t43 3q20 0 55 -6h102v82h-102q-98 0 -177 -3t-161 -3q-80 0 -178 6h-102v-82zM0 188q0 -59 6 -116q23 -37 36 -52.5t21 -15.5q10 0 12.5 15.5t2.5 39.5q0 137 4 267.5t22 269.5q20 16 23.5 41t24.5 33q18 45 54 78.5t78 64.5t80.5 64.5 t63.5 78.5l-246 351q-31 4 -48 21.5t-27.5 37.5t-16.5 35.5t-14 15.5q-14 0 -26.5 -13t-18.5 -26q-6 -47 -6 -106q0 -76 5 -165t5 -181q0 -72 -6 -137.5t-23 -118.5q12 -35 12 -105q0 -41 -3 -97t-6 -112.5t-6 -102.5t-3 -65zM104 1069q0 57 13 117q57 -43 98 -94.5 t100 -104.5q-8 -31 -30.5 -58.5t-51 -53t-58 -50t-52.5 -49.5q-10 10 -10 25q0 10 3 20t7 21q-4 55 -11.5 112.5t-7.5 114.5zM233 453q0 -12 9.5 -18.5t21.5 -9.5t26.5 -5t24.5 -4q10 2 16.5 13t6.5 22q-8 23 -24.5 37t-32.5 14q-14 0 -31 -13.5t-17 -35.5z" />
<glyph unicode="q" horiz-adv-x="520" d="M-102 -61v-82h102q61 12 106 12q66 0 111 -12.5t80 -12.5q31 0 59 19q27 2 48.5 4t44.5 2q31 0 71 -12h103v82h-103q-23 4 -43 7t-39 3q-51 0 -92 -9.5t-88 -9.5q-23 0 -48.5 3.5t-53.5 13.5q-12 4 -52 4q-25 0 -53 -3t-51 -9h-102zM-102 1495h102q78 -6 143.5 -8 t124.5 -2t120 2t132 8h103v82h-103q-14 10 -20 10t-12.5 -2t-14.5 -6q-37 -4 -67.5 -8t-63.5 -6q-31 2 -71 4t-76.5 4t-65.5 3t-35 1h-196v-82zM0 979q29 -47 69 -82t80.5 -68.5t77.5 -71.5t60 -89q0 -14 6 -34t6 -30q0 -49 -4 -103.5t-10 -106.5t-10.5 -94t-4.5 -67 q0 -41 2 -84t11 -88q10 -16 18 -37.5t33 -21.5q23 0 22 23q0 25 6 41v686h9q6 152 10 302t37 292q-6 6 -10.5 18t-7.5 23.5t-8 19.5t-17 8q-8 0 -21 -6q-55 -45 -102 -97t-89 -107.5t-82 -113t-81 -112.5zM96 1001q0 14 9.5 25.5t21.5 22t22.5 22.5t14.5 27q49 68 131 112 l-8 -379q-12 0 -23.5 23t-27.5 33zM117 403q0 -23 18.5 -29.5t36.5 -6.5q23 0 35 12l4 18q-18 16 -28.5 28.5t-22.5 12.5z" />
<glyph unicode="r" horiz-adv-x="505" d="M-102 -61v-82h102q39 6 74 6l114 -6q18 0 39 2t45 8q37 -12 68 -17.5t59 -5.5q25 0 49.5 3t55.5 8l12 2h102v82h-102q-29 -6 -54.5 -8.5t-49.5 -2.5q-37 0 -74 6.5t-80 16.5q-49 -12 -84 -12l-108 6q-29 0 -66 -6h-102zM-102 1495h102q23 4 43 4q23 0 45 2l201 -10 q16 0 32.5 1t32.5 3h15q29 0 49 3t43 3q20 0 55 -6h102v82h-102q-98 0 -177 -3t-161 -3q-80 0 -178 6h-102v-82zM0 70q6 -16 16.5 -39t32.5 -23q14 0 23.5 22.5t14.5 59.5t7 83t2 91q0 63 -2 113.5t-2 66.5q0 41 -8 83t-8 85q0 6 1 24.5t6 39t12 36t20 15.5q29 0 58.5 -20.5 t58 -46t54 -46t46.5 -20.5q14 0 22 13.5t8 25.5q0 23 -21.5 45t-52 44.5t-62 44t-52.5 44.5q14 12 27.5 30.5t27 35t30 29t36.5 14.5q8 14 26.5 26t37 24.5t31.5 27t13 32.5l-217 217q-23 8 -40 30.5t-32.5 46.5t-33 41t-37.5 17q-18 0 -43 -18v-1294zM84 1016q0 76 20 149 q33 -6 56.5 -23.5t45 -38t44 -41t53.5 -32.5v-12q-49 -37 -101.5 -73t-97.5 -85q-20 74 -20 156zM166 395q0 -23 10 -36t25.5 -19t33 -7t29.5 -1q20 0 39 12q0 14 -9 22.5t-19.5 15.5t-19.5 14.5t-11 23.5q-8 8 -19 8q-16 0 -28.5 -14.5t-30.5 -18.5z" />
<glyph unicode="s" horiz-adv-x="516" d="M-102 -61v-82h186q10 2 18 2h19q37 0 67.5 -2t58 -3t55.5 -3.5t63 -2.5q31 0 67.5 2.5t83.5 6.5h102v82h-102q-53 -4 -93 -6.5t-73 -2.5q-35 0 -63.5 2t-58 3.5t-63.5 3.5t-79 2h-41q-20 0 -45 -2h-102zM-102 1495h284q68 0 134.5 -2t132.5 -6l30 12l37 -4h102v82h-102 q-25 0 -52.5 -3t-47.5 -15q-115 18 -228 18h-290v-82zM0 657q0 -18 7 -34.5t30 -16.5q33 0 65.5 21.5t66.5 48t67.5 52.5t64.5 34q20 -14 21 -33q0 -16 -9.5 -32.5t-11.5 -32.5q4 -41 6 -83t2 -85q0 -123 -11 -243t-22 -230q23 -23 50 -23q14 0 30 10q16 160 27 328t10 340 q0 35 10.5 68.5t10.5 66.5q-1 32 -21 59q-39 -14 -75.5 -36.5t-73.5 -44t-77 -37t-83 -15.5q14 72 17 151t10 157q4 59 11 108t7 100q0 8 -1 33t-4 50.5t-11.5 46t-22.5 20.5q-12 0 -27.5 -10.5t-25.5 -18.5q-8 -182 -8 -360t-29 -359zM219 1106q0 -18 10.5 -26.5 t23.5 -13.5t28.5 -6t25.5 -3v30q0 18 -14 32t-33 14q-10 0 -14 -3q-4 -12 -15.5 -13t-11.5 -11z" />
<glyph unicode="t" horiz-adv-x="604" d="M-102 -61v-82h102q39 6 74 6l114 -6q18 0 39 2t45 8q37 -12 68 -17.5t59 -5.5q25 0 49.5 3t55.5 8l12 2h102v82h-102q-29 -6 -54.5 -8.5t-49.5 -2.5q-37 0 -74 6.5t-80 16.5q-49 -12 -84 -12l-108 6q-29 0 -66 -6h-102zM-102 1495h102q23 4 43 4q23 0 45 2l201 -10 q16 0 32.5 1t32.5 3h15q29 0 49 3t43 3q20 0 55 -6h102v82h-102q-98 0 -177 -3t-161 -3q-80 0 -178 6h-102v-82zM0 1098q0 -23 13.5 -39.5t33.5 -16.5q25 0 35 20.5t20 46.5t23.5 46.5t42.5 20.5q10 0 18 -13q12 -98 16.5 -213.5t4.5 -232.5q0 -96 -2 -185.5t-4 -163 t-4 -128t-2 -76.5q0 -25 3 -51.5t9 -48t17.5 -36t27.5 -14.5q14 0 24 21v71t1.5 121t2.5 153t2 169t1 170v153q-12 63 -13 136q0 51 3 103t8 99q25 -4 43 -27.5t34.5 -51t33 -49t38.5 -21.5q13 0 23 8q-6 53 -25.5 105.5t-50.5 100.5t-69 89t-81 70q-14 -31 -51 -72t-76 -86 t-69.5 -91t-30.5 -87zM408 610q0 -10 6 -18q10 -18 33.5 -31.5t46.5 -17.5l8 37q-8 14 -12 38.5t-25 24.5q-16 0 -36.5 -8t-20.5 -25z" />
<glyph unicode="u" horiz-adv-x="540" d="M-102 -61v-82h102q100 4 180 11t162 7q47 0 95 -4t104 -14h102v82h-745zM-102 1495h102q92 4 165 9t144 5q53 0 109.5 -3t122.5 -11h102v82h-102q-68 8 -123.5 11t-108.5 3q-72 0 -144.5 -7t-164.5 -7h-102v-82zM0 1411q10 -145 13 -288.5t3 -284.5q0 -193 -4 -383.5 t-8 -384.5l41 -33q16 -6 34.5 -7t35.5 -1q12 0 17 9t5 21q0 14 -4 27q59 92 119.5 181t138.5 173q4 10 6 24.5t2 29.5q0 14 -2 26t-6 23q12 109 20.5 210t14.5 200.5t9 198.5t3 208q0 20 -8 36.5t-33 26.5q-20 -10 -28.5 -23.5t-18.5 -33.5q4 -49 4 -100v-99 q0 -172 -13 -340t-36 -321q0 -27 -24.5 -81t-59.5 -111.5t-71.5 -103.5t-63.5 -56q0 27 2 83t3 127.5t3 149.5t4 146.5t3 119.5t1 68q0 115 -4 220.5t-11 185t-19.5 128t-30.5 48.5t-37 -19z" />
<glyph unicode="v" horiz-adv-x="598" d="M-102 -61v-82h102q39 6 74 6l114 -6q18 0 39 2t45 8q37 -12 68 -17.5t59 -5.5q25 0 49.5 3t55.5 8l12 2h102v82h-102q-29 -6 -54.5 -8.5t-49.5 -2.5q-37 0 -74 6.5t-80 16.5q-49 -12 -84 -12l-108 6q-29 0 -66 -6h-102zM-102 1495h102q23 4 43 4q23 0 45 2l201 -10 q16 0 32.5 1t32.5 3h15q29 0 49 3t43 3q20 0 55 -6h102v82h-102q-98 0 -177 -3t-161 -3q-80 0 -178 6h-102v-82zM0 946q0 -86 1 -172t3 -157.5t3 -127t1 -79.5q57 -41 101.5 -98.5t88.5 -114t95 -104.5t123 -66q16 0 37.5 7t25.5 29q0 45 2 120t5 170.5t6.5 207t3.5 227.5 q0 172 -9 340t-30 306q-29 -2 -46.5 -16.5t-26.5 -36t-12 -48t-3 -53.5q0 -37 5 -103.5t10 -150.5t10 -177t5 -181q0 -96 -5 -193.5t-13 -210.5q-2 -31 -4 -61.5t-15 -63.5q-41 39 -71.5 85t-58 91t-59.5 89.5t-75 80.5q-4 39 -5 89.5t-1 107.5q0 104 4 218t8.5 212t8.5 166 t4 78q0 47 -25 78q-35 0 -48 -19.5t-18.5 -47.5t-6.5 -55.5t-11 -45.5q-4 -68 -6 -151t-2 -169z" />
<glyph unicode="w" horiz-adv-x="847" d="M-102 -61v-82h102q76 6 145 6h295q8 -6 15.5 -7t15.5 -1q74 0 160 12q29 -2 49 -5t35.5 -5t30 -4.5t30.5 -2.5q25 0 72 7h102v82h-102q-25 -4 -47 -5h-41q-72 0 -129.5 7.5t-122.5 7.5q-59 0 -133 -12q-47 6 -85 9t-73 3q-49 0 -101.5 -5t-115.5 -5h-102zM-102 1495h102 q125 12 225 12q123 0 230.5 -8t236.5 -8h76t80 4h102v82h-102q-86 -6 -158 -6q-127 0 -236.5 9t-230.5 9q-100 0 -223 -12h-102v-82zM0 78l29 -45q37 0 46 23.5t9 39.5q0 33 22.5 75t54.5 83t69.5 76t68.5 55q2 -10 3 -21.5t1 -21.5q0 -16 -4 -38.5t-8 -48.5t-8 -52.5 t-4 -50.5q0 -27 10 -62q2 -39 29.5 -51t58.5 -19q2 10 4 23.5t2 28.5q0 33 -14 53q-4 20 -4 43v45q0 61 22 119q37 -23 59.5 -68t57.5 -74q20 -10 35.5 -32.5t31 -47t34 -43t42.5 -18.5q20 0 32.5 16.5t19 40t7.5 49t1 46.5q0 55 -7.5 110.5t-11.5 102.5q0 61 9.5 146 t19.5 179.5t19 191.5t9 181q0 45 -3 87t-13 85q2 10 4 26.5t2 35.5q0 25 -6 45t-24 20q-8 0 -16.5 -4t-18.5 -6q-18 -39 -24.5 -80t-6.5 -82q0 -12 1 -34.5t3 -48.5t3 -53.5t1 -49.5q0 -104 -8 -206t-19.5 -203t-19.5 -201.5t-8 -200.5q-10 37 -41 74.5t-63.5 76.5t-58.5 79 t-26 81l13 119q0 18 -2 29.5t-5 22.5t-5.5 26.5t-2.5 44.5q0 43 3.5 101t6.5 119.5l6 123t3 112.5q0 59 -5 98.5t-22 39.5q-16 0 -29.5 -16.5t-27.5 -22.5q2 -23 5 -54.5t3 -54.5q0 -12 -5 -54t-10 -96.5t-10.5 -113.5t-5.5 -111q0 -33 3 -65.5t8 -67.5q18 -37 18 -78 q0 -20 -4 -40.5t-10 -41.5q-57 -74 -112.5 -149.5t-115.5 -144.5l-12 12q6 29 10 83t7.5 123.5t4.5 149.5t1 160q0 82 -1.5 156t-5.5 133l-24 323q-37 0 -46 -28.5t-9 -67.5q0 -33 -2.5 -64.5t-10.5 -50.5q8 -78 11.5 -157.5t3.5 -157.5q0 -209 -13.5 -413t-13.5 -402z" />
<glyph unicode="x" horiz-adv-x="679" d="M-102 -61v-82h102q39 6 74 6l114 -6q18 0 39 2t45 8q37 -12 68 -17.5t59 -5.5q25 0 49.5 3t55.5 8l12 2h102v82h-102q-29 -6 -54.5 -8.5t-49.5 -2.5q-37 0 -74 6.5t-80 16.5q-49 -12 -84 -12l-108 6q-29 0 -66 -6h-102zM-102 1495h102q23 4 43 4q23 0 45 2l201 -10 q16 0 32.5 1t32.5 3h15q29 0 49 3t43 3q20 0 55 -6h102v82h-102q-98 0 -177 -3t-161 -3q-80 0 -178 6h-102v-82zM0 45q0 -16 15.5 -23.5t31.5 -7.5q25 0 30 19.5t5 42.5q35 31 55.5 66.5t36.5 73.5t34.5 75t49.5 67q37 -18 60.5 -47.5t42 -65.5t36 -73t43.5 -68 q4 -16 14.5 -28.5t21.5 -23.5t19.5 -23.5t8.5 -26.5q41 0 69 21q-14 63 -41.5 120.5t-61.5 112.5t-69.5 110.5t-64.5 112.5q0 43 32.5 78t70.5 65.5t70 63.5t32 74q0 35 -28 68.5t-60.5 65.5t-61.5 64.5t-29 67.5l216 342q0 14 -5.5 24.5t-19.5 10.5q-41 0 -75 -41 t-63.5 -91t-59 -96.5t-62.5 -56.5q-47 72 -87 152t-106 143q-10 6 -16 6q-14 0 -25.5 -13t-23.5 -24q37 -98 91 -186t107 -174q-4 -37 -30.5 -72t-57 -67.5t-56.5 -66.5t-26 -66q0 -45 21.5 -83t47.5 -74t47.5 -73t21.5 -80q0 -49 -31 -97t-67.5 -96t-68.5 -98.5t-34 -103.5 zM168 764q0 14 13.5 39.5t31.5 50.5t36.5 42t31.5 17q20 0 38.5 -17t37 -42t35 -50.5t30.5 -39.5q-27 -53 -69 -112.5t-77 -98.5q-6 27 -24.5 52.5t-36.5 52t-32.5 53t-14.5 53.5z" />
<glyph unicode="y" horiz-adv-x="589" d="M-102 -61v-82h102q90 10 155.5 15t125.5 5q68 0 138 -5t171 -15h102v82h-102q-47 -8 -85 -11.5t-73 -3.5q-41 0 -78 3t-73.5 8.5t-74.5 8.5t-83 3q-29 0 -58.5 -2t-64.5 -6h-102zM-102 1495h145q16 2 29.5 3t25.5 1q82 0 154 -6t143 -6q41 0 84 4t88 14l23 -10h102v82 h-102q-16 4 -28.5 9t-22.5 5q-12 0 -33 -14q-41 -8 -76 -10t-68 -2q-72 0 -133 8t-139 8q-23 0 -44 -1t-46 -3h-102v-82zM0 1368q29 -154 38 -325t9 -336q0 -102 -3 -197.5t-6 -176.5t-5 -143.5t-2 -99.5q0 -29 14 -56.5t45 -27.5q14 0 31 12v773q6 16 20.5 25t26.5 9 q10 0 16 3t9 20q-6 6 -7 14q0 12 10.5 22.5t18.5 14.5q14 45 44 91t60 89q4 6 5.5 16.5t2.5 19.5t5 16.5t16 9.5q6 39 22.5 69.5t37 59t42 57.5t37.5 64q-2 10 -11 25.5t-19 15.5q-6 0 -8 -7l-312 -516l-12 13l8 98q-16 47 -17 102.5t-2 109.5t-11.5 105.5t-47.5 92.5 q-18 0 -32.5 -19.5t-22.5 -42.5zM362 686q0 -27 24 -40t40 -32l20 19q2 4 3 18v31q0 16 -6.5 31.5t-24.5 21.5l-56 -43v-6z" />
<glyph unicode="z" horiz-adv-x="774" d="M-102 -61v-82h102q39 6 74 6l114 -6q18 0 39 2t45 8q37 -12 68 -17.5t59 -5.5q25 0 49.5 3t55.5 8l12 2h102v82h-102q-29 -6 -54.5 -8.5t-49.5 -2.5q-37 0 -74 6.5t-80 16.5q-49 -12 -84 -12l-108 6q-29 0 -66 -6h-102zM-102 1495h102q23 4 43 4q23 0 45 2l201 -10 q16 0 32.5 1t32.5 3h15q29 0 49 3t43 3q20 0 55 -6h102v82h-102q-98 0 -177 -3t-161 -3q-80 0 -178 6h-102v-82zM0 995q16 -23 30.5 -32t24.5 -9q12 0 23 13q2 29 16.5 51t31.5 42.5t31.5 42t18.5 50.5q12 6 21.5 18.5t18.5 24.5t19.5 21.5t24.5 9.5t29 -8 q-16 -152 -22.5 -298.5t-9.5 -290t-5 -286.5t-8 -287q16 -20 24 -25t15 -5q18 0 32.5 21.5t30.5 31.5q49 23 87 58.5t72 74.5t68.5 75t79.5 58q4 14 11.5 26.5t7.5 24.5q0 15 -8 25q-33 -2 -54.5 -18.5t-40 -39t-38 -44t-48.5 -31.5q-18 -16 -37.5 -40t-40 -47.5t-43 -41 t-49.5 -23.5q0 6 -2 20.5t-2 24.5t8 23q0 190 8.5 350t8.5 309q0 127 7 272.5t21 268.5q-12 10 -23 17.5t-26 11.5q-49 -49 -89 -104.5t-76.5 -112t-72.5 -113.5t-75 -109zM414 877q0 -16 12.5 -30t28.5 -22q6 -2 16 -5t21 -3q10 0 17 8.5t7 18.5q0 8 -6 22.5t-15.5 28.5 t-19.5 23.5t-18 9.5q-10 0 -26.5 -16.5t-16.5 -34.5z" />
<glyph unicode="&#xa0;" d="M-109 1495h109q55 -6 100 -6l301 18q63 0 138 -12h104v82h-104q-78 12 -140 12l-299 -16h-47q-25 0 -51 4h-111v-82zM-102 -61v-82h188q14 -2 27 -2h26h279q10 2 24.5 7t26.5 5l174 -10v82q-25 0 -59.5 1t-67.5 1t-57.5 1t-30.5 1h-37l-301 -19l-90 15h-102zM102 1319 q0 -18 9.5 -32.5t24 -28t28.5 -27t26 -31.5q2 -2 11 -6q16 -10 36.5 -20.5t43.5 -10.5q25 0 45 23q-18 55 -42 102t-51 98q-8 23 -32 23q-16 0 -26.5 -9t-21 -21.5t-21.5 -22.5t-26 -13q-4 -16 -4 -24zM113 219q0 -23 8 -54.5t22.5 -60t35 -49t46.5 -20.5q20 0 39 10 q-8 18 -8 45q0 41 15.5 84t15.5 84q0 23 -9 45.5t-38 38.5q-18 -10 -41 -21.5t-41.5 -24.5t-31.5 -31.5t-13 -45.5zM131 809q0 -18 3 -46t12.5 -53.5t26.5 -44t48 -18.5q27 0 47.5 19.5t34.5 46t21.5 53.5t9.5 41q-33 29 -62.5 61.5t-64.5 32.5q-16 0 -34.5 -10t-41.5 -37 v-45z" />
<glyph unicode="&#xa8;" horiz-adv-x="585" d="M-102 -61v-82h102q39 6 74 6l114 -6q18 0 39 2t45 8q37 -12 68 -17.5t59 -5.5q25 0 49.5 3t55.5 8l12 2h102v82h-102q-29 -6 -54.5 -8.5t-49.5 -2.5q-37 0 -74 6.5t-80 16.5q-49 -12 -84 -12l-108 6q-29 0 -66 -6h-102zM-102 1495h102q23 4 43 4q23 0 45 2l201 -10 q16 0 32.5 1t32.5 3h15q29 0 49 3t43 3q20 0 55 -6h102v82h-102q-98 0 -177 -3t-161 -3q-80 0 -178 6h-102v-82zM0 109q0 -39 16.5 -74t57.5 -35q4 37 35.5 64.5t76.5 50t96.5 44t95.5 43t72.5 46t28.5 57.5q0 23 -18 45q-35 -10 -65.5 -32.5t-59.5 -51.5 q-53 -33 -107.5 -67.5t-113.5 -61.5q-14 8 -15 21q0 8 4.5 17t4.5 20q0 14 -9.5 24t-9.5 23q0 16 11.5 37.5t11.5 42.5q0 18 -15 34q20 33 54 58.5t71 45t74 38t68 41.5q14 18 34.5 25t39 14.5t31.5 20.5t13 42q0 16 -14 21q-51 -10 -95 -35t-85 -54.5t-84 -58.5t-90 -45 q-12 61 -13 125q0 20 2 55t5.5 76t6.5 84t3 80q0 35 -2 66.5t-11 64.5q2 27 7.5 53.5t5.5 52.5q0 35 -15 62q4 12 8.5 47t4.5 74q0 41 -7.5 73.5t-25.5 32.5q-14 0 -28.5 -11t-28.5 -15q6 -92 8 -184.5t2 -184.5q0 -164 -6 -316.5t-12.5 -276.5t-12.5 -208t-6 -110z M229 1186q0 -16 2 -28.5t11 -22.5q12 4 16 4q16 0 33.5 -9.5t27.5 -9.5q13 0 23 8v27q-12 23 -29.5 38t-38.5 15q-23 0 -45 -22zM233 854q0 -16 27 -34.5t41 -18.5q18 0 33 14q0 25 -13.5 50.5t-35.5 25.5q-8 0 -30 -9.5t-22 -27.5z" />
<glyph unicode="&#xad;" d="M-109 1495h109q55 -6 100 -6l301 18q63 0 138 -12h104v82h-104q-78 12 -140 12l-299 -16h-47q-25 0 -51 4h-111v-82zM-102 -61v-82h188q14 -2 27 -2h26h279q10 2 24.5 7t26.5 5l174 -10v82q-25 0 -59.5 1t-67.5 1t-57.5 1t-30.5 1h-37l-301 -19l-90 15h-102zM102 1319 q0 -18 9.5 -32.5t24 -28t28.5 -27t26 -31.5q2 -2 11 -6q16 -10 36.5 -20.5t43.5 -10.5q25 0 45 23q-18 55 -42 102t-51 98q-8 23 -32 23q-16 0 -26.5 -9t-21 -21.5t-21.5 -22.5t-26 -13q-4 -16 -4 -24zM113 219q0 -23 8 -54.5t22.5 -60t35 -49t46.5 -20.5q20 0 39 10 q-8 18 -8 45q0 41 15.5 84t15.5 84q0 23 -9 45.5t-38 38.5q-18 -10 -41 -21.5t-41.5 -24.5t-31.5 -31.5t-13 -45.5zM131 809q0 -18 3 -46t12.5 -53.5t26.5 -44t48 -18.5q27 0 47.5 19.5t34.5 46t21.5 53.5t9.5 41q-33 29 -62.5 61.5t-64.5 32.5q-16 0 -34.5 -10t-41.5 -37 v-45z" />
<glyph unicode="&#xb8;" horiz-adv-x="585" d="M-102 -61v-82h102q39 6 74 6l114 -6q18 0 39 2t45 8q37 -12 68 -17.5t59 -5.5q25 0 49.5 3t55.5 8l12 2h102v82h-102q-29 -6 -54.5 -8.5t-49.5 -2.5q-37 0 -74 6.5t-80 16.5q-49 -12 -84 -12l-108 6q-29 0 -66 -6h-102zM-102 1495h102q23 4 43 4q23 0 45 2l201 -10 q16 0 32.5 1t32.5 3h15q29 0 49 3t43 3q20 0 55 -6h102v82h-102q-98 0 -177 -3t-161 -3q-80 0 -178 6h-102v-82zM0 109q0 -39 16.5 -74t57.5 -35q4 37 35.5 64.5t76.5 50t96.5 44t95.5 43t72.5 46t28.5 57.5q0 23 -18 45q-35 -10 -65.5 -32.5t-59.5 -51.5 q-53 -33 -107.5 -67.5t-113.5 -61.5q-14 8 -15 21q0 8 4.5 17t4.5 20q0 14 -9.5 24t-9.5 23q0 16 11.5 37.5t11.5 42.5q0 18 -15 34q20 33 54 58.5t71 45t74 38t68 41.5q14 18 34.5 25t39 14.5t31.5 20.5t13 42q0 16 -14 21q-51 -10 -95 -35t-85 -54.5t-84 -58.5t-90 -45 q-12 61 -13 125q0 20 2 55t5.5 76t6.5 84t3 80q0 35 -2 66.5t-11 64.5q2 27 7.5 53.5t5.5 52.5q0 35 -15 62q4 12 8.5 47t4.5 74q0 41 -7.5 73.5t-25.5 32.5q-14 0 -28.5 -11t-28.5 -15q6 -92 8 -184.5t2 -184.5q0 -164 -6 -316.5t-12.5 -276.5t-12.5 -208t-6 -110z M229 1186q0 -16 2 -28.5t11 -22.5q12 4 16 4q16 0 33.5 -9.5t27.5 -9.5q13 0 23 8v27q-12 23 -29.5 38t-38.5 15q-23 0 -45 -22zM233 854q0 -16 27 -34.5t41 -18.5q18 0 33 14q0 25 -13.5 50.5t-35.5 25.5q-8 0 -30 -9.5t-22 -27.5z" />
<glyph unicode="&#xc0;" horiz-adv-x="503" d="M-102 -61v-82h114q55 0 98.5 4t79 8t67.5 8t69 4q35 0 77.5 -5t100.5 -19h102v82h-102q-53 4 -94 4h-76t-64.5 -1t-60.5 -1t-65.5 -1t-80.5 -1h-165zM-102 1495h102q16 -2 29 -2h26q41 0 71 3t54.5 7t46 7t45.5 3q31 0 71 -7t99 -25q2 0 5.5 -1t7.5 -1q14 0 29.5 4 t19.5 12h102v82h-102q-6 -8 -24.5 -12t-22.5 -13h-35q-68 20 -108 27.5t-70 7.5q-39 0 -75 -6t-101 -6h-33q-14 0 -35 2h-102v-82zM0 123q0 -39 15.5 -74t58.5 -35q31 0 30 52q0 18 -3 33.5t-15 31.5q4 109 9 213.5t5 194.5q18 29 40 65.5t46.5 69.5t55 55.5t69.5 24.5 q14 -47 19.5 -91.5t5.5 -87.5q0 -98 -15.5 -191t-15.5 -194q0 -29 2 -57.5t6 -58.5q12 -10 31 -11q31 0 55 29v1237l2 33q0 45 -39 45q-22 -1 -45 -21q-37 -59 -73.5 -125.5t-74.5 -128t-76 -114.5t-77 -88q6 -55 8.5 -107.5t2.5 -105.5q0 -156 -13.5 -300.5t-13.5 -293.5z M113 829q0 63 17 121t58 105q2 18 11.5 30.5t20.5 22.5t22.5 21.5t15.5 29.5l39 25q16 -47 16 -111q0 -41 -4 -81t-8 -77l-176 -198q-12 55 -12 112z" />
<glyph unicode="&#xc1;" horiz-adv-x="536" d="M-102 -61v-82h102q39 6 74 6l114 -6q18 0 39 2t45 8q37 -12 68 -17.5t59 -5.5q25 0 49.5 3t55.5 8l12 2h102v82h-102q-29 -6 -54.5 -8.5t-49.5 -2.5q-37 0 -74 6.5t-80 16.5q-49 -12 -84 -12l-108 6q-29 0 -66 -6h-102zM-102 1495h102q23 4 43 4q23 0 45 2l201 -10 q16 0 32.5 1t32.5 3h15q29 0 49 3t43 3q20 0 55 -6h102v82h-102q-98 0 -177 -3t-161 -3q-80 0 -178 6h-102v-82zM0 221q0 -59 10 -119.5t41 -101.5q16 14 50 35.5t77 50.5t88 60.5t83 64.5t61.5 66.5t23.5 64.5l-227 287q-55 29 -74.5 67.5t-19.5 85.5q0 12 4 38t9 56.5 t9 63.5t4 59q0 25 -6 50q-29 39 -29 79q0 16 6.5 45t6.5 54q0 23 -6 45q18 12 36 12q27 0 54.5 -19.5t54.5 -44t51.5 -44t46.5 -19.5q20 0 39 25q-18 51 -55 89t-82 66.5t-94 51t-92 45.5q-25 -6 -35 -24.5t-10 -43.5q0 -72 8 -151.5t8 -165.5q0 -129 -6 -259.5t-14.5 -243 t-14.5 -198.5t-6 -127zM106 170v37q0 61 15.5 121.5t15.5 126.5q0 41 -8 75q31 -16 54.5 -39.5t45 -49t42 -52.5t42.5 -51q-14 -35 -35.5 -59.5t-47 -48t-52 -46t-49.5 -51.5h-18q-4 18 -5 37z" />
<glyph unicode="&#xc2;" horiz-adv-x="612" d="M-102 -61v-82h102q16 -2 25 -2h18l4 -5q23 -4 47.5 -6t46.5 -2q72 0 140.5 11.5t132.5 15.5q37 -10 58.5 -14.5t37.5 -4.5l102 7h103v82h-103q-10 -2 -18 -2h-14q-43 -6 -62 -7q-16 0 -32.5 4.5t-47.5 12.5q-4 2 -8 2t-8 2h-8q-59 0 -121 -13.5t-127 -13.5q-59 0 -121 21 q-10 2 -14 2t-8 2v-2q0 -4 -23 -8h-102zM-102 1495h102q8 4 14 6t13 4q31 10 34 11q10 0 20.5 -8.5t51.5 -22.5q47 4 89 6t83 2h252h27q14 0 28 2h103v82h-129l-99 -12h-14q-43 0 -126 10t-206 27q-41 0 -71.5 -6.5t-69.5 -18.5h-102v-82zM0 1315q0 -115 10 -231.5 t22.5 -234.5t23 -236.5t10.5 -237.5q0 -86 -7.5 -170t-23.5 -170q10 -8 19 -17.5t24 -9.5q6 0 8 5t3 12.5t4 12.5t9 5q8 0 24.5 -5t20.5 -5q10 0 18.5 4t14.5 20q18 39 45 71t57.5 58.5t63.5 52t64 54.5q4 25 20 35t32.5 19t31 21.5t16.5 37.5q-70 63 -145 134.5t-134 149.5 q6 23 30 37t44 23q8 25 27.5 45t40 40.5t40 42t29.5 48.5q-92 121 -178 253t-184 255q-49 -4 -64.5 -38t-15.5 -81zM133 1169q49 -63 103.5 -129.5t107.5 -132.5q-33 -51 -83 -88t-87 -78q-16 96 -27.5 213t-13.5 215zM141 297q0 66 5.5 131.5t19.5 124.5q31 -8 55.5 -29.5 t49 -47t50 -50.5t56.5 -39q-57 -59 -116 -116.5t-114 -123.5q-6 70 -6 150z" />
<glyph unicode="&#xc3;" horiz-adv-x="493" d="M-102 -61v-82h102q39 6 74 6l114 -6q18 0 39 2t45 8q37 -12 68 -17.5t59 -5.5q25 0 49.5 3t55.5 8l12 2h102v82h-102q-29 -6 -54.5 -8.5t-49.5 -2.5q-37 0 -74 6.5t-80 16.5q-49 -12 -84 -12l-108 6q-29 0 -66 -6h-102zM-102 1495h102q23 4 43 4q23 0 45 2l201 -10 q16 0 32.5 1t32.5 3h15q29 0 49 3t43 3q20 0 55 -6h102v82h-102q-98 0 -177 -3t-161 -3q-80 0 -178 6h-102v-82zM0 125q0 -41 9 -76t50 -49q18 12 24.5 26.5t6.5 28.5q0 16 -4 33.5t-4 36.5q0 10 1 18.5t5 18.5q2 39 6 73.5t4 69.5q0 18 -2 36.5t-8 35.5q23 154 18.5 301 t6.5 301q-10 51 -11 102q0 35 7.5 62.5t25.5 44.5q35 -45 60.5 -79t42 -61.5t24.5 -54t10 -55.5q16 -37 42 -63.5t69 -26.5q8 16 8 35q0 37 -24.5 70.5t-38.5 66.5q-31 51 -55.5 108.5t-50 113.5t-58.5 105.5t-80 86.5q-27 -4 -36 -22.5t-19 -37.5q8 -66 10 -145.5t2 -167.5 q0 -147 -6 -304t-14.5 -290t-14.5 -227.5t-6 -114.5zM203 496q8 -23 25.5 -32t35.5 -9q16 0 26.5 6t12.5 22q-8 20 -24.5 31.5t-32.5 11.5q-29 1 -43 -30z" />
<glyph unicode="&#xc4;" horiz-adv-x="520" d="M-102 -61v-82h102q33 4 49.5 10t24.5 12q6 0 8 -2q47 -8 83 -13t66.5 -8t59 -5.5t59.5 -2.5q35 0 76 2.5t94 6.5h103v82h-103q-45 -4 -79.5 -6.5t-63.5 -2.5q-35 0 -64.5 2t-62.5 5.5t-73 8.5t-95 9q-16 -6 -42 -7t-40 -9h-102zM-102 1495h102q16 4 31.5 5t29.5 1 q45 0 81 -10t77 -10q23 0 46.5 5t51.5 19h7q47 0 76.5 -9t64.5 -9q29 0 55 8h103v82h-103q-23 -8 -43 -10t-39 -2h-80l-18 16q-6 4 -23 4q-14 0 -18 -2q-27 -16 -60.5 -22.5t-62.5 -6.5q-51 0 -94 11.5t-82 11.5h-102v-82zM0 111q0 -14 2 -33t9 -35t19.5 -27.5t30.5 -11.5 t33 14q-12 51 -12 105q0 109 51 192q0 20 9.5 37t21.5 31t25.5 29.5t23.5 36.5q29 12 44 30.5t44 34.5q8 20 25.5 38.5t36 36t34 37t21.5 44.5q-37 59 -86 120.5t-88 114.5q-78 49 -97.5 114.5t-19.5 139.5v213q0 18 -7 39t-30 23q-29 -10 -38 -34t-11 -52q6 -59 8 -129 t2 -146q0 -156 -8 -321.5t-17.5 -305t-17.5 -232.5t-8 -103zM119 545q0 76 11 154.5t15 144.5q29 -14 51.5 -38t42 -50.5t37 -53t37.5 -45.5l-8 -30l-178 -178q-4 23 -6 47t-2 49z" />
<glyph unicode="&#xc5;" horiz-adv-x="555" d="M-102 -61v-82h102q39 6 74 6l114 -6q18 0 39 2t45 8q37 -12 68 -17.5t59 -5.5q25 0 49.5 3t55.5 8l12 2h102v82h-102q-29 -6 -54.5 -8.5t-49.5 -2.5q-37 0 -74 6.5t-80 16.5q-49 -12 -84 -12l-108 6q-29 0 -66 -6h-102zM-102 1495h102q23 4 43 4q23 0 45 2l201 -10 q16 0 32.5 1t32.5 3h15q29 0 49 3t43 3q20 0 55 -6h102v82h-102q-98 0 -177 -3t-161 -3q-80 0 -178 6h-102v-82zM0 1268q10 -63 17.5 -137t11.5 -154t5 -162t1 -158q0 -82 -1 -155.5t-3 -131t-3 -95t-1 -48.5q0 -4 -3.5 -21.5t-7.5 -39t-7 -44t-3 -38.5q0 -31 6 -54.5 t25 -23.5q29 0 53.5 15.5t47 37t46 46t52.5 40.5q23 37 55.5 61.5t65 49.5t59 54.5t37.5 72.5q-2 27 -29 27q-27 -1 -31 -11q-25 -41 -58.5 -73.5t-71.5 -63.5t-75.5 -60.5t-72.5 -62.5q-23 96 -23 168t23 156q23 25 56.5 37t51.5 47q23 6 40.5 20.5t33.5 29.5t32.5 28.5 t39 17.5t41 29.5t18.5 46.5q0 25 -31 24q-14 0 -27.5 -8t-27.5 -18t-27.5 -20.5t-25.5 -14.5q-49 -35 -83 -76t-87 -59q-10 23 -14.5 46t-4.5 46q0 33 4.5 64.5t4.5 60.5q4 49 7 101.5t3 105.5q0 104 -9.5 211.5t-27.5 212.5q-16 8 -33 8q-20 0 -29.5 -15.5t-12.5 -37 t-4 -44t-3 -38.5zM186 1032q4 -20 14.5 -31.5t23 -17.5t28 -11.5t27.5 -13.5q12 6 21 11.5t11 21.5l-49 92q-27 0 -44 -17t-32 -34z" />
<glyph unicode="&#xc6;" horiz-adv-x="1036" d="M-102 -61v-82h102q72 10 138.5 14t133.5 8l711 -31q12 2 25.5 3.5t27.5 5.5h103v82h-103q-43 0 -74.5 -4.5t-64.5 -4.5h-35q-14 0 -28.5 1t-30.5 8h-606q-43 12 -86 12q-29 0 -55.5 -4t-55.5 -8h-102zM-102 1495h102q104 4 196.5 12.5t186.5 8.5q53 0 106.5 -3.5 t110.5 -11.5q43 -6 82 -6l236 14q61 0 118 -14h103v82h-899q-49 14 -105 14q-33 0 -66.5 -4t-68.5 -10h-102v-82zM0 1362q0 -23 12.5 -44.5t28.5 -41t31.5 -39.5t23.5 -41q49 -49 82 -106.5t63.5 -116t67.5 -113.5t94 -100q4 -29 5.5 -60.5t1.5 -58.5q0 -37 -9.5 -70.5 t-25.5 -58.5q-80 -100 -162 -196.5t-154 -200.5q-2 -14 -7 -26.5t-5 -25.5q0 -12 8 -21t25 -9q31 0 41 16.5t15 39t12.5 43t29.5 30.5q18 18 36.5 41.5t38 45t43 37t54.5 19.5q8 -35 9 -79t1 -85q0 -33 4.5 -62.5t20.5 -55.5q8 -4 18.5 -9.5t20.5 -5.5q18 0 27 15l18 421 q4 23 20 23q8 0 13 -2q35 -31 63.5 -67t55 -71.5t54 -70.5t58.5 -63q33 -39 71 -75t85 -36q8 0 8 14t-8 37t-25 47q-80 123 -166.5 237.5t-203.5 198.5q-14 20 -15 46q0 12 3 26t3 19q23 45 52.5 84.5t58.5 79.5t54.5 82t41.5 89q18 23 31.5 42.5t28.5 39.5q25 20 42 47 t31.5 55.5t29.5 55.5t38 49q4 12 22.5 29.5t18.5 34.5q0 12 -23 24q-8 -10 -22 -10h-8q-102 -123 -197.5 -257t-173.5 -273h-12l-4 67q10 98 19 181t9 188q0 35 -6 61.5t-29 26.5q-16 0 -31.5 -9.5t-29.5 -21.5q-10 -115 -16.5 -228.5t-6.5 -225.5l-12 -31q-23 18 -45 65 t-47 106.5t-50.5 125t-55 119t-62.5 88t-72 34.5q-25 0 -42 -20.5t-17 -42.5zM737 723q0 -23 24.5 -47.5t41.5 -24.5q4 0 8 4l6 17q2 12 6 34.5t4 41.5q0 35 -22 34q-20 0 -44 -18.5t-24 -40.5z" />
<glyph unicode="&#xc7;" horiz-adv-x="438" d="M-102 -61v-82h102q39 6 74 6l114 -6q18 0 39 2t45 8q37 -12 68 -17.5t59 -5.5q25 0 49.5 3t55.5 8l12 2h102v82h-102q-29 -6 -54.5 -8.5t-49.5 -2.5q-37 0 -74 6.5t-80 16.5q-49 -12 -84 -12l-108 6q-29 0 -66 -6h-102zM-102 1495h102q23 4 43 4q23 0 45 2l201 -10 q16 0 32.5 1t32.5 3h15q29 0 49 3t43 3q20 0 55 -6h102v82h-102q-98 0 -177 -3t-161 -3q-80 0 -178 6h-102v-82zM0 1376q12 -59 36.5 -111.5t55.5 -103.5t60.5 -102t50.5 -107l-187 -202l-4 -35q20 -35 51 -59.5t64 -48t60.5 -52.5t43.5 -68q-16 -61 -50 -111t-69.5 -100.5 t-62 -105.5t-26.5 -125q0 -39 34 -39q8 0 15.5 4t13.5 8q8 14 24.5 32t16.5 40q0 31 16.5 69t39 76.5t46 74.5t39.5 63q2 20 13.5 38.5t23.5 37t21.5 38t9.5 43.5q-47 61 -103.5 109.5t-105.5 110.5q41 51 86 94t94 86v39l-252 454q-20 0 -36.5 -12t-18.5 -35z" />
<glyph unicode="&#xc8;" horiz-adv-x="626" d="M-102 -61v-82h102q80 4 142.5 6t117.5 2q41 0 93.5 -1t103.5 -3t96 -3t74 -1h102v82h-102q-68 0 -121 2t-101.5 3t-92.5 3t-91 2t-101 -2t-120 -8h-102zM-102 1495h102q33 -4 63 -4h60q92 0 171 7t167 7q39 0 79 -2t87 -8h102v82h-102q-43 6 -83 7t-75 5l-365 -20 q-25 0 -56.5 4t-47.5 4h-102v-82zM0 156q0 -51 15.5 -92t62.5 -56q0 6 6 11.5t10 9.5q-10 59 -14 128.5t-4 141.5q0 90 5 180t10 168t10 136.5t5 84.5q16 8 26.5 25.5t18 36t11.5 34t8 21.5q59 43 100 99.5t90 109.5q14 2 26.5 12.5t25.5 10.5q8 0 18 -13q4 -66 7 -138.5 t3 -150.5q0 -127 -5 -256t-10 -243.5t-10 -206.5t-5 -143q12 -6 17 -15.5t7 -20t7 -19.5t18 -11q20 8 23 25.5t14 31.5q12 324 13 641.5t15 634.5q-2 29 -13 51.5t-28 22.5q-23 0 -41 -13.5t-32 -31.5q-66 -102 -142.5 -185.5t-148.5 -175.5l-27 408q-14 0 -30.5 -12.5 t-24.5 -22.5q4 -47 4 -100v-111q0 -152 -6 -315.5t-14.5 -307t-14.5 -248t-6 -136.5z" />
<glyph unicode="&#xc9;" horiz-adv-x="641" d="M-102 -61v-82h102q39 6 74 6l114 -6q18 0 39 2t45 8q37 -12 68 -17.5t59 -5.5q25 0 49.5 3t55.5 8l12 2h102v82h-102q-29 -6 -54.5 -8.5t-49.5 -2.5q-37 0 -74 6.5t-80 16.5q-49 -12 -84 -12l-108 6q-29 0 -66 -6h-102zM-102 1495h102q23 4 43 4q23 0 45 2l201 -10 q16 0 32.5 1t32.5 3h15q29 0 49 3t43 3q20 0 55 -6h102v82h-102q-98 0 -177 -3t-161 -3q-80 0 -178 6h-102v-82zM0 72q0 -16 12.5 -35t30.5 -19q16 0 30.5 11.5t30.5 13.5q-4 63 -7 121.5t-3 118.5q0 35 1 70.5t3 70.5q10 49 36 92t56.5 85t62.5 82t54 83q12 0 22.5 7 t19.5 15.5t18.5 15.5t21.5 7t23 -8q0 -20 6 -71.5t6 -110.5q0 -37 -4 -72t-17 -64q12 -37 13 -75q0 -27 -4 -60t-8.5 -63.5t-8.5 -56t-4 -40.5q0 -10 3 -32.5t9.5 -45t18.5 -40t31 -17.5q14 0 23 29t14.5 67.5t7.5 77.5t2 60q0 113 -9.5 245t-9.5 267q0 59 3 118.5t12 116.5 l26 189q0 2 -1 19.5t-3 43t-2 41.5q0 41 23 66q-2 35 -31 35q-10 0 -31 -9q-55 -53 -97 -112.5t-80 -119t-77 -116.5t-90 -108l-14 430q-20 10 -41 10q-23 0 -32 -17.5t-9 -39.5q0 -41 -2 -114t-5 -166t-6.5 -200.5t-6.5 -218t-5 -217t-2 -196.5q0 -8 -2 -31t-3 -49.5 t-3 -50t-2 -33.5zM111 637l12 203q37 23 62.5 60.5t47.5 78.5q27 14 42.5 41t29.5 51.5t32.5 43t53.5 18.5q16 -23 19.5 -32t3.5 -16q0 -70 -34 -127t-80 -109t-95 -101.5t-78 -104.5z" />
<glyph unicode="&#xca;" horiz-adv-x="626" d="M-102 -61v-82h102q23 -4 41 -7.5t37 -3.5q53 0 99 12.5t97 12.5q23 0 47.5 -4t53.5 -14h354v86h-102q-61 0 -110.5 -3.5t-96.5 -3.5q-41 0 -84 4.5t-96 18.5q-55 -4 -91 -14.5t-79 -10.5q-35 0 -70 9h-102zM-102 1495h102q49 12 93 16.5t85 4.5q61 0 121.5 -8.5 t128.5 -20.5l49 -8q25 8 42.5 11t31.5 3h33q16 0 43 2h102v82h-102q-12 2 -23 2h-20q-45 0 -79 -6t-75 -6q-37 0 -76 8q-53 10 -95 14t-83 4t-82 -4t-94 -12h-102v-82zM0 1372q16 -111 21.5 -218t5.5 -216q0 -195 -10.5 -391.5t-12.5 -409.5q0 -16 4 -35.5t14.5 -36 t25.5 -28.5t38 -12t35 12q0 27 -3 59.5t-8.5 64.5t-8.5 59.5t-3 45.5q0 47 17 96q20 -4 32.5 -19t24.5 -31.5t25.5 -32t38.5 -17.5q47 -66 101 -129t107 -115q14 -8 37 -8q12 0 24.5 3t18.5 12q-2 53 -24.5 93t-54 74.5t-66.5 69.5t-60 78q-27 20 -50 45t-47.5 47.5 t-52.5 39.5t-60 24q0 78 -2.5 163.5t-6.5 169.5q12 10 21.5 20.5t21.5 10.5q27 59 63 110.5t73.5 102.5t75.5 103.5t69 113.5q16 12 35.5 39t23.5 57q-8 4 -12 11.5t-10 7.5t-10 -4q-59 -43 -104.5 -95.5t-84.5 -108.5t-78 -115.5t-88 -114.5v401q-4 23 -17 35t-30 12 q-16 0 -29.5 -10t-19.5 -33zM293 707q0 -16 13 -21.5t28 -5.5q12 0 24.5 -1t22.5 -7q16 0 20.5 13t14.5 24q-23 37 -74 36q-10 -10 -29.5 -15t-19.5 -23z" />
<glyph unicode="&#xcb;" horiz-adv-x="495" d="M-102 -61v-82h102q39 6 74 6l114 -6q18 0 39 2t45 8q37 -12 68 -17.5t59 -5.5q25 0 49.5 3t55.5 8l12 2h102v82h-102q-29 -6 -54.5 -8.5t-49.5 -2.5q-37 0 -74 6.5t-80 16.5q-49 -12 -84 -12l-108 6q-29 0 -66 -6h-102zM-102 1495h102q23 4 43 4q23 0 45 2l201 -10 q16 0 32.5 1t32.5 3h15q29 0 49 3t43 3q20 0 55 -6h102v82h-102q-98 0 -177 -3t-161 -3q-80 0 -178 6h-102v-82zM0 244q0 -66 5 -127.5t18 -116.5l47 2q23 10 22 29q0 14 -12 26q4 242 10 473.5t12 479.5l125 170q16 41 56 41q16 0 34 -13q6 -72 7 -153q0 -39 -4.5 -121 t-10.5 -182.5t-10 -204t-4 -185.5t6 -154.5t23 -131.5l49 -25q18 0 18 15q-10 319 -10 630t-4 641q0 18 8 35t8 33q0 18 -26 29q-96 -104 -186.5 -220t-168.5 -239q8 -39 11.5 -83t3.5 -91q0 -129 -13.5 -273.5t-13.5 -283.5z" />
<glyph unicode="&#xcc;" horiz-adv-x="843" d="M-102 -61v-82h102q96 8 181 11t167 3q59 0 128 -2t136.5 -5t128 -5t103.5 -2h102v82h-102q-158 0 -289 5t-266 5q-68 0 -139.5 -2t-149.5 -8h-102zM-102 1495h102q141 0 255 11.5t232 11.5q57 0 117 -5.5t125 -15.5h57h23q12 0 35 -2h102v82h-1048v-82zM0 1360 q16 -125 21.5 -282.5t5.5 -317.5q0 -123 -2 -237.5t-5.5 -208t-5.5 -157t-2 -83.5l105 -49q-16 102 -22.5 248.5t-6.5 301.5q0 98 2 194.5t3 180.5t3 150.5t2 107.5q57 -45 102.5 -96t104.5 -86q16 -88 22.5 -179t6.5 -188q0 -37 -3 -107.5t-6 -153.5t-5.5 -171t-2.5 -159 q12 -18 30 -26.5t36 -8.5q16 0 33 6q-6 233 -9.5 479t-15.5 494l47 18q0 31 14.5 60.5t36 57.5t47 54.5t50.5 48.5q4 2 10 4t12 2q12 0 21 -14q16 -154 21 -296t5 -283q0 -135 -3 -268.5t-5 -270.5q23 -16 37 -39t47 -23q4 123 7 246t3 252q0 211 -7 419t-21 411 q-12 25 -33 24q-4 0 -10 -2t-11 -4q-72 -66 -136 -139.5t-128 -122.5l8 219q-8 23 -26 23t-34.5 -25t-16.5 -51q-10 -57 -11 -109q0 -49 -16 -96q-31 43 -55.5 93t-52 96t-63.5 83t-89 54z" />
<glyph unicode="&#xcd;" horiz-adv-x="620" d="M-102 -61v-82h102q39 6 74 6l114 -6q18 0 39 2t45 8q37 -12 68 -17.5t59 -5.5q25 0 49.5 3t55.5 8l12 2h102v82h-102q-29 -6 -54.5 -8.5t-49.5 -2.5q-37 0 -74 6.5t-80 16.5q-49 -12 -84 -12l-108 6q-29 0 -66 -6h-102zM-102 1495h102q23 4 43 4q23 0 45 2l201 -10 q16 0 32.5 1t32.5 3h15q29 0 49 3t43 3q20 0 55 -6h102v82h-102q-98 0 -177 -3t-161 -3q-80 0 -178 6h-102v-82zM0 1309q0 -39 9 -76t9 -66q0 -16 -2 -38.5t-2 -45.5q0 -55 4.5 -123.5t8.5 -136t9 -125t5 -90.5q-4 -66 -8 -141.5t-4 -144.5q4 -16 11 -41t7 -41 q0 -35 -9 -62.5t-9 -60.5q0 -35 12 -64.5t49 -52.5q23 29 30 83t7 110q0 49 -3 91t-3 60v340q0 16 -4 56t-4 81q0 27 3 49.5t11 36.5q82 -45 156.5 -108.5t128.5 -151.5q2 -20 3 -40.5t1 -43.5q0 -20 -2 -59t-5 -85t-5.5 -94.5t-2.5 -86.5q0 -47 5.5 -92.5t17.5 -84.5 q29 -35 42 -43t23 -8q18 0 29 13q-2 104 -6 223t-9 231.5t-9.5 203.5t-4.5 140q0 39 4.5 102.5t8.5 137.5t9 151.5t5 143.5q-2 25 -11 47t-36 22q-10 0 -14 -2q-29 -41 -38 -107.5t-9 -125.5q0 -47 2 -82t2 -47q-61 63 -106.5 118.5t-84.5 100.5t-75.5 81t-82.5 62 q-37 -18 -50 -49t-13 -65zM109 1036q6 35 4 79t8 87q39 -6 62.5 -28.5t44 -51t44 -54.5t60.5 -38q6 -23 31.5 -38t39.5 -36l13 -149q-29 23 -54.5 57.5t-56.5 61.5q-23 10 -48.5 28.5l-51 37t-51 31.5t-45.5 13z" />
<glyph unicode="&#xce;" horiz-adv-x="710" d="M-102 -61v-82h364q78 -4 138.5 -8.5t119.5 -4.5q43 0 89 2t102 11h102v82h-102q-66 -6 -119 -10.5t-107 -4.5q-47 0 -94 3t-106 12q-47 -2 -91 -10.5t-92 -8.5q-25 0 -49 4t-53 15h-102zM-102 1495h247q82 0 177.5 5t191.5 5q45 0 93 -3t104 -7h102v82h-102 q-63 6 -117.5 8t-101.5 2q-51 0 -98.5 -2t-94.5 -4t-98 -4t-109 -2h-194v-80zM0 737q70 -100 122 -203.5t120 -201.5q-45 -76 -71 -159t-44 -157q10 -10 20.5 -13t22.5 -3q39 20 52.5 68.5t17.5 93.5q18 51 32.5 70.5t30.5 19.5q18 0 37.5 -24.5t41 -53.5t46.5 -53.5 t55 -24.5l35 49q-23 35 -51.5 68t-54 66.5t-45 68.5t-23.5 76q59 92 122.5 198.5t141.5 198.5q0 16 -8 32.5t-19.5 34t-20.5 34t-9 34.5q-18 63 -50 120t-65 114t-60.5 116.5t-37.5 127.5h-62q-84 -168 -159.5 -340t-116.5 -357zM96 786q0 63 24.5 124t55.5 119t59.5 116.5 t38.5 122.5q57 -106 122 -214t112 -225q-18 -49 -48 -93t-60.5 -89t-58.5 -89t-44 -93l-18 6z" />
<glyph unicode="&#xcf;" horiz-adv-x="499" d="M-102 -61v-82h102q39 6 74 6l114 -6q18 0 39 2t45 8q37 -12 68 -17.5t59 -5.5q25 0 49.5 3t55.5 8l12 2h102v82h-102q-29 -6 -54.5 -8.5t-49.5 -2.5q-37 0 -74 6.5t-80 16.5q-49 -12 -84 -12l-108 6q-29 0 -66 -6h-102zM-102 1495h102q23 4 43 4q23 0 45 2l201 -10 q16 0 32.5 1t32.5 3h15q29 0 49 3t43 3q20 0 55 -6h102v82h-102q-98 0 -177 -3t-161 -3q-80 0 -178 6h-102v-82zM0 51q0 -23 14.5 -34t34.5 -17q35 74 45 156t10 168q0 18 -1 52t-2 73.5t-2 82.5t-1 78q0 63 5.5 123t21.5 117v321q4 6 11 13.5t14 7.5q23 0 41 -26.5 t35.5 -60.5t36 -67.5t40.5 -48.5q10 -18 13 -53t3 -82q0 -59 -4 -134t-10 -154t-10 -157.5t-4 -146.5q0 -90 11 -150.5t44 -70.5q16 0 23 18q-4 59 -6.5 120t-2.5 124q0 162 10.5 332t26.5 334l-272 444q-16 14 -39 14t-37 -14v-461q-16 -66 -20 -139.5t-4 -150.5 q0 -106 5 -211t5 -191q0 -70 -10.5 -124t-24.5 -85z" />
<glyph unicode="&#xd0;" horiz-adv-x="487" d="M-102 -61v-82h692v82h-103q-55 -4 -97 -7.5t-74.5 -5.5t-60.5 -4t-54 -2q-39 0 -84 4t-117 15h-102zM-102 1495h133q59 0 98 3t67.5 7t54 7.5t56.5 3.5t73 -5.5t107 -15.5h103v82h-692v-82zM0 578q0 -41 2 -90.5t4 -95.5t4 -84t2 -56q0 -10 1 -31.5t3 -46t3 -45t1 -27.5 q0 -43 15 -71q10 -4 20.5 -11.5t20.5 -7.5t20 13q-8 80 -11 188.5t-3 204.5q0 68 1 123t3 84q27 23 46.5 50t36.5 56t37.5 55.5t51.5 47.5q16 27 37.5 46t42 39.5t34 46t13.5 66.5q-57 78 -119.5 160t-132.5 143q-12 2 -22.5 11.5t-17.5 19.5t-15 19.5t-17 9.5 q-18 0 -29.5 -29t-17.5 -66.5t-7 -74.5t-1 -51q0 -49 3 -109.5t6 -117t6.5 -102.5t3.5 -71q-14 -51 -19.5 -99t-5.5 -97zM102 846q0 14 4.5 27.5t4.5 25.5q0 78 -3.5 146.5t-5.5 140.5q31 -8 55.5 -28.5t46 -47.5t40 -55.5t39.5 -53.5q-74 -108 -168 -184q-12 12 -13 29z M211 389q0 -18 9 -27.5t21.5 -13.5t27 -7t26.5 -11q6 8 14 14t8 16q-16 12 -20 27.5t-14 32.5q-20 0 -37 -11.5t-35 -19.5z" />
<glyph unicode="&#xd1;" horiz-adv-x="528" d="M-102 -61v-82h102q39 6 74 6l114 -6q18 0 39 2t45 8q37 -12 68 -17.5t59 -5.5q25 0 49.5 3t55.5 8l12 2h102v82h-102q-29 -6 -54.5 -8.5t-49.5 -2.5q-37 0 -74 6.5t-80 16.5q-49 -12 -84 -12l-108 6q-29 0 -66 -6h-102zM-102 1495h102q23 4 43 4q23 0 45 2l201 -10 q16 0 32.5 1t32.5 3h15q29 0 49 3t43 3q20 0 55 -6h102v82h-102q-98 0 -177 -3t-161 -3q-80 0 -178 6h-102v-82zM0 715q0 -14 7 -26.5t30 -22.5q35 -82 66.5 -168t67.5 -169t79 -162t102 -147q12 -6 23 -6q16 0 28.5 14.5t18.5 30.5q-59 123 -124 244t-101 256 q-16 23 -25.5 48.5t-20 51t-24 50.5t-33.5 45q6 43 26.5 83t39.5 81q41 121 87 235.5t75 237.5q-6 18 -17 18q-10 0 -23.5 -12.5t-23.5 -14.5q-39 -66 -62.5 -137t-45 -144t-46 -144.5t-67.5 -137.5q-4 -23 -20.5 -51.5t-16.5 -52.5zM315 727q25 -14 48.5 -30.5t50.5 -26.5 q4 6 8 11t4 15q0 35 -17.5 57.5t-41.5 22.5q-16 0 -30.5 -11t-21.5 -38z" />
<glyph unicode="&#xd2;" horiz-adv-x="712" d="M-102 -61v-82h102q59 -6 108.5 -8.5t90.5 -2.5q49 0 92 2t84 5.5t86 6.5t98 3q63 0 154 -6h102v82h-917zM-102 1495h102q86 -6 154.5 -8t130.5 -2q98 0 204.5 5t223.5 5h102v82h-102q-74 0 -135.5 -1t-115.5 -3t-105.5 -3t-106.5 -1q-53 0 -114.5 2t-135.5 6h-102v-82z M0 1096q0 -16 15.5 -27.5t29.5 -11.5q25 0 39 28.5t25 51.5q12 14 26.5 35.5t30.5 41t35.5 33t42.5 15.5q16 -29 21 -61t5 -66q0 -72 -14 -149t-14 -152q0 -37 6 -70q-4 -100 -5 -190.5t-2 -175.5t-2 -169t-8 -170q14 -12 21.5 -30.5t26.5 -18.5q20 0 29 16.5t9 28.5 q0 16 -5 31.5t-5 32.5q-6 18 -8 35.5t-2 35.5t2 36t8 36v385q18 158 21.5 305.5t3.5 302.5q8 14 20 15q12 0 25.5 -11.5t29 -25.5t31 -29.5t31.5 -23.5l10 2q16 0 29.5 -9.5t26 -19.5t24.5 -19.5t29 -9.5q10 0 16 7.5t6 13.5q0 14 -13.5 31.5t-23.5 31.5q-41 23 -73.5 56.5 t-65.5 67.5t-68.5 62.5t-80.5 39.5q-23 -33 -71 -73t-95 -83t-83 -89t-36 -93zM442 942q14 -16 25.5 -32.5t34.5 -16.5q20 18 20 47q0 4 -2 11t-2 14q0 25 8 43q-2 12 -12 14t-20 2q-35 0 -43.5 -26.5t-8.5 -55.5z" />
<glyph unicode="&#xd3;" horiz-adv-x="546" d="M-102 -61v-82h102q39 6 74 6l114 -6q18 0 39 2t45 8q37 -12 68 -17.5t59 -5.5q25 0 49.5 3t55.5 8l12 2h102v82h-102q-29 -6 -54.5 -8.5t-49.5 -2.5q-37 0 -74 6.5t-80 16.5q-49 -12 -84 -12l-108 6q-29 0 -66 -6h-102zM-102 1495h102q23 4 43 4q23 0 45 2l201 -10 q16 0 32.5 1t32.5 3h15q29 0 49 3t43 3q20 0 55 -6h102v82h-102q-98 0 -177 -3t-161 -3q-80 0 -178 6h-102v-82zM0 1282q0 -35 25.5 -67.5t63.5 -65.5t83 -64.5t85 -64.5t69.5 -65.5t33.5 -65.5q4 -129 8.5 -260t4.5 -260q0 -86 -5.5 -165t-19.5 -151q14 -10 14 -28 q0 -16 17 -17q6 0 10 2q18 45 27.5 106.5t13.5 131t6 145.5t8 150q0 188 -1 371t-11 384q-4 10 -9 25.5t-13.5 29t-17.5 22.5t-19 9q-18 0 -35 -30q2 -63 18.5 -131t16.5 -133q0 -6 2 -14.5t2 -18.5q0 -20 -17 -37q-84 86 -155.5 163t-165.5 142q-14 -4 -26.5 -15.5 t-12.5 -27.5zM152 485q0 -10 6 -22q14 -6 27.5 -22.5t29.5 -16.5q10 0 15.5 9t5.5 16q0 12 -7.5 22t-7.5 25q0 6 6 16q0 12 -10 15t-20 3q-18 0 -31.5 -15t-13.5 -30z" />
<glyph unicode="&#xd4;" horiz-adv-x="845" d="M-102 -59v-84h1050v82h-102q-78 -4 -141.5 -7.5t-118.5 -3.5q-59 0 -113.5 2t-110 4.5t-116 4.5t-131.5 2h-217zM-102 1495h1050v82h-102q-74 8 -139.5 10t-126.5 2q-127 0 -244 -6t-262 -6h-176v-82zM0 1100q53 -43 112.5 -80t118.5 -88q6 -20 21.5 -30.5t33 -20 t31 -21.5t17.5 -37v-770q29 -37 57 -37q14 0 23 15v397q0 88 -2 175t-11 177q8 16 26.5 46t44.5 61t58.5 54.5t69.5 27.5q14 20 38 37.5t47.5 36t40.5 38t17 45.5q0 19 -8 35q-51 25 -96 59.5t-88 72.5t-86 75t-88 66q-57 -18 -105.5 -52t-92.5 -77t-88 -89.5t-91 -89.5v-26 zM98 1139q18 31 40 50t44.5 35.5t47 35t51.5 43.5h34q4 -12 9.5 -39t9.5 -58.5t7 -67.5t3 -67q0 -25 -6 -54t-10 -54q-59 45 -115.5 87t-114.5 89zM418 963v24q0 23 1 49.5t3 53t3 48t1 33.5q0 39 -6 76q35 -2 65.5 -30.5t67.5 -42.5q6 -8 21.5 -15.5t31 -14.5t27.5 -16.5 t12 -21.5q0 -13 -8 -23q-57 -33 -110.5 -77.5t-106.5 -67.5q-2 12 -2 25zM631 471q18 -10 38.5 -30.5t47.5 -24.5q12 10 12 18q0 10 -12 21.5t-12 25.5q0 9 4 15q-6 23 -25 22q-16 0 -32.5 -15.5t-20.5 -31.5z" />
<glyph unicode="&#xd5;" horiz-adv-x="679" d="M-102 -61v-82h102q39 6 74 6l114 -6q18 0 39 2t45 8q37 -12 68 -17.5t59 -5.5q25 0 49.5 3t55.5 8l12 2h102v82h-102q-29 -6 -54.5 -8.5t-49.5 -2.5q-37 0 -74 6.5t-80 16.5q-49 -12 -84 -12l-108 6q-29 0 -66 -6h-102zM-102 1495h102q23 4 43 4q23 0 45 2l201 -10 q16 0 32.5 1t32.5 3h15q29 0 49 3t43 3q20 0 55 -6h102v82h-102q-98 0 -177 -3t-161 -3q-80 0 -178 6h-102v-82zM0 45q0 -16 15.5 -23.5t31.5 -7.5q23 0 29 19.5t6 42.5q35 31 55.5 66.5t36.5 73.5t34.5 75t49.5 67q37 -18 60.5 -47.5t42 -65.5t36 -73t43.5 -68 q16 -23 40 -45t24 -57q41 0 69 21q-14 63 -41.5 120.5t-61.5 112.5t-69.5 110.5t-64.5 112.5q25 51 55.5 96.5t71.5 79.5q6 10 19.5 21.5t26.5 25t22.5 27.5t9.5 31q0 12 -11 33q-53 55 -93 114.5t-75 118.5q2 53 27 92t57.5 75t68 70.5t58.5 77.5q4 12 5 27q0 14 -5.5 24.5 t-19.5 10.5q-41 0 -75 -41t-63.5 -91t-59 -96.5t-62.5 -56.5q-47 72 -87 152t-106 143q-10 6 -16 6q-14 0 -25.5 -13t-23.5 -24q8 -37 24.5 -68.5t36 -61t37 -60.5t27.5 -68q23 -29 43 -48t30 -54q-39 -66 -76.5 -129.5t-90.5 -116.5q0 -37 10 -67.5t24.5 -58t30.5 -54.5 t29 -55q29 -23 41 -45.5t12 -44.5q0 -29 -13.5 -55.5t-33 -53.5t-38.5 -53.5t-32 -50.5q-8 -27 -24.5 -48.5t-31.5 -43t-27.5 -46t-12.5 -55.5zM168 764q0 14 13.5 39.5t31.5 50.5t36.5 42t31.5 17q20 0 38.5 -17t37 -42t35 -50.5t30.5 -39.5q-27 -53 -69 -112.5t-77 -98.5 q-6 27 -24.5 52.5t-36.5 52t-32.5 53t-14.5 53.5z" />
<glyph unicode="&#xd6;" horiz-adv-x="782" d="M-102 -61v-82h102q74 -8 129 -12.5t109 -4.5q63 0 127.5 6.5t150.5 20.5q33 -4 56.5 -6t43 -3t37 -2t37.5 -1h195v84h-987zM-102 1495h102q72 10 135.5 13t122.5 3q61 0 118.5 -3t117 -6t122 -5t134.5 -2h135v82h-987v-82zM0 1098q0 -27 1 -53.5t2 -48t1 -31.5 q16 -135 20.5 -290t4.5 -296q0 -98 -1 -180t-1 -136q10 -16 23 -29.5t30 -13.5q12 0 19 8.5t10.5 20.5t4.5 24.5t1 20.5q0 20 2 38t16 28q16 37 31.5 76.5t36 73.5t50.5 57.5t75 27.5l-15 -344q8 -12 20.5 -25.5t28.5 -13.5q14 0 22.5 21.5t13.5 50.5t6 54.5t1 35.5 q0 59 -14 117l14 39q29 -23 53.5 -51.5t46 -59.5t42 -60.5t43.5 -54.5q14 -4 21 -15t12.5 -23.5t12.5 -22.5t23 -10q6 0 23 4q-16 72 -46 136.5t-68 125.5t-79 119.5t-77 116.5l24 395q10 59 13.5 114.5t3.5 110.5q0 53 -3.5 106.5t-11.5 110.5q-10 10 -15 22.5t-22 12.5 q-14 -8 -25.5 -23.5t-17.5 -31.5q12 -51 17.5 -101.5t5.5 -101.5q0 -72 -7 -141.5t-16.5 -140t-16.5 -142.5t-7 -145q-43 -35 -76 -76t-60.5 -84t-52 -89t-55.5 -91l-12 10v360q8 45 11 92.5t3 96.5q0 18 -2 66t-5 106.5t-5 122t-2 112.5q0 72 6 140q0 16 -11.5 36.5 t-27.5 20.5q-14 0 -27 -21q-10 -61 -13 -118.5t-3 -114.5v-51zM555 981q0 -18 8 -37.5t21 -32.5q10 -10 23.5 -17t29.5 -7q14 0 20.5 9t6.5 22l-29 53q0 10 4 26q0 16 -8 26.5t-23 10.5q-29 0 -41 -15t-12 -38z" />
<glyph unicode="&#xd7;" horiz-adv-x="589" d="M-102 -61v-82h102q39 6 74 6l114 -6q18 0 39 2t45 8q37 -12 68 -17.5t59 -5.5q25 0 49.5 3t55.5 8l12 2h102v82h-102q-29 -6 -54.5 -8.5t-49.5 -2.5q-37 0 -74 6.5t-80 16.5q-49 -12 -84 -12l-108 6q-29 0 -66 -6h-102zM-102 1495h102q23 4 43 4q23 0 45 2l201 -10 q16 0 32.5 1t32.5 3h15q29 0 49 3t43 3q20 0 55 -6h102v82h-102q-98 0 -177 -3t-161 -3q-80 0 -178 6h-102v-82zM0 1378q0 -59 27.5 -110t46.5 -105q16 -29 22 -61.5t12.5 -63t20.5 -57.5t47 -45q23 25 42.5 45t23.5 61q2 23 11 32t23 24q20 14 34 34.5t25 41t24.5 41 t35.5 34.5q6 -176 6 -344q0 -166 -6 -328.5t-22 -326.5q-8 -29 -10.5 -58.5t-2.5 -62.5q0 -61 7 -111q12 -12 30 -12q25 0 37 21q8 72 15.5 160.5t11.5 179t7 176.5t3 151q0 18 -7 38t-7 40q0 25 18 43q6 45 6 92q0 45 -6 88q0 14 2 59.5t4 101.5t4 116.5t2 107.5 q0 14 -6 29t-24 25l-35 -19q-55 -90 -117.5 -175t-118.5 -171q-16 12 -32.5 66.5t-33 114t-35.5 107.5t-40 48q-12 0 -24.5 -6t-20.5 -21zM125 567q0 -23 29.5 -25.5t52.5 -2.5q8 6 18.5 17t10.5 24q0 10 -9 18q-4 -4 -10 -4q-10 0 -19.5 12t-21.5 12q-14 -12 -32.5 -19 t-18.5 -32z" />
<glyph unicode="&#xd8;" horiz-adv-x="874" d="M-102 -63v-80h192q76 0 139.5 2t123 5t117.5 5t120 2q61 0 131 -3t153 -11h103v82h-103q-82 8 -150.5 11t-127.5 3q-61 0 -118.5 -3t-117 -6t-124 -5t-140.5 -2h-198zM-102 1495h163q152 0 278 8t257 8q66 0 134.5 -3t143.5 -13h103v82h-103q-96 10 -182 12l-516 -26 q-41 2 -85 5t-91 9h-102v-82zM0 188q0 -49 10 -98t37 -90l31 12q12 20 12 45t3 47.5t12.5 41t39.5 26.5l37 98q14 18 25.5 37t24 33t27.5 23.5t40 9.5q12 0 20 -2q12 -43 13.5 -86t1.5 -86t6 -86t31 -84q12 0 24.5 3t12.5 19q0 20 -11 31v45q0 43 3 108.5t16 120.5 q16 0 30.5 -6t26.5 -14q45 -53 96.5 -100.5t85.5 -110.5q10 -8 23.5 -15.5t28.5 -7.5q20 0 20 17q0 8 -2 15t-2 13q0 4 3 9.5t13 9.5q-8 63 -10 124.5t-2 123.5q0 51 7 152.5t15.5 222t15.5 249.5t7 238q0 18 -1 44t-4 47.5t-10 35.5t-18 14q-10 0 -16 -2q-25 -4 -49 -47 q18 -115 18 -278q0 -90 -4 -188.5t-12 -200t-17.5 -202t-19.5 -192.5q-29 29 -53.5 60.5t-52 63.5t-58.5 60.5t-67 53.5q4 49 9 92t7 102q14 66 18 130.5t5.5 128t2.5 128t7 131.5q-6 39 -13.5 77t-33.5 69q-16 -4 -32 -10.5t-22 -28.5q0 -92 7.5 -178t11.5 -174 q-12 -68 -15.5 -139.5t-12.5 -140t-31.5 -133t-73.5 -116.5q-41 -53 -75 -110.5t-71 -110.5q-4 10 -6 23.5t-2 27.5q0 27 12 45q14 158 22.5 325t8.5 337q0 191 -12 373q-6 4 -11.5 6t-11.5 2q-35 0 -51 -41q0 -27 1 -68t3 -87t3 -95t1 -90q0 -141 -4 -243.5t-12 -192.5 t-17.5 -181.5t-19.5 -214.5z" />
<glyph unicode="&#xd9;" horiz-adv-x="1052" d="M-102 -61v-82h102q78 -4 143.5 -6.5t124.5 -2.5h551q10 10 19.5 12.5t19.5 2.5q86 0 195 -6h102v82h-102q-115 0 -205 -1t-168 -3.5t-150.5 -3.5t-152.5 -1q-39 0 -98.5 1t-117 3.5t-103.5 3.5t-58 1h-102zM-102 1495h102q41 -2 78 -2h76q84 0 159.5 2t146 4t141.5 4 t147 2q70 0 144.5 -3t160.5 -7h102v82h-102q-104 0 -193.5 -1t-170.5 -2t-158.5 -2t-159.5 -1q-41 0 -96.5 1t-109.5 2t-99.5 2t-65.5 1h-102v-82zM0 104q0 -61 53 -104q18 16 28.5 29.5t12.5 36.5q18 33 35.5 75.5t41.5 82.5t55.5 70t78.5 36q10 -10 14.5 -26.5t4.5 -35.5 q0 -35 -8.5 -73.5t-8.5 -69.5q0 -37 10.5 -65.5t40.5 -45.5q29 8 37 34t8 61q0 33 -4 67.5t-4 61.5q0 23 10.5 45t43.5 22l159 -166q12 -10 13 -30l-3 -35q0 -14 14.5 -35t35.5 -21q8 0 15 2.5t17 6.5q20 92 68.5 165.5t108.5 145.5q16 31 41.5 59.5t31.5 63.5 q-27 16 -45 16q-37 0 -65.5 -35.5t-63.5 -70.5q-14 -16 -23.5 -38t-27.5 -28q0 29 1 94.5t2 153.5t3 193.5t3 216t2 221.5t3 207l-20 36q-39 -4 -51.5 -26.5t-12.5 -54.5q0 -16 5.5 -55.5t5.5 -67.5q0 -31 -11 -49q0 -63 -1 -153.5t-3 -194t-6 -211t-10 -203.5 q0 -27 -3 -51.5t-20 -51.5q-47 59 -101 108.5t-95 117.5v841q-4 12 -14.5 26.5t-26.5 14.5q-14 0 -27.5 -13t-17.5 -28v-510q0 -29 -2 -66.5t-4 -78.5t-4.5 -83t-2.5 -79l-208 -276v745q0 12 2 48t4 79t4 84t2 64q0 53 -7.5 87.5t-29.5 34.5q-16 0 -26.5 -13t-22.5 -17 q-12 -115 -12 -213q0 -68 3 -130.5t8 -127t8 -132t3 -141.5q0 -154 -22.5 -291t-22.5 -256z" />
<glyph unicode="&#xda;" horiz-adv-x="690" d="M-102 -61v-82h102q39 6 74 6l114 -6q18 0 39 2t45 8q37 -12 68 -17.5t59 -5.5q25 0 49.5 3t55.5 8l12 2h102v82h-102q-29 -6 -54.5 -8.5t-49.5 -2.5q-37 0 -74 6.5t-80 16.5q-49 -12 -84 -12l-108 6q-29 0 -66 -6h-102zM-102 1495h102q23 4 43 4q23 0 45 2l201 -10 q16 0 32.5 1t32.5 3h15q29 0 49 3t43 3q20 0 55 -6h102v82h-102q-98 0 -177 -3t-161 -3q-80 0 -178 6h-102v-82zM0 1044q10 -10 15 -23t28 -13q16 10 20.5 23t4.5 32q27 25 47 52.5t39.5 55t42 54t53.5 49.5q16 -10 22.5 -27.5t6.5 -38.5q0 -18 -3.5 -36.5t-3.5 -34.5 q-4 -102 -14 -206t-20.5 -207t-18.5 -205.5t-8 -203.5q0 -66 5 -132t15 -132q20 -12 35 -12q18 0 30.5 15.5t23 33.5t23.5 35.5t34 21.5q20 43 51 64.5t62.5 41t58 44t39.5 72.5q-37 39 -65.5 85t-57.5 91t-61.5 87t-79.5 75q10 174 16 346t6 350q-16 12 -27 12 q-16 0 -28 -12t-29 -19q-33 -43 -71.5 -81.5t-75.5 -78.5t-68 -83t-47 -95zM289 299q0 66 6 127t20 109q31 -14 52.5 -37t40 -50.5t36 -55t41.5 -52.5q-10 -35 -32.5 -57.5t-49 -41t-54 -36.5t-52.5 -45q-4 33 -6 67.5t-2 71.5zM436 1053q0 -29 23.5 -50.5t50.5 -21.5 q15 0 25 8q-6 10 -9.5 28.5t-6.5 37t-10 33t-20 14.5q-10 0 -31.5 -15.5t-21.5 -33.5z" />
<glyph unicode="&#xdb;" horiz-adv-x="667" d="M-102 -61v-82h102q80 0 138.5 3t106.5 6t90 6t89 3t105.5 -4t138.5 -14h102v82h-872zM-102 1495h872v82h-872v-82zM0 57l47 -57q20 0 38.5 11.5t37.5 21.5q12 37 38.5 71.5t57.5 68.5t63.5 65.5t61.5 60.5q29 18 50.5 31.5t54.5 13.5q-4 -41 -11.5 -88t-7.5 -92 q0 -35 8 -66.5t31 -54.5q12 0 20.5 7t13.5 16.5t9 16.5t10 7q6 123 13.5 230.5t14.5 217t11 229.5t4 271q0 160 -6 373q-10 8 -24 8q-16 0 -29.5 -10t-24.5 -23q0 -14 1 -89.5t1 -186.5q0 -74 -1 -156t-4 -163.5t-8 -156.5t-13 -134q-80 72 -168 149.5t-187 132.5v187 q0 84 3.5 168t17.5 172q2 12 5 29.5t3 35.5t-6 33.5t-23 26.5q-23 -8 -37 -23.5t-22 -35t-13 -40t-12 -41.5q-6 -164 -8 -316.5t-2 -301.5q0 -150 -1 -301.5t-7 -317.5zM88 319q0 84 8 165t15 167q43 -10 78.5 -35.5t68.5 -55.5t65.5 -60.5t73.5 -50.5q-29 -43 -65.5 -83 t-76.5 -80t-80 -77t-73 -74q-4 47 -9 93t-5 91z" />
<glyph unicode="&#xdc;" horiz-adv-x="522" d="M-102 -61v-82h102q39 6 74 6l114 -6q18 0 39 2t45 8q37 -12 68 -17.5t59 -5.5q25 0 49.5 3t55.5 8l12 2h102v82h-102q-29 -6 -54.5 -8.5t-49.5 -2.5q-37 0 -74 6.5t-80 16.5q-49 -12 -84 -12l-108 6q-29 0 -66 -6h-102zM-102 1495h102q23 4 43 4q23 0 45 2l201 -10 q16 0 32.5 1t32.5 3h15q29 0 49 3t43 3q20 0 55 -6h102v82h-102q-98 0 -177 -3t-161 -3q-80 0 -178 6h-102v-82zM0 49q4 -14 14.5 -31.5t28.5 -17.5q37 10 65.5 39t54 60.5t53.5 62.5t65 45q16 20 38.5 34.5t43 30t37 33t20.5 45.5q-39 49 -73 100.5t-69.5 98.5t-77 90 t-94.5 74q-4 12 -4 24q0 23 17 25q8 96 8 201q0 106 10 188q0 33 -1 73t-7 78.5t-17.5 73.5t-29.5 58q-12 -6 -29.5 -9.5t-21.5 -21.5q10 -35 14 -103.5t4 -160.5q0 -96 -4 -208t-9 -225.5t-11.5 -223t-11.5 -198.5t-9 -151.5t-4 -83.5zM82 391q0 43 5 86t19 86 q37 -18 64 -41.5t50.5 -52.5t47 -62.5t51.5 -70.5q-47 -59 -105.5 -109.5t-119.5 -91.5q0 33 -2 71t-4 72.5t-4 64.5t-2 48zM219 1090q0 -18 9.5 -32t23.5 -25t27.5 -20.5t23.5 -17.5q12 23 15.5 36t3.5 28q0 35 -19 69q-25 0 -43 -14t-41 -24z" />
<glyph unicode="&#xdd;" horiz-adv-x="483" d="M-102 -61v-82h102q39 6 74 6l114 -6q18 0 39 2t45 8q37 -12 68 -17.5t59 -5.5q25 0 49.5 3t55.5 8l12 2h102v82h-102q-29 -6 -54.5 -8.5t-49.5 -2.5q-37 0 -74 6.5t-80 16.5q-49 -12 -84 -12l-108 6q-29 0 -66 -6h-102zM-102 1495h102q23 4 43 4q23 0 45 2l201 -10 q16 0 32.5 1t32.5 3h15q29 0 49 3t43 3q20 0 55 -6h102v82h-102q-98 0 -177 -3t-161 -3q-80 0 -178 6h-102v-82zM0 1380q0 -16 6 -28q31 -74 69 -146.5t74.5 -144.5t71.5 -144.5t62 -148.5q-80 -176 -139.5 -358.5t-125.5 -364.5q23 -23 35.5 -29t22.5 -6q35 0 57 23 q0 80 22.5 152.5t53.5 142t62.5 140.5t50.5 150q12 14 16 34t7 40.5t9 36.5t23 27l4 47q-74 154 -149.5 303t-147.5 305q-4 12 -13.5 15.5t-19.5 3.5q-51 0 -51 -50zM20 764q0 -4 4.5 -16.5t19.5 -19.5t31.5 -10t33 -4t24.5 -1q0 16 12.5 28.5t12.5 28.5q0 11 -8 21 q-16 -6 -25 -7q-16 0 -31.5 9.5t-40.5 9.5q-14 -8 -23.5 -16.5t-9.5 -22.5z" />
<glyph unicode="&#xde;" horiz-adv-x="620" d="M-102 -61v-82h102q119 6 191.5 9t140.5 3q57 0 123.5 -2t165.5 -10h102v82h-825zM-102 1495h102q37 -4 70.5 -6t62.5 -2q47 0 88 3t79 8t76 8t81 3q35 0 75.5 -3t88.5 -11h102v82h-825v-82zM0 1284q0 -104 6 -223t12.5 -243t12.5 -248t6 -240q0 -76 -3 -145.5t-11 -131.5 q10 -10 30.5 -29.5t36.5 -19.5q18 0 25 29q-10 35 -14.5 81t-4.5 93q0 10 2 60t5 110.5t5.5 119t2.5 83.5q16 -2 23 -10.5t13 -20.5q78 -113 140.5 -230.5t128.5 -228.5q6 -14 28 -14q20 0 33 14q0 41 3 129t7.5 200.5t10.5 239.5t10 246t7 221.5t3 165.5q0 27 -11 51.5 t-34 24.5q-14 0 -27 -10q-94 -152 -176 -302.5t-172 -301.5q-12 37 -17 87t-5 109q0 100 8 207t8 184q-8 43 -35 43q-23 0 -40 -29.5t-17 -70.5zM154 690q16 59 49 114.5t57 115.5q45 59 80 120.5t76 120.5q4 -72 7 -143.5t3 -143.5q0 -278 -37 -548q-100 193 -235 364z" />
<glyph unicode="&#xdf;" horiz-adv-x="534" d="M-102 -61v-82h102q39 6 74 6l114 -6q18 0 39 2t45 8q37 -12 68 -17.5t59 -5.5q25 0 49.5 3t55.5 8l12 2h102v82h-102q-29 -6 -54.5 -8.5t-49.5 -2.5q-37 0 -74 6.5t-80 16.5q-49 -12 -84 -12l-108 6q-29 0 -66 -6h-102zM-102 1495h102q23 4 43 4q23 0 45 2l201 -10 q16 0 32.5 1t32.5 3h15q29 0 49 3t43 3q20 0 55 -6h102v82h-102q-98 0 -177 -3t-161 -3q-80 0 -178 6h-102v-82zM0 967q55 -66 116.5 -103t127.5 -86q0 -29 -13.5 -55.5t-34 -54t-44 -55t-41.5 -58.5q-6 -14 -16.5 -28.5l-21 -29t-18.5 -28.5t-8 -29q0 -33 33 -32 q18 0 33 10q20 25 37.5 65.5t38 79.5t48 67.5t68.5 28.5q6 0 14 -4q8 -47 15.5 -88t10.5 -83t5 -85t2 -94q0 -25 -1 -58.5t-2 -69.5t-2 -65.5t-1 -43.5q29 -23 43 -37.5t27 -14.5q8 0 16 9q-10 82 -14 173t-7 185t-5.5 187.5t-8.5 179.5q0 82 -4 175t-4 189q0 74 5.5 144 t15.5 131q-4 12 -9.5 24t-19.5 12q-8 0 -12 -2q-45 -39 -84 -85t-78 -95t-79 -97t-87 -91q-4 -12 -10 -19.5t-13.5 -15.5t-12.5 -20.5t-5 -32.5zM109 240q0 -6 6 -13q20 -6 37.5 -21.5t35.5 -15.5q10 0 21 7q-10 23 -17 51.5t-34 36.5q-6 -16 -27.5 -23.5t-21.5 -21.5z M111 1004q25 72 81 118.5t121 79.5q10 -41 15.5 -96t5.5 -115q0 -41 -3.5 -81.5t-11.5 -75.5q-31 10 -59.5 30.5t-54 45t-49 50t-45.5 44.5z" />
<glyph unicode="&#xe0;" horiz-adv-x="503" d="M-102 -61v-82h114q55 0 98.5 4t79 8t67.5 8t69 4q35 0 77.5 -5t100.5 -19h102v82h-102q-53 4 -94 4h-76t-64.5 -1t-60.5 -1t-65.5 -1t-80.5 -1h-165zM-102 1495h102q16 -2 29 -2h26q41 0 71 3t54.5 7t46 7t45.5 3q31 0 71 -7t99 -25q2 0 5.5 -1t7.5 -1q14 0 29.5 4 t19.5 12h102v82h-102q-6 -8 -24.5 -12t-22.5 -13h-35q-68 20 -108 27.5t-70 7.5q-39 0 -75 -6t-101 -6h-33q-14 0 -35 2h-102v-82zM0 123q0 -39 15.5 -74t58.5 -35q31 0 30 52q0 18 -3 33.5t-15 31.5q4 109 9 213.5t5 194.5q18 29 40 65.5t46.5 69.5t55 55.5t69.5 24.5 q14 -47 19.5 -91.5t5.5 -87.5q0 -98 -15.5 -191t-15.5 -194q0 -29 2 -57.5t6 -58.5q12 -10 31 -11q31 0 55 29v1237l2 33q0 45 -39 45q-22 -1 -45 -21q-37 -59 -73.5 -125.5t-74.5 -128t-76 -114.5t-77 -88q6 -55 8.5 -107.5t2.5 -105.5q0 -156 -13.5 -300.5t-13.5 -293.5z M113 829q0 63 17 121t58 105q2 18 11.5 30.5t20.5 22.5t22.5 21.5t15.5 29.5l39 25q16 -47 16 -111q0 -41 -4 -81t-8 -77l-176 -198q-12 55 -12 112z" />
<glyph unicode="&#xe1;" horiz-adv-x="536" d="M-102 -61v-82h102q39 6 74 6l114 -6q18 0 39 2t45 8q37 -12 68 -17.5t59 -5.5q25 0 49.5 3t55.5 8l12 2h102v82h-102q-29 -6 -54.5 -8.5t-49.5 -2.5q-37 0 -74 6.5t-80 16.5q-49 -12 -84 -12l-108 6q-29 0 -66 -6h-102zM-102 1495h102q23 4 43 4q23 0 45 2l201 -10 q16 0 32.5 1t32.5 3h15q29 0 49 3t43 3q20 0 55 -6h102v82h-102q-98 0 -177 -3t-161 -3q-80 0 -178 6h-102v-82zM0 221q0 -59 10 -119.5t41 -101.5q16 14 50 35.5t77 50.5t88 60.5t83 64.5t61.5 66.5t23.5 64.5l-227 287q-55 29 -74.5 67.5t-19.5 85.5q0 12 4 38t9 56.5 t9 63.5t4 59q0 25 -6 50q-29 39 -29 79q0 16 6.5 45t6.5 54q0 23 -6 45q18 12 36 12q27 0 54.5 -19.5t54.5 -44t51.5 -44t46.5 -19.5q20 0 39 25q-18 51 -55 89t-82 66.5t-94 51t-92 45.5q-25 -6 -35 -24.5t-10 -43.5q0 -72 8 -151.5t8 -165.5q0 -129 -6 -259.5t-14.5 -243 t-14.5 -198.5t-6 -127zM106 170v37q0 61 15.5 121.5t15.5 126.5q0 41 -8 75q31 -16 54.5 -39.5t45 -49t42 -52.5t42.5 -51q-14 -35 -35.5 -59.5t-47 -48t-52 -46t-49.5 -51.5h-18q-4 18 -5 37z" />
<glyph unicode="&#xe2;" horiz-adv-x="612" d="M-102 -61v-82h102q16 -2 25 -2h18l4 -5q23 -4 47.5 -6t46.5 -2q72 0 140.5 11.5t132.5 15.5q37 -10 58.5 -14.5t37.5 -4.5l102 7h103v82h-103q-10 -2 -18 -2h-14q-43 -6 -62 -7q-16 0 -32.5 4.5t-47.5 12.5q-4 2 -8 2t-8 2h-8q-59 0 -121 -13.5t-127 -13.5q-59 0 -121 21 q-10 2 -14 2t-8 2v-2q0 -4 -23 -8h-102zM-102 1495h102q8 4 14 6t13 4q31 10 34 11q10 0 20.5 -8.5t51.5 -22.5q47 4 89 6t83 2h252h27q14 0 28 2h103v82h-129l-99 -12h-14q-43 0 -126 10t-206 27q-41 0 -71.5 -6.5t-69.5 -18.5h-102v-82zM0 1315q0 -115 10 -231.5 t22.5 -234.5t23 -236.5t10.5 -237.5q0 -86 -7.5 -170t-23.5 -170q10 -8 19 -17.5t24 -9.5q6 0 8 5t3 12.5t4 12.5t9 5q8 0 24.5 -5t20.5 -5q10 0 18.5 4t14.5 20q18 39 45 71t57.5 58.5t63.5 52t64 54.5q4 25 20 35t32.5 19t31 21.5t16.5 37.5q-70 63 -145 134.5t-134 149.5 q6 23 30 37t44 23q8 25 27.5 45t40 40.5t40 42t29.5 48.5q-92 121 -178 253t-184 255q-49 -4 -64.5 -38t-15.5 -81zM133 1169q49 -63 103.5 -129.5t107.5 -132.5q-33 -51 -83 -88t-87 -78q-16 96 -27.5 213t-13.5 215zM141 297q0 66 5.5 131.5t19.5 124.5q31 -8 55.5 -29.5 t49 -47t50 -50.5t56.5 -39q-57 -59 -116 -116.5t-114 -123.5q-6 70 -6 150z" />
<glyph unicode="&#xe3;" horiz-adv-x="493" d="M-102 -61v-82h102q39 6 74 6l114 -6q18 0 39 2t45 8q37 -12 68 -17.5t59 -5.5q25 0 49.5 3t55.5 8l12 2h102v82h-102q-29 -6 -54.5 -8.5t-49.5 -2.5q-37 0 -74 6.5t-80 16.5q-49 -12 -84 -12l-108 6q-29 0 -66 -6h-102zM-102 1495h102q23 4 43 4q23 0 45 2l201 -10 q16 0 32.5 1t32.5 3h15q29 0 49 3t43 3q20 0 55 -6h102v82h-102q-98 0 -177 -3t-161 -3q-80 0 -178 6h-102v-82zM0 125q0 -41 9 -76t50 -49q18 12 24.5 26.5t6.5 28.5q0 16 -4 33.5t-4 36.5q0 10 1 18.5t5 18.5q2 39 6 73.5t4 69.5q0 18 -2 36.5t-8 35.5q23 154 18.5 301 t6.5 301q-10 51 -11 102q0 35 7.5 62.5t25.5 44.5q35 -45 60.5 -79t42 -61.5t24.5 -54t10 -55.5q16 -37 42 -63.5t69 -26.5q8 16 8 35q0 37 -24.5 70.5t-38.5 66.5q-31 51 -55.5 108.5t-50 113.5t-58.5 105.5t-80 86.5q-27 -4 -36 -22.5t-19 -37.5q8 -66 10 -145.5t2 -167.5 q0 -147 -6 -304t-14.5 -290t-14.5 -227.5t-6 -114.5zM203 496q8 -23 25.5 -32t35.5 -9q16 0 26.5 6t12.5 22q-8 20 -24.5 31.5t-32.5 11.5q-29 1 -43 -30z" />
<glyph unicode="&#xe4;" horiz-adv-x="520" d="M-102 -61v-82h102q33 4 49.5 10t24.5 12q6 0 8 -2q47 -8 83 -13t66.5 -8t59 -5.5t59.5 -2.5q35 0 76 2.5t94 6.5h103v82h-103q-45 -4 -79.5 -6.5t-63.5 -2.5q-35 0 -64.5 2t-62.5 5.5t-73 8.5t-95 9q-16 -6 -42 -7t-40 -9h-102zM-102 1495h102q16 4 31.5 5t29.5 1 q45 0 81 -10t77 -10q23 0 46.5 5t51.5 19h7q47 0 76.5 -9t64.5 -9q29 0 55 8h103v82h-103q-23 -8 -43 -10t-39 -2h-80l-18 16q-6 4 -23 4q-14 0 -18 -2q-27 -16 -60.5 -22.5t-62.5 -6.5q-51 0 -94 11.5t-82 11.5h-102v-82zM0 111q0 -14 2 -33t9 -35t19.5 -27.5t30.5 -11.5 t33 14q-12 51 -12 105q0 109 51 192q0 20 9.5 37t21.5 31t25.5 29.5t23.5 36.5q29 12 44 30.5t44 34.5q8 20 25.5 38.5t36 36t34 37t21.5 44.5q-37 59 -86 120.5t-88 114.5q-78 49 -97.5 114.5t-19.5 139.5v213q0 18 -7 39t-30 23q-29 -10 -38 -34t-11 -52q6 -59 8 -129 t2 -146q0 -156 -8 -321.5t-17.5 -305t-17.5 -232.5t-8 -103zM119 545q0 76 11 154.5t15 144.5q29 -14 51.5 -38t42 -50.5t37 -53t37.5 -45.5l-8 -30l-178 -178q-4 23 -6 47t-2 49z" />
<glyph unicode="&#xe5;" horiz-adv-x="555" d="M-102 -61v-82h102q39 6 74 6l114 -6q18 0 39 2t45 8q37 -12 68 -17.5t59 -5.5q25 0 49.5 3t55.5 8l12 2h102v82h-102q-29 -6 -54.5 -8.5t-49.5 -2.5q-37 0 -74 6.5t-80 16.5q-49 -12 -84 -12l-108 6q-29 0 -66 -6h-102zM-102 1495h102q23 4 43 4q23 0 45 2l201 -10 q16 0 32.5 1t32.5 3h15q29 0 49 3t43 3q20 0 55 -6h102v82h-102q-98 0 -177 -3t-161 -3q-80 0 -178 6h-102v-82zM0 1268q10 -63 17.5 -137t11.5 -154t5 -162t1 -158q0 -82 -1 -155.5t-3 -131t-3 -95t-1 -48.5q0 -4 -3.5 -21.5t-7.5 -39t-7 -44t-3 -38.5q0 -31 6 -54.5 t25 -23.5q29 0 53.5 15.5t47 37t46 46t52.5 40.5q23 37 55.5 61.5t65 49.5t59 54.5t37.5 72.5q-2 27 -29 27q-27 -1 -31 -11q-25 -41 -58.5 -73.5t-71.5 -63.5t-75.5 -60.5t-72.5 -62.5q-23 96 -23 168t23 156q23 25 56.5 37t51.5 47q23 6 40.5 20.5t33.5 29.5t32.5 28.5 t39 17.5t41 29.5t18.5 46.5q0 25 -31 24q-14 0 -27.5 -8t-27.5 -18t-27.5 -20.5t-25.5 -14.5q-49 -35 -83 -76t-87 -59q-10 23 -14.5 46t-4.5 46q0 33 4.5 64.5t4.5 60.5q4 49 7 101.5t3 105.5q0 104 -9.5 211.5t-27.5 212.5q-16 8 -33 8q-20 0 -29.5 -15.5t-12.5 -37 t-4 -44t-3 -38.5zM186 1032q4 -20 14.5 -31.5t23 -17.5t28 -11.5t27.5 -13.5q12 6 21 11.5t11 21.5l-49 92q-27 0 -44 -17t-32 -34z" />
<glyph unicode="&#xe6;" horiz-adv-x="1036" d="M-102 -61v-82h102q72 10 138.5 14t133.5 8l711 -31q12 2 25.5 3.5t27.5 5.5h103v82h-103q-43 0 -74.5 -4.5t-64.5 -4.5h-35q-14 0 -28.5 1t-30.5 8h-606q-43 12 -86 12q-29 0 -55.5 -4t-55.5 -8h-102zM-102 1495h102q104 4 196.5 12.5t186.5 8.5q53 0 106.5 -3.5 t110.5 -11.5q43 -6 82 -6l236 14q61 0 118 -14h103v82h-899q-49 14 -105 14q-33 0 -66.5 -4t-68.5 -10h-102v-82zM0 1362q0 -23 12.5 -44.5t28.5 -41t31.5 -39.5t23.5 -41q49 -49 82 -106.5t63.5 -116t67.5 -113.5t94 -100q4 -29 5.5 -60.5t1.5 -58.5q0 -37 -9.5 -70.5 t-25.5 -58.5q-80 -100 -162 -196.5t-154 -200.5q-2 -14 -7 -26.5t-5 -25.5q0 -12 8 -21t25 -9q31 0 41 16.5t15 39t12.5 43t29.5 30.5q18 18 36.5 41.5t38 45t43 37t54.5 19.5q8 -35 9 -79t1 -85q0 -33 4.5 -62.5t20.5 -55.5q8 -4 18.5 -9.5t20.5 -5.5q18 0 27 15l18 421 q4 23 20 23q8 0 13 -2q35 -31 63.5 -67t55 -71.5t54 -70.5t58.5 -63q33 -39 71 -75t85 -36q8 0 8 14t-8 37t-25 47q-80 123 -166.5 237.5t-203.5 198.5q-14 20 -15 46q0 12 3 26t3 19q23 45 52.5 84.5t58.5 79.5t54.5 82t41.5 89q18 23 31.5 42.5t28.5 39.5q25 20 42 47 t31.5 55.5t29.5 55.5t38 49q4 12 22.5 29.5t18.5 34.5q0 12 -23 24q-8 -10 -22 -10h-8q-102 -123 -197.5 -257t-173.5 -273h-12l-4 67q10 98 19 181t9 188q0 35 -6 61.5t-29 26.5q-16 0 -31.5 -9.5t-29.5 -21.5q-10 -115 -16.5 -228.5t-6.5 -225.5l-12 -31q-23 18 -45 65 t-47 106.5t-50.5 125t-55 119t-62.5 88t-72 34.5q-25 0 -42 -20.5t-17 -42.5zM737 723q0 -23 24.5 -47.5t41.5 -24.5q4 0 8 4l6 17q2 12 6 34.5t4 41.5q0 35 -22 34q-20 0 -44 -18.5t-24 -40.5z" />
<glyph unicode="&#xe7;" horiz-adv-x="438" d="M-102 -61v-82h102q39 6 74 6l114 -6q18 0 39 2t45 8q37 -12 68 -17.5t59 -5.5q25 0 49.5 3t55.5 8l12 2h102v82h-102q-29 -6 -54.5 -8.5t-49.5 -2.5q-37 0 -74 6.5t-80 16.5q-49 -12 -84 -12l-108 6q-29 0 -66 -6h-102zM-102 1495h102q23 4 43 4q23 0 45 2l201 -10 q16 0 32.5 1t32.5 3h15q29 0 49 3t43 3q20 0 55 -6h102v82h-102q-98 0 -177 -3t-161 -3q-80 0 -178 6h-102v-82zM0 1376q12 -59 36.5 -111.5t55.5 -103.5t60.5 -102t50.5 -107l-187 -202l-4 -35q20 -35 51 -59.5t64 -48t60.5 -52.5t43.5 -68q-16 -61 -50 -111t-69.5 -100.5 t-62 -105.5t-26.5 -125q0 -39 34 -39q8 0 15.5 4t13.5 8q8 14 24.5 32t16.5 40q0 31 16.5 69t39 76.5t46 74.5t39.5 63q2 20 13.5 38.5t23.5 37t21.5 38t9.5 43.5q-47 61 -103.5 109.5t-105.5 110.5q41 51 86 94t94 86v39l-252 454q-20 0 -36.5 -12t-18.5 -35z" />
<glyph unicode="&#xe8;" horiz-adv-x="626" d="M-102 -61v-82h102q80 4 142.5 6t117.5 2q41 0 93.5 -1t103.5 -3t96 -3t74 -1h102v82h-102q-68 0 -121 2t-101.5 3t-92.5 3t-91 2t-101 -2t-120 -8h-102zM-102 1495h102q33 -4 63 -4h60q92 0 171 7t167 7q39 0 79 -2t87 -8h102v82h-102q-43 6 -83 7t-75 5l-365 -20 q-25 0 -56.5 4t-47.5 4h-102v-82zM0 156q0 -51 15.5 -92t62.5 -56q0 6 6 11.5t10 9.5q-10 59 -14 128.5t-4 141.5q0 90 5 180t10 168t10 136.5t5 84.5q16 8 26.5 25.5t18 36t11.5 34t8 21.5q59 43 100 99.5t90 109.5q14 2 26.5 12.5t25.5 10.5q8 0 18 -13q4 -66 7 -138.5 t3 -150.5q0 -127 -5 -256t-10 -243.5t-10 -206.5t-5 -143q12 -6 17 -15.5t7 -20t7 -19.5t18 -11q20 8 23 25.5t14 31.5q12 324 13 641.5t15 634.5q-2 29 -13 51.5t-28 22.5q-23 0 -41 -13.5t-32 -31.5q-66 -102 -142.5 -185.5t-148.5 -175.5l-27 408q-14 0 -30.5 -12.5 t-24.5 -22.5q4 -47 4 -100v-111q0 -152 -6 -315.5t-14.5 -307t-14.5 -248t-6 -136.5z" />
<glyph unicode="&#xe9;" horiz-adv-x="641" d="M-102 -61v-82h102q39 6 74 6l114 -6q18 0 39 2t45 8q37 -12 68 -17.5t59 -5.5q25 0 49.5 3t55.5 8l12 2h102v82h-102q-29 -6 -54.5 -8.5t-49.5 -2.5q-37 0 -74 6.5t-80 16.5q-49 -12 -84 -12l-108 6q-29 0 -66 -6h-102zM-102 1495h102q23 4 43 4q23 0 45 2l201 -10 q16 0 32.5 1t32.5 3h15q29 0 49 3t43 3q20 0 55 -6h102v82h-102q-98 0 -177 -3t-161 -3q-80 0 -178 6h-102v-82zM0 72q0 -16 12.5 -35t30.5 -19q16 0 30.5 11.5t30.5 13.5q-4 63 -7 121.5t-3 118.5q0 35 1 70.5t3 70.5q10 49 36 92t56.5 85t62.5 82t54 83q12 0 22.5 7 t19.5 15.5t18.5 15.5t21.5 7t23 -8q0 -20 6 -71.5t6 -110.5q0 -37 -4 -72t-17 -64q12 -37 13 -75q0 -27 -4 -60t-8.5 -63.5t-8.5 -56t-4 -40.5q0 -10 3 -32.5t9.5 -45t18.5 -40t31 -17.5q14 0 23 29t14.5 67.5t7.5 77.5t2 60q0 113 -9.5 245t-9.5 267q0 59 3 118.5t12 116.5 l26 189q0 2 -1 19.5t-3 43t-2 41.5q0 41 23 66q-2 35 -31 35q-10 0 -31 -9q-55 -53 -97 -112.5t-80 -119t-77 -116.5t-90 -108l-14 430q-20 10 -41 10q-23 0 -32 -17.5t-9 -39.5q0 -41 -2 -114t-5 -166t-6.5 -200.5t-6.5 -218t-5 -217t-2 -196.5q0 -8 -2 -31t-3 -49.5 t-3 -50t-2 -33.5zM111 637l12 203q37 23 62.5 60.5t47.5 78.5q27 14 42.5 41t29.5 51.5t32.5 43t53.5 18.5q16 -23 19.5 -32t3.5 -16q0 -70 -34 -127t-80 -109t-95 -101.5t-78 -104.5z" />
<glyph unicode="&#xea;" horiz-adv-x="626" d="M-102 -61v-82h102q23 -4 41 -7.5t37 -3.5q53 0 99 12.5t97 12.5q23 0 47.5 -4t53.5 -14h354v86h-102q-61 0 -110.5 -3.5t-96.5 -3.5q-41 0 -84 4.5t-96 18.5q-55 -4 -91 -14.5t-79 -10.5q-35 0 -70 9h-102zM-102 1495h102q49 12 93 16.5t85 4.5q61 0 121.5 -8.5 t128.5 -20.5l49 -8q25 8 42.5 11t31.5 3h33q16 0 43 2h102v82h-102q-12 2 -23 2h-20q-45 0 -79 -6t-75 -6q-37 0 -76 8q-53 10 -95 14t-83 4t-82 -4t-94 -12h-102v-82zM0 1372q16 -111 21.5 -218t5.5 -216q0 -195 -10.5 -391.5t-12.5 -409.5q0 -16 4 -35.5t14.5 -36 t25.5 -28.5t38 -12t35 12q0 27 -3 59.5t-8.5 64.5t-8.5 59.5t-3 45.5q0 47 17 96q20 -4 32.5 -19t24.5 -31.5t25.5 -32t38.5 -17.5q47 -66 101 -129t107 -115q14 -8 37 -8q12 0 24.5 3t18.5 12q-2 53 -24.5 93t-54 74.5t-66.5 69.5t-60 78q-27 20 -50 45t-47.5 47.5 t-52.5 39.5t-60 24q0 78 -2.5 163.5t-6.5 169.5q12 10 21.5 20.5t21.5 10.5q27 59 63 110.5t73.5 102.5t75.5 103.5t69 113.5q16 12 35.5 39t23.5 57q-8 4 -12 11.5t-10 7.5t-10 -4q-59 -43 -104.5 -95.5t-84.5 -108.5t-78 -115.5t-88 -114.5v401q-4 23 -17 35t-30 12 q-16 0 -29.5 -10t-19.5 -33zM293 707q0 -16 13 -21.5t28 -5.5q12 0 24.5 -1t22.5 -7q16 0 20.5 13t14.5 24q-23 37 -74 36q-10 -10 -29.5 -15t-19.5 -23z" />
<glyph unicode="&#xeb;" horiz-adv-x="495" d="M-102 -61v-82h102q39 6 74 6l114 -6q18 0 39 2t45 8q37 -12 68 -17.5t59 -5.5q25 0 49.5 3t55.5 8l12 2h102v82h-102q-29 -6 -54.5 -8.5t-49.5 -2.5q-37 0 -74 6.5t-80 16.5q-49 -12 -84 -12l-108 6q-29 0 -66 -6h-102zM-102 1495h102q23 4 43 4q23 0 45 2l201 -10 q16 0 32.5 1t32.5 3h15q29 0 49 3t43 3q20 0 55 -6h102v82h-102q-98 0 -177 -3t-161 -3q-80 0 -178 6h-102v-82zM0 244q0 -66 5 -127.5t18 -116.5l47 2q23 10 22 29q0 14 -12 26q4 242 10 473.5t12 479.5l125 170q16 41 56 41q16 0 34 -13q6 -72 7 -153q0 -39 -4.5 -121 t-10.5 -182.5t-10 -204t-4 -185.5t6 -154.5t23 -131.5l49 -25q18 0 18 15q-10 319 -10 630t-4 641q0 18 8 35t8 33q0 18 -26 29q-96 -104 -186.5 -220t-168.5 -239q8 -39 11.5 -83t3.5 -91q0 -129 -13.5 -273.5t-13.5 -283.5z" />
<glyph unicode="&#xec;" horiz-adv-x="843" d="M-102 -61v-82h102q96 8 181 11t167 3q59 0 128 -2t136.5 -5t128 -5t103.5 -2h102v82h-102q-158 0 -289 5t-266 5q-68 0 -139.5 -2t-149.5 -8h-102zM-102 1495h102q141 0 255 11.5t232 11.5q57 0 117 -5.5t125 -15.5h57h23q12 0 35 -2h102v82h-1048v-82zM0 1360 q16 -125 21.5 -282.5t5.5 -317.5q0 -123 -2 -237.5t-5.5 -208t-5.5 -157t-2 -83.5l105 -49q-16 102 -22.5 248.5t-6.5 301.5q0 98 2 194.5t3 180.5t3 150.5t2 107.5q57 -45 102.5 -96t104.5 -86q16 -88 22.5 -179t6.5 -188q0 -37 -3 -107.5t-6 -153.5t-5.5 -171t-2.5 -159 q12 -18 30 -26.5t36 -8.5q16 0 33 6q-6 233 -9.5 479t-15.5 494l47 18q0 31 14.5 60.5t36 57.5t47 54.5t50.5 48.5q4 2 10 4t12 2q12 0 21 -14q16 -154 21 -296t5 -283q0 -135 -3 -268.5t-5 -270.5q23 -16 37 -39t47 -23q4 123 7 246t3 252q0 211 -7 419t-21 411 q-12 25 -33 24q-4 0 -10 -2t-11 -4q-72 -66 -136 -139.5t-128 -122.5l8 219q-8 23 -26 23t-34.5 -25t-16.5 -51q-10 -57 -11 -109q0 -49 -16 -96q-31 43 -55.5 93t-52 96t-63.5 83t-89 54z" />
<glyph unicode="&#xed;" horiz-adv-x="620" d="M-102 -61v-82h102q39 6 74 6l114 -6q18 0 39 2t45 8q37 -12 68 -17.5t59 -5.5q25 0 49.5 3t55.5 8l12 2h102v82h-102q-29 -6 -54.5 -8.5t-49.5 -2.5q-37 0 -74 6.5t-80 16.5q-49 -12 -84 -12l-108 6q-29 0 -66 -6h-102zM-102 1495h102q23 4 43 4q23 0 45 2l201 -10 q16 0 32.5 1t32.5 3h15q29 0 49 3t43 3q20 0 55 -6h102v82h-102q-98 0 -177 -3t-161 -3q-80 0 -178 6h-102v-82zM0 1309q0 -39 9 -76t9 -66q0 -16 -2 -38.5t-2 -45.5q0 -55 4.5 -123.5t8.5 -136t9 -125t5 -90.5q-4 -66 -8 -141.5t-4 -144.5q4 -16 11 -41t7 -41 q0 -35 -9 -62.5t-9 -60.5q0 -35 12 -64.5t49 -52.5q23 29 30 83t7 110q0 49 -3 91t-3 60v340q0 16 -4 56t-4 81q0 27 3 49.5t11 36.5q82 -45 156.5 -108.5t128.5 -151.5q2 -20 3 -40.5t1 -43.5q0 -20 -2 -59t-5 -85t-5.5 -94.5t-2.5 -86.5q0 -47 5.5 -92.5t17.5 -84.5 q29 -35 42 -43t23 -8q18 0 29 13q-2 104 -6 223t-9 231.5t-9.5 203.5t-4.5 140q0 39 4.5 102.5t8.5 137.5t9 151.5t5 143.5q-2 25 -11 47t-36 22q-10 0 -14 -2q-29 -41 -38 -107.5t-9 -125.5q0 -47 2 -82t2 -47q-61 63 -106.5 118.5t-84.5 100.5t-75.5 81t-82.5 62 q-37 -18 -50 -49t-13 -65zM109 1036q6 35 4 79t8 87q39 -6 62.5 -28.5t44 -51t44 -54.5t60.5 -38q6 -23 31.5 -38t39.5 -36l13 -149q-29 23 -54.5 57.5t-56.5 61.5q-23 10 -48.5 28.5l-51 37t-51 31.5t-45.5 13z" />
<glyph unicode="&#xee;" horiz-adv-x="710" d="M-102 -61v-82h364q78 -4 138.5 -8.5t119.5 -4.5q43 0 89 2t102 11h102v82h-102q-66 -6 -119 -10.5t-107 -4.5q-47 0 -94 3t-106 12q-47 -2 -91 -10.5t-92 -8.5q-25 0 -49 4t-53 15h-102zM-102 1495h247q82 0 177.5 5t191.5 5q45 0 93 -3t104 -7h102v82h-102 q-63 6 -117.5 8t-101.5 2q-51 0 -98.5 -2t-94.5 -4t-98 -4t-109 -2h-194v-80zM0 737q70 -100 122 -203.5t120 -201.5q-45 -76 -71 -159t-44 -157q10 -10 20.5 -13t22.5 -3q39 20 52.5 68.5t17.5 93.5q18 51 32.5 70.5t30.5 19.5q18 0 37.5 -24.5t41 -53.5t46.5 -53.5 t55 -24.5l35 49q-23 35 -51.5 68t-54 66.5t-45 68.5t-23.5 76q59 92 122.5 198.5t141.5 198.5q0 16 -8 32.5t-19.5 34t-20.5 34t-9 34.5q-18 63 -50 120t-65 114t-60.5 116.5t-37.5 127.5h-62q-84 -168 -159.5 -340t-116.5 -357zM96 786q0 63 24.5 124t55.5 119t59.5 116.5 t38.5 122.5q57 -106 122 -214t112 -225q-18 -49 -48 -93t-60.5 -89t-58.5 -89t-44 -93l-18 6z" />
<glyph unicode="&#xef;" horiz-adv-x="499" d="M-102 -61v-82h102q39 6 74 6l114 -6q18 0 39 2t45 8q37 -12 68 -17.5t59 -5.5q25 0 49.5 3t55.5 8l12 2h102v82h-102q-29 -6 -54.5 -8.5t-49.5 -2.5q-37 0 -74 6.5t-80 16.5q-49 -12 -84 -12l-108 6q-29 0 -66 -6h-102zM-102 1495h102q23 4 43 4q23 0 45 2l201 -10 q16 0 32.5 1t32.5 3h15q29 0 49 3t43 3q20 0 55 -6h102v82h-102q-98 0 -177 -3t-161 -3q-80 0 -178 6h-102v-82zM0 51q0 -23 14.5 -34t34.5 -17q35 74 45 156t10 168q0 18 -1 52t-2 73.5t-2 82.5t-1 78q0 63 5.5 123t21.5 117v321q4 6 11 13.5t14 7.5q23 0 41 -26.5 t35.5 -60.5t36 -67.5t40.5 -48.5q10 -18 13 -53t3 -82q0 -59 -4 -134t-10 -154t-10 -157.5t-4 -146.5q0 -90 11 -150.5t44 -70.5q16 0 23 18q-4 59 -6.5 120t-2.5 124q0 162 10.5 332t26.5 334l-272 444q-16 14 -39 14t-37 -14v-461q-16 -66 -20 -139.5t-4 -150.5 q0 -106 5 -211t5 -191q0 -70 -10.5 -124t-24.5 -85z" />
<glyph unicode="&#xf0;" horiz-adv-x="487" d="M-102 -61v-82h692v82h-103q-55 -4 -97 -7.5t-74.5 -5.5t-60.5 -4t-54 -2q-39 0 -84 4t-117 15h-102zM-102 1495h133q59 0 98 3t67.5 7t54 7.5t56.5 3.5t73 -5.5t107 -15.5h103v82h-692v-82zM0 578q0 -41 2 -90.5t4 -95.5t4 -84t2 -56q0 -10 1 -31.5t3 -46t3 -45t1 -27.5 q0 -43 15 -71q10 -4 20.5 -11.5t20.5 -7.5t20 13q-8 80 -11 188.5t-3 204.5q0 68 1 123t3 84q27 23 46.5 50t36.5 56t37.5 55.5t51.5 47.5q16 27 37.5 46t42 39.5t34 46t13.5 66.5q-57 78 -119.5 160t-132.5 143q-12 2 -22.5 11.5t-17.5 19.5t-15 19.5t-17 9.5 q-18 0 -29.5 -29t-17.5 -66.5t-7 -74.5t-1 -51q0 -49 3 -109.5t6 -117t6.5 -102.5t3.5 -71q-14 -51 -19.5 -99t-5.5 -97zM102 846q0 14 4.5 27.5t4.5 25.5q0 78 -3.5 146.5t-5.5 140.5q31 -8 55.5 -28.5t46 -47.5t40 -55.5t39.5 -53.5q-74 -108 -168 -184q-12 12 -13 29z M211 389q0 -18 9 -27.5t21.5 -13.5t27 -7t26.5 -11q6 8 14 14t8 16q-16 12 -20 27.5t-14 32.5q-20 0 -37 -11.5t-35 -19.5z" />
<glyph unicode="&#xf1;" horiz-adv-x="528" d="M-102 -61v-82h102q39 6 74 6l114 -6q18 0 39 2t45 8q37 -12 68 -17.5t59 -5.5q25 0 49.5 3t55.5 8l12 2h102v82h-102q-29 -6 -54.5 -8.5t-49.5 -2.5q-37 0 -74 6.5t-80 16.5q-49 -12 -84 -12l-108 6q-29 0 -66 -6h-102zM-102 1495h102q23 4 43 4q23 0 45 2l201 -10 q16 0 32.5 1t32.5 3h15q29 0 49 3t43 3q20 0 55 -6h102v82h-102q-98 0 -177 -3t-161 -3q-80 0 -178 6h-102v-82zM0 715q0 -14 7 -26.5t30 -22.5q35 -82 66.5 -168t67.5 -169t79 -162t102 -147q12 -6 23 -6q16 0 28.5 14.5t18.5 30.5q-59 123 -124 244t-101 256 q-16 23 -25.5 48.5t-20 51t-24 50.5t-33.5 45q6 43 26.5 83t39.5 81q41 121 87 235.5t75 237.5q-6 18 -17 18q-10 0 -23.5 -12.5t-23.5 -14.5q-39 -66 -62.5 -137t-45 -144t-46 -144.5t-67.5 -137.5q-4 -23 -20.5 -51.5t-16.5 -52.5zM315 727q25 -14 48.5 -30.5t50.5 -26.5 q4 6 8 11t4 15q0 35 -17.5 57.5t-41.5 22.5q-16 0 -30.5 -11t-21.5 -38z" />
<glyph unicode="&#xf2;" horiz-adv-x="712" d="M-102 -61v-82h102q59 -6 108.5 -8.5t90.5 -2.5q49 0 92 2t84 5.5t86 6.5t98 3q63 0 154 -6h102v82h-917zM-102 1495h102q86 -6 154.5 -8t130.5 -2q98 0 204.5 5t223.5 5h102v82h-102q-74 0 -135.5 -1t-115.5 -3t-105.5 -3t-106.5 -1q-53 0 -114.5 2t-135.5 6h-102v-82z M0 1096q0 -16 15.5 -27.5t29.5 -11.5q25 0 39 28.5t25 51.5q12 14 26.5 35.5t30.5 41t35.5 33t42.5 15.5q16 -29 21 -61t5 -66q0 -72 -14 -149t-14 -152q0 -37 6 -70q-4 -100 -5 -190.5t-2 -175.5t-2 -169t-8 -170q14 -12 21.5 -30.5t26.5 -18.5q20 0 29 16.5t9 28.5 q0 16 -5 31.5t-5 32.5q-6 18 -8 35.5t-2 35.5t2 36t8 36v385q18 158 21.5 305.5t3.5 302.5q8 14 20 15q12 0 25.5 -11.5t29 -25.5t31 -29.5t31.5 -23.5l10 2q16 0 29.5 -9.5t26 -19.5t24.5 -19.5t29 -9.5q10 0 16 7.5t6 13.5q0 14 -13.5 31.5t-23.5 31.5q-41 23 -73.5 56.5 t-65.5 67.5t-68.5 62.5t-80.5 39.5q-23 -33 -71 -73t-95 -83t-83 -89t-36 -93zM442 942q14 -16 25.5 -32.5t34.5 -16.5q20 18 20 47q0 4 -2 11t-2 14q0 25 8 43q-2 12 -12 14t-20 2q-35 0 -43.5 -26.5t-8.5 -55.5z" />
<glyph unicode="&#xf3;" horiz-adv-x="546" d="M-102 -61v-82h102q39 6 74 6l114 -6q18 0 39 2t45 8q37 -12 68 -17.5t59 -5.5q25 0 49.5 3t55.5 8l12 2h102v82h-102q-29 -6 -54.5 -8.5t-49.5 -2.5q-37 0 -74 6.5t-80 16.5q-49 -12 -84 -12l-108 6q-29 0 -66 -6h-102zM-102 1495h102q23 4 43 4q23 0 45 2l201 -10 q16 0 32.5 1t32.5 3h15q29 0 49 3t43 3q20 0 55 -6h102v82h-102q-98 0 -177 -3t-161 -3q-80 0 -178 6h-102v-82zM0 1282q0 -35 25.5 -67.5t63.5 -65.5t83 -64.5t85 -64.5t69.5 -65.5t33.5 -65.5q4 -129 8.5 -260t4.5 -260q0 -86 -5.5 -165t-19.5 -151q14 -10 14 -28 q0 -16 17 -17q6 0 10 2q18 45 27.5 106.5t13.5 131t6 145.5t8 150q0 188 -1 371t-11 384q-4 10 -9 25.5t-13.5 29t-17.5 22.5t-19 9q-18 0 -35 -30q2 -63 18.5 -131t16.5 -133q0 -6 2 -14.5t2 -18.5q0 -20 -17 -37q-84 86 -155.5 163t-165.5 142q-14 -4 -26.5 -15.5 t-12.5 -27.5zM152 485q0 -10 6 -22q14 -6 27.5 -22.5t29.5 -16.5q10 0 15.5 9t5.5 16q0 12 -7.5 22t-7.5 25q0 6 6 16q0 12 -10 15t-20 3q-18 0 -31.5 -15t-13.5 -30z" />
<glyph unicode="&#xf4;" horiz-adv-x="845" d="M-102 -59v-84h1050v82h-102q-78 -4 -141.5 -7.5t-118.5 -3.5q-59 0 -113.5 2t-110 4.5t-116 4.5t-131.5 2h-217zM-102 1495h1050v82h-102q-74 8 -139.5 10t-126.5 2q-127 0 -244 -6t-262 -6h-176v-82zM0 1100q53 -43 112.5 -80t118.5 -88q6 -20 21.5 -30.5t33 -20 t31 -21.5t17.5 -37v-770q29 -37 57 -37q14 0 23 15v397q0 88 -2 175t-11 177q8 16 26.5 46t44.5 61t58.5 54.5t69.5 27.5q14 20 38 37.5t47.5 36t40.5 38t17 45.5q0 19 -8 35q-51 25 -96 59.5t-88 72.5t-86 75t-88 66q-57 -18 -105.5 -52t-92.5 -77t-88 -89.5t-91 -89.5v-26 zM98 1139q18 31 40 50t44.5 35.5t47 35t51.5 43.5h34q4 -12 9.5 -39t9.5 -58.5t7 -67.5t3 -67q0 -25 -6 -54t-10 -54q-59 45 -115.5 87t-114.5 89zM418 963v24q0 23 1 49.5t3 53t3 48t1 33.5q0 39 -6 76q35 -2 65.5 -30.5t67.5 -42.5q6 -8 21.5 -15.5t31 -14.5t27.5 -16.5 t12 -21.5q0 -13 -8 -23q-57 -33 -110.5 -77.5t-106.5 -67.5q-2 12 -2 25zM631 471q18 -10 38.5 -30.5t47.5 -24.5q12 10 12 18q0 10 -12 21.5t-12 25.5q0 9 4 15q-6 23 -25 22q-16 0 -32.5 -15.5t-20.5 -31.5z" />
<glyph unicode="&#xf5;" horiz-adv-x="679" d="M-102 -61v-82h102q39 6 74 6l114 -6q18 0 39 2t45 8q37 -12 68 -17.5t59 -5.5q25 0 49.5 3t55.5 8l12 2h102v82h-102q-29 -6 -54.5 -8.5t-49.5 -2.5q-37 0 -74 6.5t-80 16.5q-49 -12 -84 -12l-108 6q-29 0 -66 -6h-102zM-102 1495h102q23 4 43 4q23 0 45 2l201 -10 q16 0 32.5 1t32.5 3h15q29 0 49 3t43 3q20 0 55 -6h102v82h-102q-98 0 -177 -3t-161 -3q-80 0 -178 6h-102v-82zM0 45q0 -16 15.5 -23.5t31.5 -7.5q23 0 29 19.5t6 42.5q35 31 55.5 66.5t36.5 73.5t34.5 75t49.5 67q37 -18 60.5 -47.5t42 -65.5t36 -73t43.5 -68 q16 -23 40 -45t24 -57q41 0 69 21q-14 63 -41.5 120.5t-61.5 112.5t-69.5 110.5t-64.5 112.5q25 51 55.5 96.5t71.5 79.5q6 10 19.5 21.5t26.5 25t22.5 27.5t9.5 31q0 12 -11 33q-53 55 -93 114.5t-75 118.5q2 53 27 92t57.5 75t68 70.5t58.5 77.5q4 12 5 27q0 14 -5.5 24.5 t-19.5 10.5q-41 0 -75 -41t-63.5 -91t-59 -96.5t-62.5 -56.5q-47 72 -87 152t-106 143q-10 6 -16 6q-14 0 -25.5 -13t-23.5 -24q8 -37 24.5 -68.5t36 -61t37 -60.5t27.5 -68q23 -29 43 -48t30 -54q-39 -66 -76.5 -129.5t-90.5 -116.5q0 -37 10 -67.5t24.5 -58t30.5 -54.5 t29 -55q29 -23 41 -45.5t12 -44.5q0 -29 -13.5 -55.5t-33 -53.5t-38.5 -53.5t-32 -50.5q-8 -27 -24.5 -48.5t-31.5 -43t-27.5 -46t-12.5 -55.5zM168 764q0 14 13.5 39.5t31.5 50.5t36.5 42t31.5 17q20 0 38.5 -17t37 -42t35 -50.5t30.5 -39.5q-27 -53 -69 -112.5t-77 -98.5 q-6 27 -24.5 52.5t-36.5 52t-32.5 53t-14.5 53.5z" />
<glyph unicode="&#xf6;" horiz-adv-x="782" d="M-102 -61v-82h102q74 -8 129 -12.5t109 -4.5q63 0 127.5 6.5t150.5 20.5q33 -4 56.5 -6t43 -3t37 -2t37.5 -1h195v84h-987zM-102 1495h102q72 10 135.5 13t122.5 3q61 0 118.5 -3t117 -6t122 -5t134.5 -2h135v82h-987v-82zM0 1098q0 -27 1 -53.5t2 -48t1 -31.5 q16 -135 20.5 -290t4.5 -296q0 -98 -1 -180t-1 -136q10 -16 23 -29.5t30 -13.5q12 0 19 8.5t10.5 20.5t4.5 24.5t1 20.5q0 20 2 38t16 28q16 37 31.5 76.5t36 73.5t50.5 57.5t75 27.5l-15 -344q8 -12 20.5 -25.5t28.5 -13.5q14 0 22.5 21.5t13.5 50.5t6 54.5t1 35.5 q0 59 -14 117l14 39q29 -23 53.5 -51.5t46 -59.5t42 -60.5t43.5 -54.5q14 -4 21 -15t12.5 -23.5t12.5 -22.5t23 -10q6 0 23 4q-16 72 -46 136.5t-68 125.5t-79 119.5t-77 116.5l24 395q10 59 13.5 114.5t3.5 110.5q0 53 -3.5 106.5t-11.5 110.5q-10 10 -15 22.5t-22 12.5 q-14 -8 -25.5 -23.5t-17.5 -31.5q12 -51 17.5 -101.5t5.5 -101.5q0 -72 -7 -141.5t-16.5 -140t-16.5 -142.5t-7 -145q-43 -35 -76 -76t-60.5 -84t-52 -89t-55.5 -91l-12 10v360q8 45 11 92.5t3 96.5q0 18 -2 66t-5 106.5t-5 122t-2 112.5q0 72 6 140q0 16 -11.5 36.5 t-27.5 20.5q-14 0 -27 -21q-10 -61 -13 -118.5t-3 -114.5v-51zM555 981q0 -18 8 -37.5t21 -32.5q10 -10 23.5 -17t29.5 -7q14 0 20.5 9t6.5 22l-29 53q0 10 4 26q0 16 -8 26.5t-23 10.5q-29 0 -41 -15t-12 -38z" />
<glyph unicode="&#xf7;" horiz-adv-x="589" d="M-102 -61v-82h102q39 6 74 6l114 -6q18 0 39 2t45 8q37 -12 68 -17.5t59 -5.5q25 0 49.5 3t55.5 8l12 2h102v82h-102q-29 -6 -54.5 -8.5t-49.5 -2.5q-37 0 -74 6.5t-80 16.5q-49 -12 -84 -12l-108 6q-29 0 -66 -6h-102zM-102 1495h102q23 4 43 4q23 0 45 2l201 -10 q16 0 32.5 1t32.5 3h15q29 0 49 3t43 3q20 0 55 -6h102v82h-102q-98 0 -177 -3t-161 -3q-80 0 -178 6h-102v-82zM0 1378q0 -59 27.5 -110t46.5 -105q16 -29 22 -61.5t12.5 -63t20.5 -57.5t47 -45q23 25 42.5 45t23.5 61q2 23 11 32t23 24q20 14 34 34.5t25 41t24.5 41 t35.5 34.5q6 -176 6 -344q0 -166 -6 -328.5t-22 -326.5q-8 -29 -10.5 -58.5t-2.5 -62.5q0 -61 7 -111q12 -12 30 -12q25 0 37 21q8 72 15.5 160.5t11.5 179t7 176.5t3 151q0 18 -7 38t-7 40q0 25 18 43q6 45 6 92q0 45 -6 88q0 14 2 59.5t4 101.5t4 116.5t2 107.5 q0 14 -6 29t-24 25l-35 -19q-55 -90 -117.5 -175t-118.5 -171q-16 12 -32.5 66.5t-33 114t-35.5 107.5t-40 48q-12 0 -24.5 -6t-20.5 -21zM125 567q0 -23 29.5 -25.5t52.5 -2.5q8 6 18.5 17t10.5 24q0 10 -9 18q-4 -4 -10 -4q-10 0 -19.5 12t-21.5 12q-14 -12 -32.5 -19 t-18.5 -32z" />
<glyph unicode="&#xf8;" horiz-adv-x="874" d="M-102 -63v-80h192q76 0 139.5 2t123 5t117.5 5t120 2q61 0 131 -3t153 -11h103v82h-103q-82 8 -150.5 11t-127.5 3q-61 0 -118.5 -3t-117 -6t-124 -5t-140.5 -2h-198zM-102 1495h163q152 0 278 8t257 8q66 0 134.5 -3t143.5 -13h103v82h-103q-96 10 -182 12l-516 -26 q-41 2 -85 5t-91 9h-102v-82zM0 188q0 -49 10 -98t37 -90l31 12q12 20 12 45t3 47.5t12.5 41t39.5 26.5l37 98q14 18 25.5 37t24 33t27.5 23.5t40 9.5q12 0 20 -2q12 -43 13.5 -86t1.5 -86t6 -86t31 -84q12 0 24.5 3t12.5 19q0 20 -11 31v45q0 43 3 108.5t16 120.5 q16 0 30.5 -6t26.5 -14q45 -53 96.5 -100.5t85.5 -110.5q10 -8 23.5 -15.5t28.5 -7.5q20 0 20 17q0 8 -2 15t-2 13q0 4 3 9.5t13 9.5q-8 63 -10 124.5t-2 123.5q0 51 7 152.5t15.5 222t15.5 249.5t7 238q0 18 -1 44t-4 47.5t-10 35.5t-18 14q-10 0 -16 -2q-25 -4 -49 -47 q18 -115 18 -278q0 -90 -4 -188.5t-12 -200t-17.5 -202t-19.5 -192.5q-29 29 -53.5 60.5t-52 63.5t-58.5 60.5t-67 53.5q4 49 9 92t7 102q14 66 18 130.5t5.5 128t2.5 128t7 131.5q-6 39 -13.5 77t-33.5 69q-16 -4 -32 -10.5t-22 -28.5q0 -92 7.5 -178t11.5 -174 q-12 -68 -15.5 -139.5t-12.5 -140t-31.5 -133t-73.5 -116.5q-41 -53 -75 -110.5t-71 -110.5q-4 10 -6 23.5t-2 27.5q0 27 12 45q14 158 22.5 325t8.5 337q0 191 -12 373q-6 4 -11.5 6t-11.5 2q-35 0 -51 -41q0 -27 1 -68t3 -87t3 -95t1 -90q0 -141 -4 -243.5t-12 -192.5 t-17.5 -181.5t-19.5 -214.5z" />
<glyph unicode="&#xf9;" horiz-adv-x="1052" d="M-102 -61v-82h102q78 -4 143.5 -6.5t124.5 -2.5h551q10 10 19.5 12.5t19.5 2.5q86 0 195 -6h102v82h-102q-115 0 -205 -1t-168 -3.5t-150.5 -3.5t-152.5 -1q-39 0 -98.5 1t-117 3.5t-103.5 3.5t-58 1h-102zM-102 1495h102q41 -2 78 -2h76q84 0 159.5 2t146 4t141.5 4 t147 2q70 0 144.5 -3t160.5 -7h102v82h-102q-104 0 -193.5 -1t-170.5 -2t-158.5 -2t-159.5 -1q-41 0 -96.5 1t-109.5 2t-99.5 2t-65.5 1h-102v-82zM0 104q0 -61 53 -104q18 16 28.5 29.5t12.5 36.5q18 33 35.5 75.5t41.5 82.5t55.5 70t78.5 36q10 -10 14.5 -26.5t4.5 -35.5 q0 -35 -8.5 -73.5t-8.5 -69.5q0 -37 10.5 -65.5t40.5 -45.5q29 8 37 34t8 61q0 33 -4 67.5t-4 61.5q0 23 10.5 45t43.5 22l159 -166q12 -10 13 -30l-3 -35q0 -14 14.5 -35t35.5 -21q8 0 15 2.5t17 6.5q20 92 68.5 165.5t108.5 145.5q16 31 41.5 59.5t31.5 63.5 q-27 16 -45 16q-37 0 -65.5 -35.5t-63.5 -70.5q-14 -16 -23.5 -38t-27.5 -28q0 29 1 94.5t2 153.5t3 193.5t3 216t2 221.5t3 207l-20 36q-39 -4 -51.5 -26.5t-12.5 -54.5q0 -16 5.5 -55.5t5.5 -67.5q0 -31 -11 -49q0 -63 -1 -153.5t-3 -194t-6 -211t-10 -203.5 q0 -27 -3 -51.5t-20 -51.5q-47 59 -101 108.5t-95 117.5v841q-4 12 -14.5 26.5t-26.5 14.5q-14 0 -27.5 -13t-17.5 -28v-510q0 -29 -2 -66.5t-4 -78.5t-4.5 -83t-2.5 -79l-208 -276v745q0 12 2 48t4 79t4 84t2 64q0 53 -7.5 87.5t-29.5 34.5q-16 0 -26.5 -13t-22.5 -17 q-12 -115 -12 -213q0 -68 3 -130.5t8 -127t8 -132t3 -141.5q0 -154 -22.5 -291t-22.5 -256z" />
<glyph unicode="&#xfa;" horiz-adv-x="690" d="M-102 -61v-82h102q39 6 74 6l114 -6q18 0 39 2t45 8q37 -12 68 -17.5t59 -5.5q25 0 49.5 3t55.5 8l12 2h102v82h-102q-29 -6 -54.5 -8.5t-49.5 -2.5q-37 0 -74 6.5t-80 16.5q-49 -12 -84 -12l-108 6q-29 0 -66 -6h-102zM-102 1495h102q23 4 43 4q23 0 45 2l201 -10 q16 0 32.5 1t32.5 3h15q29 0 49 3t43 3q20 0 55 -6h102v82h-102q-98 0 -177 -3t-161 -3q-80 0 -178 6h-102v-82zM0 1044q10 -10 15 -23t28 -13q16 10 20.5 23t4.5 32q27 25 47 52.5t39.5 55t42 54t53.5 49.5q16 -10 22.5 -27.5t6.5 -38.5q0 -18 -3.5 -36.5t-3.5 -34.5 q-4 -102 -14 -206t-20.5 -207t-18.5 -205.5t-8 -203.5q0 -66 5 -132t15 -132q20 -12 35 -12q18 0 30.5 15.5t23 33.5t23.5 35.5t34 21.5q20 43 51 64.5t62.5 41t58 44t39.5 72.5q-37 39 -65.5 85t-57.5 91t-61.5 87t-79.5 75q10 174 16 346t6 350q-16 12 -27 12 q-16 0 -28 -12t-29 -19q-33 -43 -71.5 -81.5t-75.5 -78.5t-68 -83t-47 -95zM289 299q0 66 6 127t20 109q31 -14 52.5 -37t40 -50.5t36 -55t41.5 -52.5q-10 -35 -32.5 -57.5t-49 -41t-54 -36.5t-52.5 -45q-4 33 -6 67.5t-2 71.5zM436 1053q0 -29 23.5 -50.5t50.5 -21.5 q15 0 25 8q-6 10 -9.5 28.5t-6.5 37t-10 33t-20 14.5q-10 0 -31.5 -15.5t-21.5 -33.5z" />
<glyph unicode="&#xfb;" horiz-adv-x="667" d="M-102 -61v-82h102q80 0 138.5 3t106.5 6t90 6t89 3t105.5 -4t138.5 -14h102v82h-872zM-102 1495h872v82h-872v-82zM0 57l47 -57q20 0 38.5 11.5t37.5 21.5q12 37 38.5 71.5t57.5 68.5t63.5 65.5t61.5 60.5q29 18 50.5 31.5t54.5 13.5q-4 -41 -11.5 -88t-7.5 -92 q0 -35 8 -66.5t31 -54.5q12 0 20.5 7t13.5 16.5t9 16.5t10 7q6 123 13.5 230.5t14.5 217t11 229.5t4 271q0 160 -6 373q-10 8 -24 8q-16 0 -29.5 -10t-24.5 -23q0 -14 1 -89.5t1 -186.5q0 -74 -1 -156t-4 -163.5t-8 -156.5t-13 -134q-80 72 -168 149.5t-187 132.5v187 q0 84 3.5 168t17.5 172q2 12 5 29.5t3 35.5t-6 33.5t-23 26.5q-23 -8 -37 -23.5t-22 -35t-13 -40t-12 -41.5q-6 -164 -8 -316.5t-2 -301.5q0 -150 -1 -301.5t-7 -317.5zM88 319q0 84 8 165t15 167q43 -10 78.5 -35.5t68.5 -55.5t65.5 -60.5t73.5 -50.5q-29 -43 -65.5 -83 t-76.5 -80t-80 -77t-73 -74q-4 47 -9 93t-5 91z" />
<glyph unicode="&#xfc;" horiz-adv-x="522" d="M-102 -61v-82h102q39 6 74 6l114 -6q18 0 39 2t45 8q37 -12 68 -17.5t59 -5.5q25 0 49.5 3t55.5 8l12 2h102v82h-102q-29 -6 -54.5 -8.5t-49.5 -2.5q-37 0 -74 6.5t-80 16.5q-49 -12 -84 -12l-108 6q-29 0 -66 -6h-102zM-102 1495h102q23 4 43 4q23 0 45 2l201 -10 q16 0 32.5 1t32.5 3h15q29 0 49 3t43 3q20 0 55 -6h102v82h-102q-98 0 -177 -3t-161 -3q-80 0 -178 6h-102v-82zM0 49q4 -14 14.5 -31.5t28.5 -17.5q37 10 65.5 39t54 60.5t53.5 62.5t65 45q16 20 38.5 34.5t43 30t37 33t20.5 45.5q-39 49 -73 100.5t-69.5 98.5t-77 90 t-94.5 74q-4 12 -4 24q0 23 17 25q8 96 8 201q0 106 10 188q0 33 -1 73t-7 78.5t-17.5 73.5t-29.5 58q-12 -6 -29.5 -9.5t-21.5 -21.5q10 -35 14 -103.5t4 -160.5q0 -96 -4 -208t-9 -225.5t-11.5 -223t-11.5 -198.5t-9 -151.5t-4 -83.5zM82 391q0 43 5 86t19 86 q37 -18 64 -41.5t50.5 -52.5t47 -62.5t51.5 -70.5q-47 -59 -105.5 -109.5t-119.5 -91.5q0 33 -2 71t-4 72.5t-4 64.5t-2 48zM219 1090q0 -18 9.5 -32t23.5 -25t27.5 -20.5t23.5 -17.5q12 23 15.5 36t3.5 28q0 35 -19 69q-25 0 -43 -14t-41 -24z" />
<glyph unicode="&#xfd;" horiz-adv-x="483" d="M-102 -61v-82h102q39 6 74 6l114 -6q18 0 39 2t45 8q37 -12 68 -17.5t59 -5.5q25 0 49.5 3t55.5 8l12 2h102v82h-102q-29 -6 -54.5 -8.5t-49.5 -2.5q-37 0 -74 6.5t-80 16.5q-49 -12 -84 -12l-108 6q-29 0 -66 -6h-102zM-102 1495h102q23 4 43 4q23 0 45 2l201 -10 q16 0 32.5 1t32.5 3h15q29 0 49 3t43 3q20 0 55 -6h102v82h-102q-98 0 -177 -3t-161 -3q-80 0 -178 6h-102v-82zM0 1380q0 -16 6 -28q31 -74 69 -146.5t74.5 -144.5t71.5 -144.5t62 -148.5q-80 -176 -139.5 -358.5t-125.5 -364.5q23 -23 35.5 -29t22.5 -6q35 0 57 23 q0 80 22.5 152.5t53.5 142t62.5 140.5t50.5 150q12 14 16 34t7 40.5t9 36.5t23 27l4 47q-74 154 -149.5 303t-147.5 305q-4 12 -13.5 15.5t-19.5 3.5q-51 0 -51 -50zM20 764q0 -4 4.5 -16.5t19.5 -19.5t31.5 -10t33 -4t24.5 -1q0 16 12.5 28.5t12.5 28.5q0 11 -8 21 q-16 -6 -25 -7q-16 0 -31.5 9.5t-40.5 9.5q-14 -8 -23.5 -16.5t-9.5 -22.5z" />
<glyph unicode="&#xfe;" horiz-adv-x="620" d="M-102 -61v-82h102q119 6 191.5 9t140.5 3q57 0 123.5 -2t165.5 -10h102v82h-825zM-102 1495h102q37 -4 70.5 -6t62.5 -2q47 0 88 3t79 8t76 8t81 3q35 0 75.5 -3t88.5 -11h102v82h-825v-82zM0 1284q0 -104 6 -223t12.5 -243t12.5 -248t6 -240q0 -76 -3 -145.5t-11 -131.5 q10 -10 30.5 -29.5t36.5 -19.5q18 0 25 29q-10 35 -14.5 81t-4.5 93q0 10 2 60t5 110.5t5.5 119t2.5 83.5q16 -2 23 -10.5t13 -20.5q78 -113 140.5 -230.5t128.5 -228.5q6 -14 28 -14q20 0 33 14q0 41 3 129t7.5 200.5t10.5 239.5t10 246t7 221.5t3 165.5q0 27 -11 51.5 t-34 24.5q-14 0 -27 -10q-94 -152 -176 -302.5t-172 -301.5q-12 37 -17 87t-5 109q0 100 8 207t8 184q-8 43 -35 43q-23 0 -40 -29.5t-17 -70.5zM154 690q16 59 49 114.5t57 115.5q45 59 80 120.5t76 120.5q4 -72 7 -143.5t3 -143.5q0 -278 -37 -548q-100 193 -235 364z" />
<glyph unicode="&#xff;" horiz-adv-x="534" d="M-102 -61v-82h102q39 6 74 6l114 -6q18 0 39 2t45 8q37 -12 68 -17.5t59 -5.5q25 0 49.5 3t55.5 8l12 2h102v82h-102q-29 -6 -54.5 -8.5t-49.5 -2.5q-37 0 -74 6.5t-80 16.5q-49 -12 -84 -12l-108 6q-29 0 -66 -6h-102zM-102 1495h102q23 4 43 4q23 0 45 2l201 -10 q16 0 32.5 1t32.5 3h15q29 0 49 3t43 3q20 0 55 -6h102v82h-102q-98 0 -177 -3t-161 -3q-80 0 -178 6h-102v-82zM0 967q55 -66 116.5 -103t127.5 -86q0 -29 -13.5 -55.5t-34 -54t-44 -55t-41.5 -58.5q-6 -14 -16.5 -28.5l-21 -29t-18.5 -28.5t-8 -29q0 -33 33 -32 q18 0 33 10q20 25 37.5 65.5t38 79.5t48 67.5t68.5 28.5q6 0 14 -4q8 -47 15.5 -88t10.5 -83t5 -85t2 -94q0 -25 -1 -58.5t-2 -69.5t-2 -65.5t-1 -43.5q29 -23 43 -37.5t27 -14.5q8 0 16 9q-10 82 -14 173t-7 185t-5.5 187.5t-8.5 179.5q0 82 -4 175t-4 189q0 74 5.5 144 t15.5 131q-4 12 -9.5 24t-19.5 12q-8 0 -12 -2q-45 -39 -84 -85t-78 -95t-79 -97t-87 -91q-4 -12 -10 -19.5t-13.5 -15.5t-12.5 -20.5t-5 -32.5zM109 240q0 -6 6 -13q20 -6 37.5 -21.5t35.5 -15.5q10 0 21 7q-10 23 -17 51.5t-34 36.5q-6 -16 -27.5 -23.5t-21.5 -21.5z M111 1004q25 72 81 118.5t121 79.5q10 -41 15.5 -96t5.5 -115q0 -41 -3.5 -81.5t-11.5 -75.5q-31 10 -59.5 30.5t-54 45t-49 50t-45.5 44.5z" />
<glyph unicode="&#x2000;" horiz-adv-x="803" />
<glyph unicode="&#x2001;" horiz-adv-x="1606" />
<glyph unicode="&#x2002;" horiz-adv-x="803" />
<glyph unicode="&#x2003;" horiz-adv-x="1606" />
<glyph unicode="&#x2004;" horiz-adv-x="535" />
<glyph unicode="&#x2005;" horiz-adv-x="401" />
<glyph unicode="&#x2006;" horiz-adv-x="267" />
<glyph unicode="&#x2007;" horiz-adv-x="267" />
<glyph unicode="&#x2008;" horiz-adv-x="200" />
<glyph unicode="&#x2009;" horiz-adv-x="321" />
<glyph unicode="&#x200a;" horiz-adv-x="89" />
<glyph unicode="&#x2010;" d="M-109 1495h109q55 -6 100 -6l301 18q63 0 138 -12h104v82h-104q-78 12 -140 12l-299 -16h-47q-25 0 -51 4h-111v-82zM-102 -61v-82h188q14 -2 27 -2h26h279q10 2 24.5 7t26.5 5l174 -10v82q-25 0 -59.5 1t-67.5 1t-57.5 1t-30.5 1h-37l-301 -19l-90 15h-102zM102 1319 q0 -18 9.5 -32.5t24 -28t28.5 -27t26 -31.5q2 -2 11 -6q16 -10 36.5 -20.5t43.5 -10.5q25 0 45 23q-18 55 -42 102t-51 98q-8 23 -32 23q-16 0 -26.5 -9t-21 -21.5t-21.5 -22.5t-26 -13q-4 -16 -4 -24zM113 219q0 -23 8 -54.5t22.5 -60t35 -49t46.5 -20.5q20 0 39 10 q-8 18 -8 45q0 41 15.5 84t15.5 84q0 23 -9 45.5t-38 38.5q-18 -10 -41 -21.5t-41.5 -24.5t-31.5 -31.5t-13 -45.5zM131 809q0 -18 3 -46t12.5 -53.5t26.5 -44t48 -18.5q27 0 47.5 19.5t34.5 46t21.5 53.5t9.5 41q-33 29 -62.5 61.5t-64.5 32.5q-16 0 -34.5 -10t-41.5 -37 v-45z" />
<glyph unicode="&#x2011;" d="M-109 1495h109q55 -6 100 -6l301 18q63 0 138 -12h104v82h-104q-78 12 -140 12l-299 -16h-47q-25 0 -51 4h-111v-82zM-102 -61v-82h188q14 -2 27 -2h26h279q10 2 24.5 7t26.5 5l174 -10v82q-25 0 -59.5 1t-67.5 1t-57.5 1t-30.5 1h-37l-301 -19l-90 15h-102zM102 1319 q0 -18 9.5 -32.5t24 -28t28.5 -27t26 -31.5q2 -2 11 -6q16 -10 36.5 -20.5t43.5 -10.5q25 0 45 23q-18 55 -42 102t-51 98q-8 23 -32 23q-16 0 -26.5 -9t-21 -21.5t-21.5 -22.5t-26 -13q-4 -16 -4 -24zM113 219q0 -23 8 -54.5t22.5 -60t35 -49t46.5 -20.5q20 0 39 10 q-8 18 -8 45q0 41 15.5 84t15.5 84q0 23 -9 45.5t-38 38.5q-18 -10 -41 -21.5t-41.5 -24.5t-31.5 -31.5t-13 -45.5zM131 809q0 -18 3 -46t12.5 -53.5t26.5 -44t48 -18.5q27 0 47.5 19.5t34.5 46t21.5 53.5t9.5 41q-33 29 -62.5 61.5t-64.5 32.5q-16 0 -34.5 -10t-41.5 -37 v-45z" />
<glyph unicode="&#x2012;" d="M-109 1495h109q55 -6 100 -6l301 18q63 0 138 -12h104v82h-104q-78 12 -140 12l-299 -16h-47q-25 0 -51 4h-111v-82zM-102 -61v-82h188q14 -2 27 -2h26h279q10 2 24.5 7t26.5 5l174 -10v82q-25 0 -59.5 1t-67.5 1t-57.5 1t-30.5 1h-37l-301 -19l-90 15h-102zM102 1319 q0 -18 9.5 -32.5t24 -28t28.5 -27t26 -31.5q2 -2 11 -6q16 -10 36.5 -20.5t43.5 -10.5q25 0 45 23q-18 55 -42 102t-51 98q-8 23 -32 23q-16 0 -26.5 -9t-21 -21.5t-21.5 -22.5t-26 -13q-4 -16 -4 -24zM113 219q0 -23 8 -54.5t22.5 -60t35 -49t46.5 -20.5q20 0 39 10 q-8 18 -8 45q0 41 15.5 84t15.5 84q0 23 -9 45.5t-38 38.5q-18 -10 -41 -21.5t-41.5 -24.5t-31.5 -31.5t-13 -45.5zM131 809q0 -18 3 -46t12.5 -53.5t26.5 -44t48 -18.5q27 0 47.5 19.5t34.5 46t21.5 53.5t9.5 41q-33 29 -62.5 61.5t-64.5 32.5q-16 0 -34.5 -10t-41.5 -37 v-45z" />
<glyph unicode="&#x2013;" d="M-109 1495h109q55 -6 100 -6l301 18q63 0 138 -12h104v82h-104q-78 12 -140 12l-299 -16h-47q-25 0 -51 4h-111v-82zM-102 -61v-82h188q14 -2 27 -2h26h279q10 2 24.5 7t26.5 5l174 -10v82q-25 0 -59.5 1t-67.5 1t-57.5 1t-30.5 1h-37l-301 -19l-90 15h-102zM102 1319 q0 -18 9.5 -32.5t24 -28t28.5 -27t26 -31.5q2 -2 11 -6q16 -10 36.5 -20.5t43.5 -10.5q25 0 45 23q-18 55 -42 102t-51 98q-8 23 -32 23q-16 0 -26.5 -9t-21 -21.5t-21.5 -22.5t-26 -13q-4 -16 -4 -24zM113 219q0 -23 8 -54.5t22.5 -60t35 -49t46.5 -20.5q20 0 39 10 q-8 18 -8 45q0 41 15.5 84t15.5 84q0 23 -9 45.5t-38 38.5q-18 -10 -41 -21.5t-41.5 -24.5t-31.5 -31.5t-13 -45.5zM131 809q0 -18 3 -46t12.5 -53.5t26.5 -44t48 -18.5q27 0 47.5 19.5t34.5 46t21.5 53.5t9.5 41q-33 29 -62.5 61.5t-64.5 32.5q-16 0 -34.5 -10t-41.5 -37 v-45z" />
<glyph unicode="&#x2014;" d="M-109 1495h109q55 -6 100 -6l301 18q63 0 138 -12h104v82h-104q-78 12 -140 12l-299 -16h-47q-25 0 -51 4h-111v-82zM-102 -61v-82h188q14 -2 27 -2h26h279q10 2 24.5 7t26.5 5l174 -10v82q-25 0 -59.5 1t-67.5 1t-57.5 1t-30.5 1h-37l-301 -19l-90 15h-102zM102 1319 q0 -18 9.5 -32.5t24 -28t28.5 -27t26 -31.5q2 -2 11 -6q16 -10 36.5 -20.5t43.5 -10.5q25 0 45 23q-18 55 -42 102t-51 98q-8 23 -32 23q-16 0 -26.5 -9t-21 -21.5t-21.5 -22.5t-26 -13q-4 -16 -4 -24zM113 219q0 -23 8 -54.5t22.5 -60t35 -49t46.5 -20.5q20 0 39 10 q-8 18 -8 45q0 41 15.5 84t15.5 84q0 23 -9 45.5t-38 38.5q-18 -10 -41 -21.5t-41.5 -24.5t-31.5 -31.5t-13 -45.5zM131 809q0 -18 3 -46t12.5 -53.5t26.5 -44t48 -18.5q27 0 47.5 19.5t34.5 46t21.5 53.5t9.5 41q-33 29 -62.5 61.5t-64.5 32.5q-16 0 -34.5 -10t-41.5 -37 v-45z" />
<glyph unicode="&#x2026;" d="M-109 1495h109q55 -6 100 -6l301 18q63 0 138 -12h104v82h-104q-78 12 -140 12l-299 -16h-47q-25 0 -51 4h-111v-82zM-102 -61v-82h188q14 -2 27 -2h26h279q10 2 24.5 7t26.5 5l174 -10v82q-25 0 -59.5 1t-67.5 1t-57.5 1t-30.5 1h-37l-301 -19l-90 15h-102zM102 1319 q0 -18 9.5 -32.5t24 -28t28.5 -27t26 -31.5q2 -2 11 -6q16 -10 36.5 -20.5t43.5 -10.5q25 0 45 23q-18 55 -42 102t-51 98q-8 23 -32 23q-16 0 -26.5 -9t-21 -21.5t-21.5 -22.5t-26 -13q-4 -16 -4 -24zM113 219q0 -23 8 -54.5t22.5 -60t35 -49t46.5 -20.5q20 0 39 10 q-8 18 -8 45q0 41 15.5 84t15.5 84q0 23 -9 45.5t-38 38.5q-18 -10 -41 -21.5t-41.5 -24.5t-31.5 -31.5t-13 -45.5zM131 809q0 -18 3 -46t12.5 -53.5t26.5 -44t48 -18.5q27 0 47.5 19.5t34.5 46t21.5 53.5t9.5 41q-33 29 -62.5 61.5t-64.5 32.5q-16 0 -34.5 -10t-41.5 -37 v-45z" />
<glyph unicode="&#x202f;" horiz-adv-x="321" />
<glyph unicode="&#x205f;" horiz-adv-x="401" />
<glyph unicode="&#x20ac;" horiz-adv-x="516" d="M-102 -61v-82h102q39 6 74 6l114 -6q18 0 39 2t45 8q37 -12 68 -17.5t59 -5.5q25 0 49.5 3t55.5 8l12 2h102v82h-102q-29 -6 -54.5 -8.5t-49.5 -2.5q-37 0 -74 6.5t-80 16.5q-49 -12 -84 -12l-108 6q-29 0 -66 -6h-102zM-102 1495h102q23 4 43 4q23 0 45 2l201 -10 q16 0 32.5 1t32.5 3h15q29 0 49 3t43 3q20 0 55 -6h102v82h-102q-98 0 -177 -3t-161 -3q-80 0 -178 6h-102v-82z" />
<glyph unicode="&#x25fc;" horiz-adv-x="1576" d="M0 0v1577h1577v-1577h-1577z" />
</font>
</defs>
</svg>
